<svg xmlns="http://www.w3.org/2000/svg" viewBox="0 0 548.05 301.26">
  <rect x="181.89" y="4.07" width="184.52" height="35.09" rx="17.55" fill="#002a5e"/>
  <text transform="translate(203.13 30.07)" font-size="20" fill="#fff" font-family="GenSekiGothicTW-M, GenSekiGothic TW, Microsoft JhengHei, sans-serif" letter-spacing="0.1em">氫能可應用在：</text>
  <rect x="54.54" y="45.51" width="213.65" height="119.83" rx="24.04" fill="#002a5e"/>
  <rect x="279.86" y="45.51" width="213.65" height="119.83" rx="24.04" fill="#002a5e"/>
  <rect x="54.54" y="176.68" width="213.65" height="119.83" rx="24.04" fill="#002a5e"/>
  <rect x="279.86" y="176.68" width="213.65" height="119.83" rx="24.04" fill="#002a5e"/>
  <text transform="translate(112.96 151.08)" font-size="17.35" fill="#fff" font-family="GenSekiGothicTW-B, GenSekiGothic TW, Microsoft JhengHei, sans-serif" letter-spacing="0.2em">內<tspan x="20.82" y="0.83" font-size="16.52" letter-spacing="0.2em">燃機燃料</tspan></text>
  <text transform="translate(64.1 283.28)" font-size="12.39" fill="#fff" font-family="GenSekiGothicTW-B, GenSekiGothic TW, Microsoft JhengHei, sans-serif" letter-spacing="0.05em">取代化學製程中所使用的石化燃料</text>
  <text transform="translate(327.21 151.91)" font-size="16.52" fill="#fff" font-family="GenSekiGothicTW-B, GenSekiGothic TW, Microsoft JhengHei, sans-serif" letter-spacing="0.2em">燃料電池車輛</text>
  <text transform="translate(307.38 283.28)" font-size="16.52" fill="#fff" font-family="GenSekiGothicTW-B, GenSekiGothic TW, Microsoft JhengHei, sans-serif" letter-spacing="0.2em">每日與季節性儲能</text>
  <g>
    <circle cx="161.37" cy="92.26" r="39.51" fill="#fff"/>
    <g>
      <path d="M132.62,92.26a28.8,28.8,0,0,1,25.17-28.53V57a35.42,35.42,0,0,0,0,70.48v-6.71A28.8,28.8,0,0,1,132.62,92.26Z" fill="#2969af"/>
      <path d="M165,57v6.72a28.74,28.74,0,0,1,0,57v6.73A35.43,35.43,0,0,0,165,57Z" fill="#2969af"/>
    </g>
    <g>
      <path d="M172.85,114.19H148a3.19,3.19,0,0,1-3.19-3.19V83.47a3.2,3.2,0,0,1,.71-2l8.2-10.12a3.24,3.24,0,0,1,1.73-1.09,3.33,3.33,0,0,1,.75-.09h16.62A3.19,3.19,0,0,1,176,73.35V111A3.19,3.19,0,0,1,172.85,114.19ZM156.23,71.93a1.35,1.35,0,0,0-.33,0,1.47,1.47,0,0,0-.77.49l-8.21,10.12a1.44,1.44,0,0,0-.31.89V111a1.41,1.41,0,0,0,1.42,1.42h24.82a1.42,1.42,0,0,0,1.42-1.42V73.35a1.43,1.43,0,0,0-1.42-1.42Z" fill="#2969af"/>
      <path d="M148,81.37,143.78,78a1.15,1.15,0,0,1-.18-1.62l5.19-6.43a1.16,1.16,0,0,1,1.62-.17l4.19,3.38ZM145.37,77l2.33,1.88,4.41-5.46-2.33-1.88Z" fill="#2969af"/>
      <path d="M169.75,80.88H156.69V76.25a1.12,1.12,0,0,1,1.12-1.12h10.83a1.12,1.12,0,0,1,1.11,1.12Zm-11.28-1.77H168V76.9h-9.51Z" fill="#2969af"/>
      <path d="M160.63,109.66A12.28,12.28,0,1,1,172.9,97.38,12.28,12.28,0,0,1,160.63,109.66Zm0-22.78a10.51,10.51,0,1,0,10.5,10.5A10.51,10.51,0,0,0,160.63,86.88Z" fill="#2969af"/>
      <g>
        <rect x="158.61" y="101.04" width="1.73" height="7.04" rx="0.49" fill="#2864a2"/>
        <rect x="158.18" y="101.04" width="1.42" height="7.04" rx="0.49" fill="#2864a2"/>
        <g>
          <path d="M158.51,102.23h.1L168,91.44C156.45,92.75,158.51,102.23,158.51,102.23Z" fill="#fff"/>
          <path d="M158.51,102.72a.49.49,0,0,1-.48-.39,9.73,9.73,0,0,1,1.49-7.2c1.67-2.33,4.49-3.74,8.39-4.19a.5.5,0,0,1,.49.27.48.48,0,0,1-.06.55L159,102.55a.48.48,0,0,1-.37.17h-.1Zm8.2-10.6a9.7,9.7,0,0,0-6.38,3.57,8.66,8.66,0,0,0-1.45,5.46Z" fill="#2864a2"/>
        </g>
        <g>
          <path d="M168,91.44l-9.35,10.78c12.49-.07,9.43-10.79,9.43-10.79Z" fill="#fff"/>
          <path d="M158.61,102.72a.49.49,0,0,1-.37-.82l9.35-10.79a.53.53,0,0,1,.32-.17H168a.51.51,0,0,1,.53.36,11.71,11.71,0,0,1,.35,2.73,8.59,8.59,0,0,1-1.56,5.29c-1.68,2.24-4.61,3.38-8.7,3.41Zm9.13-10.27-8,9.24c3.17-.2,5.45-1.2,6.78-3A8.46,8.46,0,0,0,167.74,92.45Z" fill="#2864a2"/>
        </g>
        <g>
          <g>
            <path d="M159.17,102.29h-.06l-6-6.88C160.48,96.25,159.17,102.29,159.17,102.29Z" fill="#fff"/>
            <path d="M159.17,102.79h-.07a.53.53,0,0,1-.37-.17l-6-6.88a.5.5,0,0,1-.07-.56.52.52,0,0,1,.5-.26c2.53.29,4.38,1.21,5.47,2.74a6.37,6.37,0,0,1,1,4.74A.49.49,0,0,1,159.17,102.79Zm-4.74-6.65,4.33,5a5.06,5.06,0,0,0-.9-2.91A5.73,5.73,0,0,0,154.43,96.14Z" fill="#2864a2"/>
          </g>
          <g>
            <path d="M153.14,95.41l6,6.88c-8-.05-6-6.88-6-6.88Z" fill="#fff"/>
            <path d="M159.11,102.79h0c-2.66,0-4.58-.77-5.68-2.25a6.61,6.61,0,0,1-.81-5.27.51.51,0,0,1,.53-.36h.06a.59.59,0,0,1,.32.17l6,6.88a.49.49,0,0,1-.37.82Zm-5.7-6.31a5,5,0,0,0,.8,3.47,5.15,5.15,0,0,0,3.76,1.79Z" fill="#2864a2"/>
          </g>
        </g>
        <path d="M157.36,94.23A2.61,2.61,0,1,1,160,91.62,2.61,2.61,0,0,1,157.36,94.23Zm0-4.23A1.62,1.62,0,1,0,159,91.62,1.63,1.63,0,0,0,157.36,90Z" fill="#2864a2"/>
      </g>
    </g>
  </g>
  <g>
    <circle cx="385.03" cy="92.26" r="39.51" fill="#fff"/>
    <g>
      <g>
        <rect x="368.35" y="93.97" width="2.68" height="10.92" rx="0.77" fill="#2864a2"/>
        <rect x="367.68" y="93.97" width="2.2" height="10.92" rx="0.77" fill="#2864a2"/>
        <g>
          <path d="M368.19,95.81h.15l14.52-16.75C365,81.1,368.19,95.81,368.19,95.81Z" fill="#fff"/>
          <path d="M368.19,96.58a.78.78,0,0,1-.75-.61,15.2,15.2,0,0,1,2.32-11.18c2.59-3.62,7-5.8,13-6.49a.76.76,0,0,1,.66,1.26L368.92,96.31a.73.73,0,0,1-.57.26h-.16Zm12.73-16.45c-4.54.85-7.87,2.7-9.9,5.54a13.37,13.37,0,0,0-2.25,8.47Z" fill="#2864a2"/>
        </g>
        <g>
          <path d="M382.86,79.06,368.34,95.81C387.73,95.69,383,79,383,79Z" fill="#fff"/>
          <path d="M368.34,96.57a.75.75,0,0,1-.69-.44.78.78,0,0,1,.11-.83l14.52-16.74a.74.74,0,0,1,.5-.26h.12a.78.78,0,0,1,.83.55,18.07,18.07,0,0,1,.54,4.24,13.28,13.28,0,0,1-2.43,8.21c-2.6,3.48-7.14,5.26-13.49,5.29Zm14.18-15.94L370.08,95c4.92-.32,8.46-1.86,10.53-4.61C383.08,87.08,382.85,82.79,382.52,80.63Z" fill="#2864a2"/>
        </g>
        <g>
          <g>
            <path d="M369.21,95.91h-.09l-9.26-10.68C371.25,86.54,369.21,95.91,369.21,95.91Z" fill="#fff"/>
            <path d="M369.21,96.68h-.1a.74.74,0,0,1-.57-.27l-9.26-10.67a.77.77,0,0,1-.1-.87.75.75,0,0,1,.76-.4c3.94.45,6.8,1.88,8.5,4.25A10,10,0,0,1,370,96.08.75.75,0,0,1,369.21,96.68Zm-7.36-10.32,6.73,7.76a8,8,0,0,0-1.4-4.52A8.83,8.83,0,0,0,361.85,86.36Z" fill="#2864a2"/>
          </g>
          <g>
            <path d="M359.86,85.23l9.26,10.68c-12.37-.07-9.34-10.69-9.34-10.69Z" fill="#fff"/>
            <path d="M369.12,96.68h0c-4.14,0-7.11-1.2-8.83-3.48-2.56-3.42-1.3-8-1.24-8.19a.76.76,0,0,1,.82-.55H360a.74.74,0,0,1,.49.26l9.26,10.68a.77.77,0,0,1,.11.82A.74.74,0,0,1,369.12,96.68Zm-8.85-9.79a7.81,7.81,0,0,0,1.25,5.39c1.17,1.56,3.13,2.48,5.83,2.77Z" fill="#2864a2"/>
          </g>
        </g>
        <path d="M366.41,83.4a4.06,4.06,0,1,1,4-4.06A4.06,4.06,0,0,1,366.41,83.4Zm0-6.57a2.52,2.52,0,1,0,2.51,2.51A2.52,2.52,0,0,0,366.41,76.83Z" fill="#2864a2"/>
      </g>
      <g>
        <path d="M356.05,92.35a28.74,28.74,0,0,1,25.11-28.47V57.2a35.33,35.33,0,0,0,0,70.3v-6.7A28.72,28.72,0,0,1,356.05,92.35Z" fill="#2969af"/>
        <path d="M388.34,57.2v6.7a28.67,28.67,0,0,1,0,56.89v6.71a35.34,35.34,0,0,0,0-70.3Z" fill="#2969af"/>
      </g>
      <g>
        <g>
          <path d="M408,95.47A7.39,7.39,0,0,0,401.85,92a8.77,8.77,0,0,0-8.76-8.66h-7.27A9.61,9.61,0,0,0,376.27,92h-.18a4.59,4.59,0,0,0-4.58,4.59v8.06h37.55V99.34A7.25,7.25,0,0,0,408,95.47Zm-.76,7.36H373.36V96.62a2.73,2.73,0,0,1,2.73-2.73h2V93a7.74,7.74,0,0,1,7.74-7.73h7.27a6.91,6.91,0,0,1,6.91,6.9,1.76,1.76,0,0,0,1.76,1.76A5,5,0,0,1,403,94a5.74,5.74,0,0,1,1.16.41,5.42,5.42,0,0,1,3.06,4.9Z" fill="#2969af"/>
          <path d="M404.14,94.44A5.74,5.74,0,0,0,403,94a5,5,0,0,0-1.22-.14A1.76,1.76,0,0,1,400,92.13a6.91,6.91,0,0,0-6.91-6.9h-7.27A7.74,7.74,0,0,0,378.08,93v.93h-2a2.73,2.73,0,0,0-2.73,2.73v6.21h1.43a5.23,5.23,0,0,1,.69-1.83h0l.21-.33c.08-.11.17-.21.24-.3h0A5.34,5.34,0,0,1,382.38,99l0,0,.68.49.69.49,0,0a5.37,5.37,0,0,1,1.49,2.85h9a5.23,5.23,0,0,1,.52-1.53,5.32,5.32,0,0,1,6.37-2.59l0,0,.39.21a3.39,3.39,0,0,1,.39.18l.74.39,0,.07a5.34,5.34,0,0,1,2,3.32h2.55V99.34A5.42,5.42,0,0,0,404.14,94.44Zm-5.53.15H380v-.93a7.38,7.38,0,0,1,7.37-7.37h3.85a7.38,7.38,0,0,1,7.37,7.37Z" fill="#fff"/>
        </g>
        <g>
          <path d="M387.39,86.29A7.38,7.38,0,0,0,380,93.66v.93h10.22v-8.3Zm1,6.44H382a5.52,5.52,0,0,1,5.44-4.58h1Z" fill="#2969af"/>
          <path d="M388.39,88.15v4.58H382a5.52,5.52,0,0,1,5.44-4.58Z" fill="#fff"/>
        </g>
        <g>
          <path d="M391.24,86.29h-2.85v8.3h10.22v-.93A7.38,7.38,0,0,0,391.24,86.29Zm-1,6.44V88.15h1a5.52,5.52,0,0,1,5.44,4.58Z" fill="#2969af"/>
          <path d="M396.68,92.73h-6.44V88.15h1A5.52,5.52,0,0,1,396.68,92.73Z" fill="#fff"/>
        </g>
        <g>
          <path d="M376.59,100.89a1.71,1.71,0,0,0-.21.26,2.9,2.9,0,0,0-.19.29,4.46,4.46,0,0,0,1.22,6l.82-1.14,3.57-5,.81-1.14A4.46,4.46,0,0,0,376.59,100.89Z" fill="#fff"/>
          <path d="M383.1,99.44a5.27,5.27,0,0,0-7.16.91h0c-.07.09-.16.19-.24.3l-.21.33h0a5.31,5.31,0,0,0-.69,3.68,5.37,5.37,0,0,0,1.49,2.85,4.81,4.81,0,0,0,.64.54l.68.49,0,0,.5-.7.5-.69,1.74-2.44,1.33-1.85,1-1.46.5-.7.5-.69,0,0Zm-4.79,5.24-1,1.46a3.79,3.79,0,0,1-.76-1.46,3.52,3.52,0,0,1,0-1.85,3.62,3.62,0,0,1,.4-1h0a2.11,2.11,0,0,1,.14-.22l.16-.2h0a3.64,3.64,0,0,1,4.15-1l-1.74,2.43-1.33,1.85Z" fill="#2969af"/>
        </g>
        <g>
          <path d="M382.61,100.12l-.81,1.14-3.57,5-.82,1.14a4.47,4.47,0,1,0,5.2-7.27Z" fill="#fff"/>
          <path d="M385.24,102.83a5.37,5.37,0,0,0-1.49-2.85,4.9,4.9,0,0,0-.65-.54l-.68-.49,0,0-.5.7-.5.7-1.74,2.43-1.33,1.85h0l-1,1.46-.5.7-.49.69,0,0,.68.49a5.32,5.32,0,0,0,7.41-1.22,5.33,5.33,0,0,0,.91-4Zm-6.6,4.29,1.74-2.44,1.33-1.85,1-1.46a3.68,3.68,0,0,1,.77,1.46,3.63,3.63,0,0,1,0,1.85,3.5,3.5,0,0,1-.56,1.19A3.64,3.64,0,0,1,378.64,107.12Z" fill="#2969af"/>
        </g>
        <g>
          <path d="M395.5,101.69a4.46,4.46,0,0,0,1.89,6l4.14-7.93A4.47,4.47,0,0,0,395.5,101.69Z" fill="#fff"/>
          <path d="M401.92,99.05a3.39,3.39,0,0,0-.39-.18l-.41-.16a5.32,5.32,0,0,0-6.37,2.59,5.31,5.31,0,0,0-.52,3.38,4.54,4.54,0,0,0,.16.66,5.24,5.24,0,0,0,1.88,2.66,4.51,4.51,0,0,0,.73.46l.21.11.53.28,0-.06.4-.75.4-.77,1.35-2.59,1-1.85.94-1.8.39-.76.4-.76,0-.07ZM396,104.84s0-.1,0-.16a3.52,3.52,0,0,1,0-1.85,3.71,3.71,0,0,1,.29-.76,3.64,3.64,0,0,1,3.22-1.94,3.55,3.55,0,0,1,.86.1h0l-1.36,2.6-1,1.85-.94,1.82,0,0A3.59,3.59,0,0,1,396,104.84Z" fill="#2969af"/>
        </g>
        <g>
          <path d="M401.5,99.8l-4.14,7.91a4.46,4.46,0,1,0,4.14-7.91Z" fill="#fff"/>
          <path d="M404.65,102.83a5.34,5.34,0,0,0-2-3.32,6,6,0,0,0-.73-.46l-.36-.18-.39-.21,0,0-.4.76-.4.76-1.35,2.6-1,1.85-.94,1.8-.4.76-.39.76,0,.07.74.39.24.11a3.83,3.83,0,0,0,.56.22,5.25,5.25,0,0,0,1.66.27,5.43,5.43,0,0,0,1.59-.24,5.26,5.26,0,0,0,3.11-2.61,5.13,5.13,0,0,0,.52-1.53A5.23,5.23,0,0,0,404.65,102.83Zm-2,2.6a3.61,3.61,0,0,1-4.07,1.84h0l1.35-2.59,1-1.85.95-1.81h0a3.68,3.68,0,0,1,1.1,1.8,3.52,3.52,0,0,1,0,1.85A3,3,0,0,1,402.64,105.43Z" fill="#2969af"/>
        </g>
      </g>
    </g>
  </g>
  <g>
    <circle cx="161.37" cy="223.93" r="39.51" fill="#fff"/>
    <g>
      <g>
        <g>
          <path d="M182.24,212.16l-.75-1-.75,1c-.5.65-4.8,6.5-4.8,9.28a5.55,5.55,0,0,0,11.1,0C187,218.66,182.73,212.81,182.24,212.16Zm-.75,13a3.68,3.68,0,0,1-3.67-3.67c0-1.4,2-4.75,3.67-7.11,1.65,2.36,3.67,5.71,3.67,7.11A3.68,3.68,0,0,1,181.49,225.11Z" fill="#2969af"/>
          <path d="M164.89,235.09l-.75,1c-.62.83-2.63,3.64-2.63,5.18a3.38,3.38,0,1,0,6.76,0c0-1.54-2-4.35-2.63-5.18Zm0,7.68a1.5,1.5,0,0,1-1.5-1.49,9.17,9.17,0,0,1,1.5-3,9,9,0,0,1,1.5,3A1.5,1.5,0,0,1,164.89,242.77Z" fill="#2969af"/>
          <path d="M177.92,230.06h0L173,226.67l-.07,0-1.47-1.82.51-.42a2.38,2.38,0,0,0,.83-1.31,2.28,2.28,0,0,0,.07-.57V209.86a2.43,2.43,0,0,0-2.43-2.42H141.77a2.43,2.43,0,0,0-2.43,2.42v18.89a2.43,2.43,0,0,0,2.43,2.43h20.95a2.44,2.44,0,0,0,1.53-.54l.94-.77L166.9,232l0,.06a1,1,0,0,0,.34.27l4.89,2.22c2.19,1.15,3.07,2.17,3.15,3.64a.88.88,0,0,0,.88.83h3a.87.87,0,0,0,.88-.88v-2.79c0-.15,0-.31,0-.48A4.92,4.92,0,0,0,177.92,230.06Zm-14.52-.47a1,1,0,0,1-.68.24H141.77a1.08,1.08,0,0,1-1.08-1.08V209.86a1.08,1.08,0,0,1,1.08-1.08h28.65a1.08,1.08,0,0,1,1.08,1.08v12.65a1.13,1.13,0,0,1,0,.25,1.15,1.15,0,0,1-.37.59l-.51.41h0l-6.26,5.05,0,0Zm7-3.93,1.13,1.4-4.07,3.47-1.21-1.5Zm7.91,9.13c0,.18,0,.37,0,.55v1.91H177c-.47-2.16-2.26-3.37-4-4.28l0,0-3.65-1.66,2-1.72,1.27-1,4.32,3A3.18,3.18,0,0,1,178.3,234.79Z" fill="#2969af"/>
          <path d="M175.34,243a1.81,1.81,0,0,0,1.82,1.82h1.07a1.81,1.81,0,0,0,1.82-1.82v-2.62h-4.71Zm1.76-.85h1.19V243a.06.06,0,0,1-.06.06h-1.07a.05.05,0,0,1-.06-.06Z" fill="#2969af"/>
          <path d="M169.07,221.31v-8.24a.85.85,0,0,0-.85-.85h-3.53v9.94h3.53A.85.85,0,0,0,169.07,221.31Zm-1.35-.5H166v-7.24h1.68Z" fill="#2969af"/>
        </g>
        <path d="M152.13,209.82a9.35,9.35,0,1,1-9.34,9.35A9.36,9.36,0,0,1,152.13,209.82Zm0,1.35a8,8,0,1,0,8,8A8,8,0,0,0,152.13,211.17Z" fill="#2969af"/>
        <g>
          <rect x="143.99" y="219.38" width="5.35" height="1.31" rx="0.38" fill="#2864a2"/>
          <rect x="143.99" y="219.94" width="5.35" height="1.08" rx="0.38" fill="#2864a2"/>
          <g>
            <path d="M148.45,220.78v-.08l8.21-7.12C155.66,222.34,148.45,220.78,148.45,220.78Z" fill="#fff"/>
            <path d="M148.07,220.77v-.07a.37.37,0,0,1,.13-.28l8.21-7.12a.38.38,0,0,1,.42-.05.36.36,0,0,1,.2.37c-.34,3-1.41,5.12-3.18,6.39a7.43,7.43,0,0,1-5.48,1.13.36.36,0,0,1-.3-.36Zm1.19-.28a6.51,6.51,0,0,0,4.16-1.1,7.37,7.37,0,0,0,2.72-4.86Z" fill="#2864a2"/>
          </g>
          <g>
            <path d="M156.66,213.58l-8.21,7.12c.06-9.5,8.22-7.18,8.22-7.18A.13.13,0,0,0,156.66,213.58Z" fill="#fff"/>
            <path d="M148.07,220.7c0-3.12.89-5.34,2.6-6.62a6.56,6.56,0,0,1,4-1.19,9,9,0,0,1,2.08.27.37.37,0,0,1,.27.4v.05h0a.39.39,0,0,1-.12.25L148.7,221a.39.39,0,0,1-.41.06.38.38,0,0,1-.22-.34Zm3-6c-1.34,1-2.1,2.74-2.26,5.16l7-6.1A6.49,6.49,0,0,0,151.11,214.69Z" fill="#2864a2"/>
          </g>
          <g>
            <g>
              <path d="M148.4,220.27v0l5.23,4.54C153,219.27,148.4,220.27,148.4,220.27Z" fill="#fff"/>
              <path d="M148.32,219.91a4.85,4.85,0,0,1,3.6.74,5.67,5.67,0,0,1,2.09,4.17.38.38,0,0,1-.2.37.36.36,0,0,1-.42,0l-5.24-4.54a.39.39,0,0,1-.13-.29h0v0A.36.36,0,0,1,148.32,219.91Zm3.17,1.36a4,4,0,0,0-2.22-.69l3.81,3.3A4.37,4.37,0,0,0,151.49,221.27Z" fill="#2864a2"/>
            </g>
            <g>
              <path d="M153.63,224.86l-5.23-4.54c0,6.06,5.24,4.58,5.24,4.58Z" fill="#fff"/>
              <path d="M148.24,220a.37.37,0,0,1,.4.06l5.24,4.54a.36.36,0,0,1,.13.24h0v0a.37.37,0,0,1-.27.4,5,5,0,0,1-4-.61c-1.12-.84-1.7-2.3-1.71-4.33h0A.38.38,0,0,1,148.24,220Zm.58,1.21a3.38,3.38,0,0,0,4,3.47Z" fill="#2864a2"/>
            </g>
          </g>
          <path d="M156.52,219.66a2,2,0,1,1-2,2A2,2,0,0,1,156.52,219.66Zm0,.76a1.23,1.23,0,1,0,1.23,1.23A1.23,1.23,0,0,0,156.52,220.42Z" fill="#2864a2"/>
        </g>
      </g>
      <g>
        <path d="M132.64,223.79a28.7,28.7,0,0,1,25.07-28.42v-6.68a35.29,35.29,0,0,0,0,70.21v-6.7A28.69,28.69,0,0,1,132.64,223.79Z" fill="#2969af"/>
        <path d="M164.89,188.69v6.69a28.63,28.63,0,0,1,0,56.81v6.71a35.29,35.29,0,0,0,0-70.21Z" fill="#2969af"/>
      </g>
    </g>
  </g>
  <g>
    <circle cx="385.03" cy="223.93" r="39.51" fill="#fff"/>
    <g>
      <g>
        <path d="M380.7,232.05a14.38,14.38,0,1,1,14.37-14.38A14.4,14.4,0,0,1,380.7,232.05Zm0-26.89a12.52,12.52,0,1,0,12.51,12.51A12.53,12.53,0,0,0,380.7,205.16Z" fill="#2969af"/>
        <rect x="368.92" y="233.15" width="6.39" height="10.49" fill="#2969af"/>
        <rect x="376.66" y="227.22" width="6.39" height="16.41" fill="#2969af"/>
        <rect x="384.54" y="220.52" width="6.39" height="23.12" fill="#2969af"/>
        <g>
          <rect x="395.05" y="232.52" width="2.69" height="10.95" rx="0.77" fill="#2864a2"/>
          <rect x="394.39" y="232.52" width="2.21" height="10.95" rx="0.77" fill="#2864a2"/>
          <g>
            <path d="M394.9,234.36h.15l14.55-16.79C391.69,219.62,394.9,234.36,394.9,234.36Z" fill="#fff"/>
            <path d="M394.9,235.13a.77.77,0,0,1-.76-.61,15.26,15.26,0,0,1,2.33-11.21c2.59-3.62,7-5.81,13-6.51a.77.77,0,0,1,.67,1.27l-14.56,16.79a.75.75,0,0,1-.58.27h-.15Zm12.76-16.49c-4.55.85-7.89,2.71-9.93,5.55a13.4,13.4,0,0,0-2.26,8.5Z" fill="#2864a2"/>
          </g>
          <g>
            <path d="M409.6,217.57l-14.55,16.79c19.43-.12,14.68-16.81,14.68-16.81Z" fill="#fff"/>
            <path d="M395.05,235.13a.78.78,0,0,1-.7-.45.76.76,0,0,1,.12-.83L409,217.06a.87.87,0,0,1,.5-.26h.12a.77.77,0,0,1,.83.55,17.5,17.5,0,0,1,.54,4.25,13.39,13.39,0,0,1-2.43,8.24c-2.61,3.47-7.16,5.26-13.53,5.3Zm14.21-16-12.47,14.39c4.94-.32,8.48-1.87,10.55-4.62C409.83,225.61,409.59,221.31,409.26,219.14Z" fill="#2864a2"/>
          </g>
          <g>
            <g>
              <path d="M395.92,234.47h-.1l-9.28-10.7C398,225.06,395.92,234.47,395.92,234.47Z" fill="#fff"/>
              <path d="M395.92,235.24h-.1a.77.77,0,0,1-.58-.26L386,224.26a.76.76,0,0,1-.1-.86.78.78,0,0,1,.77-.41c3.95.45,6.81,1.89,8.52,4.27a10,10,0,0,1,1.52,7.37A.77.77,0,0,1,395.92,235.24Zm-7.38-10.35,6.75,7.78a7.94,7.94,0,0,0-1.41-4.53A8.79,8.79,0,0,0,388.54,224.89Z" fill="#2864a2"/>
            </g>
            <g>
              <path d="M386.54,223.76l9.28,10.7c-12.39-.07-9.36-10.71-9.36-10.71Z" fill="#fff"/>
              <path d="M395.82,235.23h0c-4.15,0-7.13-1.2-8.85-3.49-2.57-3.42-1.3-8-1.25-8.2a.77.77,0,0,1,.83-.56h.08a.76.76,0,0,1,.49.26L396.41,234a.78.78,0,0,1,.11.83A.76.76,0,0,1,395.82,235.23ZM387,225.41a7.8,7.8,0,0,0,1.25,5.41c1.17,1.56,3.13,2.49,5.84,2.78Z" fill="#2864a2"/>
            </g>
          </g>
        </g>
      </g>
      <g>
        <path d="M357,223.93a28.37,28.37,0,0,1,24.8-28.11v-6.61a34.9,34.9,0,0,0,0,69.44V252A28.37,28.37,0,0,1,357,223.93Z" fill="#2969af"/>
        <path d="M388.89,189.21v6.62a28.32,28.32,0,0,1,0,56.19v6.63a34.9,34.9,0,0,0,0-69.44Z" fill="#2969af"/>
      </g>
    </g>
  </g>
</svg>
