<svg id="圖層_1" data-name="圖層 1" xmlns="http://www.w3.org/2000/svg" viewBox="0 0 531.41 303.86"><rect width="258.64" height="145.06" rx="24.04" fill="#002a5e"/><rect x="272.76" width="258.64" height="145.06" rx="24.04" fill="#002a5e"/><rect y="158.8" width="258.64" height="145.06" rx="24.04" fill="#002a5e"/><rect x="272.76" y="158.8" width="258.64" height="145.06" rx="24.04" fill="#002a5e"/><text transform="translate(70.72 127.81)" font-size="21" fill="#fff" font-family="GenSekiGothicTW-B, GenSekiGothic TW" letter-spacing="0.2em">內<tspan x="25.2" y="1" font-size="20" letter-spacing="0.2em">燃機燃料</tspan></text><text transform="translate(11.57 287.84)" font-size="15" fill="#fff" font-family="GenSekiGothicTW-B, GenSekiGothic TW" letter-spacing="0.05em">取代化學製程中所使用的石化燃料</text><text transform="translate(330.08 128.81)" font-size="20" fill="#fff" font-family="GenSekiGothicTW-B, GenSekiGothic TW" letter-spacing="0.2em">燃料電池車輛</text><text transform="translate(306.08 287.84)" font-size="20" fill="#fff" font-family="GenSekiGothicTW-B, GenSekiGothic TW" letter-spacing="0.2em">每日與季節性儲能</text><circle cx="129.32" cy="56.6" r="47.83" fill="#fff"/><path d="M94.52,56.6A34.87,34.87,0,0,1,125,22.06V13.94a42.88,42.88,0,0,0,0,85.33V91.13A34.86,34.86,0,0,1,94.52,56.6Z" fill="#2969af"/><path d="M133.71,13.94v8.13a34.8,34.8,0,0,1,0,69.05v8.15a42.89,42.89,0,0,0,0-85.33Z" fill="#2969af"/><path d="M143.22,83.15h-30a3.86,3.86,0,0,1-3.86-3.86V46a3.92,3.92,0,0,1,.86-2.43l9.94-12.26A3.85,3.85,0,0,1,122.2,30a3.61,3.61,0,0,1,.91-.12h20.11a3.87,3.87,0,0,1,3.86,3.87V79.29A3.86,3.86,0,0,1,143.22,83.15ZM123.11,32a2.08,2.08,0,0,0-.41.05,1.82,1.82,0,0,0-.93.58l-9.93,12.26a1.72,1.72,0,0,0-.39,1.08V79.29A1.73,1.73,0,0,0,113.17,81h30.05a1.72,1.72,0,0,0,1.72-1.72V33.71A1.72,1.72,0,0,0,143.22,32Z" fill="#2969af"/><path d="M113.1,43.41,108,39.32a1.4,1.4,0,0,1-.21-2l6.27-7.78a1.41,1.41,0,0,1,2-.21l5.08,4.1ZM110,38.11l2.82,2.29,5.34-6.62-2.83-2.28Z" fill="#2969af"/><path d="M139.47,42.82h-15.8v-5.6A1.34,1.34,0,0,1,125,35.87h13.1a1.34,1.34,0,0,1,1.35,1.35Zm-13.66-2.14h11.52V38H125.81Z" fill="#2969af"/><path d="M128.42,77.67A14.87,14.87,0,1,1,143.29,62.8,14.88,14.88,0,0,1,128.42,77.67Zm0-27.59A12.72,12.72,0,1,0,141.15,62.8,12.74,12.74,0,0,0,128.42,50.08Z" fill="#2969af"/><rect x="125.99" y="67.23" width="2.09" height="8.52" rx="0.6" fill="#2864a2"/><rect x="125.47" y="67.23" width="1.72" height="8.52" rx="0.6" fill="#2864a2"/><path d="M125.86,68.66H126L137.31,55.6C123.37,57.2,125.86,68.66,125.86,68.66Z" fill="#fff"/><path d="M125.86,69.26a.59.59,0,0,1-.58-.47,11.84,11.84,0,0,1,1.81-8.72c2-2.82,5.43-4.52,10.15-5.06a.61.61,0,0,1,.6.31.63.63,0,0,1-.08.68L126.44,69.06a.61.61,0,0,1-.45.2h-.13Zm9.93-12.83c-3.54.67-6.13,2.12-7.72,4.33a10.48,10.48,0,0,0-1.76,6.61Z" fill="#2864a2"/><path d="M137.31,55.6,126,68.66c15.12-.09,11.42-13.07,11.42-13.07Z" fill="#fff"/><path d="M126,69.26a.59.59,0,0,1-.54-.35.6.6,0,0,1,.09-.64l11.32-13.06a.59.59,0,0,1,.39-.2h.1a.6.6,0,0,1,.64.44,13.45,13.45,0,0,1,.42,3.3,10.37,10.37,0,0,1-1.89,6.41c-2,2.7-5.57,4.09-10.52,4.12ZM137,56.82,127.34,68c3.84-.25,6.6-1.45,8.21-3.6C137.48,61.86,137.3,58.51,137,56.82Z" fill="#2864a2"/><path d="M126.66,68.75h-.07l-7.22-8.33C128.25,61.43,126.66,68.75,126.66,68.75Z" fill="#fff"/><path d="M126.66,69.35h-.08a.66.66,0,0,1-.45-.21l-7.22-8.33a.61.61,0,0,1,.52-1c3.07.35,5.3,1.47,6.63,3.32a7.75,7.75,0,0,1,1.19,5.73A.61.61,0,0,1,126.66,69.35Zm-5.74-8,5.25,6a6.27,6.27,0,0,0-1.09-3.52A6.88,6.88,0,0,0,120.92,61.3Z" fill="#2864a2"/><path d="M119.37,60.42l7.22,8.33c-9.64-.06-7.29-8.34-7.29-8.34Z" fill="#fff"/><path d="M126.59,69.35h0c-3.23,0-5.54-.94-6.88-2.72-2-2.67-1-6.23-1-6.39a.6.6,0,0,1,.64-.43h.06a.64.64,0,0,1,.39.2L127,68.35a.61.61,0,0,1,.09.65A.61.61,0,0,1,126.59,69.35Zm-6.9-7.64a6.08,6.08,0,0,0,1,4.2,6.2,6.2,0,0,0,4.55,2.16Z" fill="#2864a2"/><path d="M124.47,59a3.16,3.16,0,1,1,3.16-3.16A3.17,3.17,0,0,1,124.47,59Zm0-5.13a2,2,0,1,0,2,2A2,2,0,0,0,124.47,53.86Z" fill="#2864a2"/><circle cx="400.08" cy="56.6" r="47.83" fill="#fff"/><rect x="379.89" y="58.67" width="3.25" height="13.22" rx="0.93" fill="#2864a2"/><rect x="379.08" y="58.67" width="2.67" height="13.22" rx="0.93" fill="#2864a2"/><path d="M379.7,60.89h.18l17.58-20.27C375.83,43.09,379.7,60.89,379.7,60.89Z" fill="#fff"/><path d="M379.7,61.83a.93.93,0,0,1-.91-.74c-.07-.3-1.55-7.45,2.81-13.54,3.13-4.37,8.43-7,15.75-7.85a.91.91,0,0,1,.93.49.93.93,0,0,1-.12,1L380.59,61.5a.94.94,0,0,1-.7.32h-.19Zm15.41-19.92c-5.5,1-9.52,3.28-12,6.71a16.14,16.14,0,0,0-2.72,10.26Z" fill="#2864a2"/><path d="M397.46,40.62,379.88,60.89c23.47-.14,17.73-20.29,17.73-20.29Z" fill="#fff"/><path d="M379.88,61.82a.92.92,0,0,1-.84-.54.94.94,0,0,1,.14-1L396.76,40a.86.86,0,0,1,.59-.31h.16a.92.92,0,0,1,1,.66,20.93,20.93,0,0,1,.66,5.14,16.1,16.1,0,0,1-2.94,9.94c-3.15,4.2-8.64,6.36-16.33,6.4Zm17.17-19.3L382,59.89c6-.38,10.25-2.25,12.75-5.58C397.73,50.33,397.45,45.13,397.05,42.52Z" fill="#2864a2"/><path d="M380.94,61h-.12L369.61,48.09C383.4,49.67,380.94,61,380.94,61Z" fill="#fff"/><path d="M380.94,62h-.13a.94.94,0,0,1-.7-.32L368.91,48.7a.93.93,0,0,1-.12-1,.91.91,0,0,1,.92-.49c4.77.54,8.23,2.28,10.29,5.15a12.09,12.09,0,0,1,1.85,8.9A.94.94,0,0,1,380.94,62ZM372,49.46l8.15,9.4a9.59,9.59,0,0,0-1.7-5.48A10.67,10.67,0,0,0,372,49.46Z" fill="#2864a2"/><path d="M369.61,48.09,380.82,61c-15-.09-11.31-12.94-11.31-12.94Z" fill="#fff"/><path d="M380.82,62h0c-5,0-8.61-1.45-10.68-4.22-3.11-4.13-1.58-9.67-1.51-9.91a.92.92,0,0,1,1-.66h.1a1,1,0,0,1,.59.31l11.21,12.93a.93.93,0,0,1-.7,1.54ZM370.11,50.09a9.51,9.51,0,0,0,1.51,6.54c1.42,1.88,3.79,3,7.06,3.35Z" fill="#2864a2"/><path d="M377.54,45.87a4.91,4.91,0,1,1,4.9-4.9A4.91,4.91,0,0,1,377.54,45.87Zm0-7.95a3,3,0,1,0,3,3A3.06,3.06,0,0,0,377.54,37.92Z" fill="#2864a2"/><path d="M365,56.71a34.79,34.79,0,0,1,30.39-34.46v-8.1a42.78,42.78,0,0,0,0,85.12V91.15A34.77,34.77,0,0,1,365,56.71Z" fill="#2969af"/><path d="M404.09,14.15v8.12a34.71,34.71,0,0,1,0,68.87v8.13a42.79,42.79,0,0,0,0-85.12Z" fill="#2969af"/><path d="M427.84,60.48a8.81,8.81,0,0,0-3.63-3.25,8.71,8.71,0,0,0-3.76-.91,10.61,10.61,0,0,0-10.6-10.48H401a11.62,11.62,0,0,0-11.55,10.48h-.22a5.56,5.56,0,0,0-5.55,5.55v9.77h45.46V65.17A8.81,8.81,0,0,0,427.84,60.48Zm-.92,8.91H386V61.87a3.3,3.3,0,0,1,3.3-3.3h2.41V57.45A9.37,9.37,0,0,1,401,48.09h8.82a8.36,8.36,0,0,1,8.35,8.35,2.13,2.13,0,0,0,2.13,2.13,6.72,6.72,0,0,1,1.48.17,6.29,6.29,0,0,1,1.41.51,6.54,6.54,0,0,1,3.7,5.92Z" fill="#2969af"/><path d="M423.22,59.25a6.29,6.29,0,0,0-1.41-.51,6.72,6.72,0,0,0-1.48-.17,2.13,2.13,0,0,1-2.13-2.13,8.36,8.36,0,0,0-8.35-8.35H401a9.37,9.37,0,0,0-9.36,9.36v1.12h-2.41a3.3,3.3,0,0,0-3.3,3.3v7.52h1.72a6.43,6.43,0,0,1,.84-2.21v0c.07-.11.15-.25.25-.39a4.1,4.1,0,0,1,.29-.36v0a6.46,6.46,0,0,1,7.79-1.63l.05-.06.83.59.83.59-.05.07a6.36,6.36,0,0,1,1.8,3.44h10.88a6.56,6.56,0,0,1,.64-1.85,6.43,6.43,0,0,1,7.71-3.13l0-.06.47.25a5,5,0,0,1,.47.22l.9.47-.05.09a6.48,6.48,0,0,1,2.46,4h3.08V65.17A6.54,6.54,0,0,0,423.22,59.25Zm-6.69.17H394V58.3a9,9,0,0,1,8.93-8.93h4.66a9,9,0,0,1,8.93,8.93Z" fill="#fff"/><path d="M402.94,49.37A9,9,0,0,0,394,58.3v1.12h12.38V49.37Zm1.21,7.8h-7.79a6.68,6.68,0,0,1,6.58-5.55h1.21Z" fill="#2969af"/><path d="M404.15,51.62v5.55h-7.79a6.68,6.68,0,0,1,6.58-5.55Z" fill="#fff"/><path d="M407.6,49.37h-3.45V59.42h12.38V58.3A9,9,0,0,0,407.6,49.37Zm-1.21,7.8V51.62h1.21a6.68,6.68,0,0,1,6.58,5.55Z" fill="#2969af"/><path d="M414.18,57.17h-7.79V51.62h1.21A6.68,6.68,0,0,1,414.18,57.17Z" fill="#fff"/><path d="M389.86,67.05a3.76,3.76,0,0,0-.25.31l-.22.35a5.41,5.41,0,0,0,1.47,7.21l1-1.39,4.33-6,1-1.38A5.41,5.41,0,0,0,389.86,67.05Z" fill="#fff"/><path d="M397.75,65.29a6.63,6.63,0,0,0-.88-.53,6.46,6.46,0,0,0-7.79,1.63v0a4.1,4.1,0,0,0-.29.36c-.1.14-.18.28-.25.39v0a6.43,6.43,0,0,0-.84,2.21,6.52,6.52,0,0,0,1.8,5.69,6.18,6.18,0,0,0,.78.66l.83.59.05-.06.6-.84.6-.85,2.11-2.94,1.61-2.25,1.26-1.76.61-.84.6-.84.05-.07ZM392,71.64l-1.26,1.76a4.45,4.45,0,0,1-.92-1.76,4.4,4.4,0,0,1,0-2.25,4.48,4.48,0,0,1,.49-1.15v0l.17-.26.2-.25h0a4.41,4.41,0,0,1,5-1.25l-2.11,2.94L392,71.64Z" fill="#2969af"/><path d="M397.16,66.12l-1,1.38-4.33,6-1,1.39a5.41,5.41,0,1,0,6.3-8.8Z" fill="#fff"/><path d="M400.33,69.39a6.36,6.36,0,0,0-1.8-3.44,6.18,6.18,0,0,0-.78-.66l-.83-.59-.05.06-.6.84-.6.85-2.11,2.94L392,71.64h0l-1.26,1.76-.6.84-.61.84,0,.07.82.59a7.34,7.34,0,0,0,.88.53,6.42,6.42,0,0,0,9.19-4.63A6.3,6.3,0,0,0,400.33,69.39Zm-8,5.19,2.11-2.94,1.61-2.25,1.26-1.76a4.41,4.41,0,0,1,.93,1.76,4.29,4.29,0,0,1,0,2.25,4.25,4.25,0,0,1-.67,1.43A4.39,4.39,0,0,1,392.34,74.58Z" fill="#2969af"/><path d="M412.75,68a5.41,5.41,0,0,0,2.29,7.3l5-9.59A5.41,5.41,0,0,0,412.75,68Z" fill="#fff"/><path d="M420.53,64.82a5,5,0,0,0-.47-.22c-.17-.07-.34-.14-.5-.19a6.43,6.43,0,0,0-7.71,3.13,6.56,6.56,0,0,0-.64,1.85,6.3,6.3,0,0,0,0,2.25,7.16,7.16,0,0,0,.19.8,6.41,6.41,0,0,0,3.16,3.77l.25.13.65.34,0-.06.48-.92.48-.92,1.64-3.14,1.17-2.25,1.14-2.17.48-.92.48-.92.05-.09Zm-7.17,7-.06-.19a4.29,4.29,0,0,1,0-2.25,4.38,4.38,0,0,1,4.26-3.27,4.17,4.17,0,0,1,1,.13h0L417,69.39l-1.18,2.25-1.14,2.19,0,0A4.28,4.28,0,0,1,413.36,71.83Z" fill="#2969af"/><path d="M420,65.72l-5,9.59a5.41,5.41,0,0,0,5-9.59Z" fill="#fff"/><path d="M423.84,69.39a6.48,6.48,0,0,0-2.46-4,7.41,7.41,0,0,0-.89-.56l-.43-.22-.47-.25,0,.06-.48.91-.48.93L417,69.39l-1.17,2.25-1.13,2.17-.49.93-.48.91,0,.09.9.47.28.13a6.65,6.65,0,0,0,.69.28,6.49,6.49,0,0,0,2,.32,6.42,6.42,0,0,0,6.33-5.3A6.54,6.54,0,0,0,423.84,69.39Zm-2.43,3.16a4.41,4.41,0,0,1-4.94,2.23h0l1.64-3.13,1.17-2.25,1.14-2.19,0,0a4.45,4.45,0,0,1,1.34,4.42A4.61,4.61,0,0,1,421.41,72.55Z" fill="#2969af"/><circle cx="129.32" cy="216" r="47.83" fill="#fff"/><path d="M154.6,201.74l-.92-1.22-.91,1.22c-.59.8-5.81,7.88-5.81,11.24a6.72,6.72,0,0,0,13.44,0C160.4,209.62,155.19,202.54,154.6,201.74Zm-.92,15.68a4.44,4.44,0,0,1-4.44-4.44c0-1.69,2.44-5.75,4.44-8.61,2,2.86,4.44,6.92,4.44,8.61A4.44,4.44,0,0,1,153.68,217.42Z" fill="#2969af"/><path d="M133.59,229.51l-.92,1.22c-.74,1-3.17,4.4-3.17,6.27a4.09,4.09,0,1,0,8.18,0c0-1.87-2.43-5.27-3.18-6.27Zm0,9.3a1.82,1.82,0,0,1-1.82-1.81,11.17,11.17,0,0,1,1.82-3.61A11,11,0,0,1,135.4,237,1.82,1.82,0,0,1,133.59,238.81Z" fill="#2969af"/><path d="M149.36,223.41h0l-6-4.08-.09,0-1.78-2.21.63-.5a3,3,0,0,0,1-1.59,2.86,2.86,0,0,0,.09-.7V199a2.94,2.94,0,0,0-2.94-2.94H105.6a2.94,2.94,0,0,0-2.94,2.94v22.86a2.94,2.94,0,0,0,2.94,2.94H131a3,3,0,0,0,1.85-.65l1.14-.93,2.07,2.56.07.08a1.16,1.16,0,0,0,.4.32l5.92,2.69c2.65,1.39,3.72,2.62,3.81,4.4a1.07,1.07,0,0,0,1.07,1h3.59a1.06,1.06,0,0,0,1.06-1.07v-3.38c0-.18,0-.38,0-.59A5.94,5.94,0,0,0,149.36,223.41Zm-17.58-.56a1.28,1.28,0,0,1-.82.29H105.6a1.31,1.31,0,0,1-1.31-1.31V199a1.31,1.31,0,0,1,1.31-1.31h34.69a1.31,1.31,0,0,1,1.3,1.31v15.3a1.15,1.15,0,0,1,0,.31,1.27,1.27,0,0,1-.44.71l-.62.5h0l-7.57,6.11,0,0Zm8.47-4.76,1.36,1.69-4.92,4.2-1.47-1.82Zm9.58,11c0,.22,0,.45,0,.67v2.31h-1.59c-.56-2.61-2.73-4.08-4.85-5.19l-.05,0-4.42-2,2.46-2.09,1.53-1.24,5.24,3.59C149.93,226.44,149.88,227.75,149.83,229.14Z" fill="#2969af"/><path d="M146.23,239.13a2.21,2.21,0,0,0,2.21,2.21h1.3a2.2,2.2,0,0,0,2.2-2.21V236h-5.71Zm2.14-1h1.44v1a.07.07,0,0,1-.07.07h-1.3a.07.07,0,0,1-.07-.07Z" fill="#2969af"/><path d="M138.64,212.82v-10a1,1,0,0,0-1-1h-4.27v12h4.27A1,1,0,0,0,138.64,212.82Zm-1.63-.6h-2v-8.77h2Z" fill="#2969af"/><path d="M118.14,198.92a11.31,11.31,0,1,1-11.31,11.31A11.33,11.33,0,0,1,118.14,198.92Zm0,1.63a9.68,9.68,0,1,0,9.68,9.68A9.69,9.69,0,0,0,118.14,200.55Z" fill="#2969af"/><rect x="108.29" y="210.49" width="6.48" height="1.59" rx="0.46" fill="#2864a2"/><rect x="108.29" y="211.17" width="6.48" height="1.31" rx="0.46" fill="#2864a2"/><path d="M113.68,212.18v-.09l9.94-8.62C122.41,214.07,113.68,212.18,113.68,212.18Z" fill="#fff"/><path d="M113.23,212.18v-.1a.46.46,0,0,1,.16-.34l9.93-8.62a.47.47,0,0,1,.52-.05.45.45,0,0,1,.24.45c-.41,3.59-1.71,6.19-3.86,7.73a9,9,0,0,1-6.63,1.37.45.45,0,0,1-.36-.44Zm1.44-.35a7.92,7.92,0,0,0,5-1.33,8.89,8.89,0,0,0,3.29-5.88Z" fill="#2864a2"/><path d="M123.62,203.47l-9.94,8.62c.08-11.51,9.95-8.69,9.95-8.69A.2.2,0,0,1,123.62,203.47Z" fill="#fff"/><path d="M113.23,212.08c0-3.77,1.08-6.46,3.14-8a7.87,7.87,0,0,1,4.87-1.43,9.84,9.84,0,0,1,2.52.32.46.46,0,0,1,.33.49.07.07,0,0,0,0,.05v0a.47.47,0,0,1-.16.29L114,212.43a.46.46,0,0,1-.49.07.45.45,0,0,1-.26-.41Zm3.68-7.27c-1.63,1.22-2.55,3.32-2.73,6.25l8.51-7.39A7.9,7.9,0,0,0,116.91,204.81Z" fill="#2864a2"/><path d="M113.62,211.57v.06l6.34,5.49C119.19,210.36,113.62,211.57,113.62,211.57Z" fill="#fff"/><path d="M113.52,211.12a5.93,5.93,0,0,1,4.37.91,6.78,6.78,0,0,1,2.52,5,.46.46,0,0,1-.24.46.48.48,0,0,1-.51-.06l-6.34-5.5a.43.43,0,0,1-.15-.34v0s0,0,0,0A.46.46,0,0,1,113.52,211.12Zm3.85,1.66a4.81,4.81,0,0,0-2.69-.84l4.61,4A5.26,5.26,0,0,0,117.37,212.78Z" fill="#2864a2"/><path d="M120,217.12l-6.34-5.49c0,7.33,6.35,5.54,6.35,5.54A.09.09,0,0,1,120,217.12Z" fill="#fff"/><path d="M113.43,211.21a.48.48,0,0,1,.49.07l6.34,5.5a.46.46,0,0,1,.15.29h0v0a.46.46,0,0,1-.33.49,6.08,6.08,0,0,1-4.86-.74c-1.35-1-2-2.78-2.06-5.24h0A.47.47,0,0,1,113.43,211.21Zm.7,1.46a4.73,4.73,0,0,0,1.65,3.47,4.63,4.63,0,0,0,3.2.74Z" fill="#2864a2"/><path d="M123.45,210.83a2.41,2.41,0,1,1-2.4,2.41A2.41,2.41,0,0,1,123.45,210.83Zm0,.91a1.5,1.5,0,1,0,1.5,1.5A1.5,1.5,0,0,0,123.45,211.74Z" fill="#2864a2"/><path d="M94.55,215.83a34.74,34.74,0,0,1,30.35-34.41v-8.08a42.71,42.71,0,0,0,0,85v-8.1A34.72,34.72,0,0,1,94.55,215.83Z" fill="#2969af"/><path d="M133.59,173.34v8.1a34.66,34.66,0,0,1,0,68.77v8.11a42.71,42.71,0,0,0,0-85Z" fill="#2969af"/><circle cx="400.08" cy="216" r="47.83" fill="#fff"/><path d="M394.84,225.82a17.4,17.4,0,1,1,17.4-17.4A17.41,17.41,0,0,1,394.84,225.82Zm0-32.55A15.15,15.15,0,1,0,410,208.42,15.17,15.17,0,0,0,394.84,193.27Z" fill="#2969af"/><rect x="380.58" y="227.15" width="7.73" height="12.7" fill="#2969af"/><rect x="389.95" y="219.98" width="7.73" height="19.87" fill="#2969af"/><rect x="399.49" y="211.87" width="7.73" height="27.99" fill="#2969af"/><rect x="412.22" y="226.39" width="3.25" height="13.26" rx="0.93" fill="#2864a2"/><rect x="411.41" y="226.39" width="2.67" height="13.26" rx="0.93" fill="#2864a2"/><path d="M412,228.62h.18l17.62-20.32C408.15,210.78,412,228.62,412,228.62Z" fill="#fff"/><path d="M412,229.55a.94.94,0,0,1-.92-.73c-.06-.3-1.55-7.47,2.82-13.57,3.14-4.39,8.46-7,15.8-7.88a.93.93,0,0,1,.81,1.54l-17.62,20.32a.94.94,0,0,1-.7.32H412Zm15.45-20c-5.52,1-9.55,3.29-12,6.73a16.14,16.14,0,0,0-2.73,10.28Z" fill="#2864a2"/><path d="M429.83,208.3l-17.62,20.32c23.53-.14,17.77-20.34,17.77-20.34Z" fill="#fff"/><path d="M412.21,229.55a.93.93,0,0,1-.7-1.54l17.62-20.32a.91.91,0,0,1,.6-.32h.15a.94.94,0,0,1,1,.67,21.87,21.87,0,0,1,.65,5.15,16.09,16.09,0,0,1-2.94,10c-3.15,4.21-8.66,6.37-16.37,6.42Zm17.21-19.35-15.1,17.42c6-.39,10.27-2.26,12.78-5.6C430.1,218,429.82,212.82,429.42,210.2Z" fill="#2864a2"/><path d="M413.27,228.75h-.12l-11.24-13C415.74,217.37,413.27,228.75,413.27,228.75Z" fill="#fff"/><path d="M413.27,229.68h-.13a.94.94,0,0,1-.7-.32l-11.23-13a.93.93,0,0,1,.81-1.54c4.78.55,8.25,2.28,10.31,5.16a12.17,12.17,0,0,1,1.85,8.93A.92.92,0,0,1,413.27,229.68Zm-8.94-12.53,8.17,9.43a9.71,9.71,0,0,0-1.7-5.49A10.71,10.71,0,0,0,404.33,217.15Z" fill="#2864a2"/><path d="M401.91,215.79l11.24,13c-15-.09-11.33-13-11.33-13Z" fill="#fff"/><path d="M413.15,229.68h0c-5,0-8.63-1.45-10.71-4.23-3.11-4.15-1.58-9.7-1.51-9.93a.93.93,0,0,1,1-.67h.1a1,1,0,0,1,.6.32l11.23,13a.94.94,0,0,1,.15,1A1,1,0,0,1,413.15,229.68Zm-10.73-11.89a9.43,9.43,0,0,0,1.51,6.55c1.42,1.89,3.8,3,7.08,3.36Z" fill="#2864a2"/><path d="M366.15,216a34.36,34.36,0,0,1,30-34v-8a42.24,42.24,0,0,0,0,84.06v-8A34.35,34.35,0,0,1,366.15,216Z" fill="#2969af"/><path d="M404.76,174v8a34.28,34.28,0,0,1,0,68v8a42.25,42.25,0,0,0,0-84.06Z" fill="#2969af"/></svg>