<svg id="圖層_1" data-name="圖層 1" xmlns="http://www.w3.org/2000/svg" viewBox="0 0 480.46 291.53"><line x1="1.3" y1="291.53" x2="480.44" y2="291.53" fill="none" stroke="#211815" stroke-miterlimit="10"/><path d="M245,50.68l.25,52.39H26.2A26.2,26.2,0,0,1,0,77H0A26.19,26.19,0,0,1,26.2,50.68Z" fill="#002a5e"/><circle cx="28.8" cy="76.87" r="20.8" fill="#fff"/><path d="M27,93.05A16.23,16.23,0,0,1,27,60.7V58.86c-9.44.87-16.86,8.66-16.86,18S17.53,93.91,27,94.89Z" fill="#012d80" fill-rule="evenodd"/><path d="M30.8,58.86V60.6A16.34,16.34,0,0,1,45.07,76.87,16.16,16.16,0,0,1,30.8,93v1.85a18.13,18.13,0,0,0,0-36Z" fill="#012d80" fill-rule="evenodd"/><path d="M245,109.9l.25,52.4H26.2A26.2,26.2,0,0,1,0,136.23H0A26.2,26.2,0,0,1,26.2,109.9Z" fill="#002a5e"/><circle cx="28.8" cy="136.1" r="20.8" fill="#fff"/><path d="M27,152.27a16.22,16.22,0,0,1,0-32.34v-1.84c-9.44.86-16.86,8.65-16.86,18S17.53,153.14,27,154.11Z" fill="#012d80" fill-rule="evenodd"/><path d="M30.8,118.09v1.73A16.35,16.35,0,0,1,45.07,136.1,16.17,16.17,0,0,1,30.8,152.27v1.84a18.12,18.12,0,0,0,0-36Z" fill="#012d80" fill-rule="evenodd"/><path d="M245,169.13l.25,52.39H26.2A26.2,26.2,0,0,1,0,195.45H0a26.2,26.2,0,0,1,26.2-26.32Z" fill="#002a5e"/><circle cx="28.8" cy="195.33" r="20.8" fill="#fff"/><path d="M27,211.5a16.23,16.23,0,0,1,0-32.35v-1.84c-9.44.87-16.86,8.66-16.86,18S17.53,212.36,27,213.34Z" fill="#012d80" fill-rule="evenodd"/><path d="M30.8,177.31v1.74a16.35,16.35,0,0,1,14.27,16.28A16.15,16.15,0,0,1,30.8,211.49v1.85a18.13,18.13,0,0,0,0-36Z" fill="#012d80" fill-rule="evenodd"/><path d="M245,228.36l.25,52.39H26.2A26.2,26.2,0,0,1,0,254.68H0a26.19,26.19,0,0,1,26.2-26.32Z" fill="#002a5e"/><circle cx="28.8" cy="254.55" r="20.8" fill="#fff"/><path d="M27,270.72a16.22,16.22,0,0,1,0-32.34v-1.84c-9.44.86-16.86,8.65-16.86,18S17.53,271.59,27,272.56Z" fill="#012d80" fill-rule="evenodd"/><path d="M30.8,236.54v1.73a16.36,16.36,0,0,1,14.27,16.28A16.16,16.16,0,0,1,30.8,270.72v1.84a18.12,18.12,0,0,0,0-36Z" fill="#012d80" fill-rule="evenodd"/><text transform="translate(60.13 83.21)" font-size="13" fill="#fff" font-family="GenSekiGothicTW-B, GenSekiGothic TW, Noto Sans CJK TC, sans-serif" letter-spacing="0.2em">減少用水量99%</text><text transform="translate(60.13 141.4)" font-size="13" fill="#fff" font-family="GenSekiGothicTW-B, GenSekiGothic TW, Noto Sans CJK TC, sans-serif" letter-spacing="0.2em">減少土地使用93%</text><text transform="translate(60.12 261.41)" font-size="13" fill="#fff" font-family="GenSekiGothicTW-B, GenSekiGothic TW, Noto Sans CJK TC, sans-serif" letter-spacing="0.2em">減少耗能99%</text><text transform="translate(60.12 201.09)" font-size="13" fill="#fff" font-family="GenSekiGothicTW-B, GenSekiGothic TW, Noto Sans CJK TC, sans-serif" letter-spacing="0.2em">溫室氣體排放量減少90%</text><rect x="123.24" width="245.48" height="39.89" rx="19.95" fill="#002a5e"/><path d="M28.8,89.92a9.5,9.5,0,0,1-9.49-9.49c0-4.76,7.44-14.86,8.28-16a1.56,1.56,0,0,1,2.41,0c.84,1.13,8.28,11.23,8.28,16A9.5,9.5,0,0,1,28.8,89.92Zm0-22C25.91,72,22.31,78,22.31,80.43a6.49,6.49,0,1,0,13,0C35.28,78,31.68,72,28.8,67.89Z" fill="#012d80"/><path d="M37.05,189.89a5.9,5.9,0,0,0-2,.37,7.55,7.55,0,0,0-6.4-3.55H28.3A7.53,7.53,0,0,0,21.42,192a4.91,4.91,0,0,0-1.76-.32,5.07,5.07,0,1,0,0,10.13H37.05a6,6,0,0,0,0-11.91Z" fill="#fff"/><path d="M37.05,202.3H19.66a5.57,5.57,0,1,1,0-11.13,5.43,5.43,0,0,1,1.44.19,8.08,8.08,0,0,1,7.18-5.14h.34a8,8,0,0,1,6.61,3.45,6.27,6.27,0,0,1,1.82-.27,6.46,6.46,0,0,1,0,12.91ZM19.66,192.17a4.57,4.57,0,1,0,0,9.13H37.05a5.46,5.46,0,1,0-1.86-10.57.51.51,0,0,1-.6-.21,7,7,0,0,0-6-3.31h-.3a7.06,7.06,0,0,0-6.43,4.92.5.5,0,0,1-.25.3.55.55,0,0,1-.4,0A4.33,4.33,0,0,0,19.66,192.17Z" fill="#012d80"/><text transform="translate(21.44 198.19)" font-size="9.1" fill="#012d80" font-family="DFHei-Bd-HKP-BF, DFHei Bd-HKP-BF">CO<tspan x="9.1" y="0" font-size="4.55">2</tspan></text><path d="M34.81,253.44c-1.66-.56-3.31-1.12-5-1.67-.31-.1-.35-.19-.2-.5,1.22-2.39,2.41-4.8,3.61-7.2a2.76,2.76,0,0,0,.2-.47,1.15,1.15,0,0,0-.47-1.35,1.09,1.09,0,0,0-1.32.13c-1.28,1.26-2.54,2.55-3.8,3.82l-.32.29c-2.38,2.38-4.74,4.78-7.15,7.12a1.18,1.18,0,0,0,.5,2.09c1.66.51,3.3,1.1,4.95,1.64.33.11.38.21.21.52-1.21,2.4-2.4,4.8-3.6,7.2a3.26,3.26,0,0,0-.2.48,1.12,1.12,0,0,0,1.82,1.19q1.94-1.94,3.85-3.89h0a2.89,2.89,0,0,0,.32-.29l7.08-7.07A1.12,1.12,0,0,0,34.81,253.44Z" fill="none" stroke="#012d80" stroke-miterlimit="10"/><path d="M37.08,142.2a4.33,4.33,0,0,0,.21-1.35,4.58,4.58,0,0,0-4.58-4.57,4.51,4.51,0,0,0-3.08,1.2,4.1,4.1,0,0,0-3.38-1.77,4,4,0,0,0-2.79,1.11,3.52,3.52,0,0,0-.92-.66l10.09,9.29h6.26A3.82,3.82,0,0,0,37.08,142.2Z" fill="#fff" stroke="#fd0" stroke-linecap="round" stroke-linejoin="round"/><rect x="28.73" y="137.72" width="2.02" height="8.23" rx="0.58" fill="#012d80"/><rect x="28.23" y="137.72" width="1.66" height="8.23" rx="0.58" fill="#012d80"/><path d="M28.61,139.1h.12l10.94-12.62C26.2,128,28.61,139.1,28.61,139.1Z" fill="#fff"/><path d="M28.61,139.68a.57.57,0,0,1-.56-.46,11.37,11.37,0,0,1,1.74-8.42c2-2.73,5.26-4.38,9.81-4.9a.59.59,0,0,1,.51,1L29.16,139.48a.57.57,0,0,1-.43.2h-.12Zm9.6-12.4c-3.43.64-5.93,2-7.47,4.18a10,10,0,0,0-1.69,6.39Z" fill="#012d80"/><path d="M39.67,126.48,28.73,139.1c14.61-.09,11-12.63,11-12.63Z" fill="#fff"/><path d="M28.73,139.68a.58.58,0,0,1-.44-1L39.23,126.1a.62.62,0,0,1,.37-.2h.1a.59.59,0,0,1,.62.42,12.88,12.88,0,0,1,.41,3.19,10,10,0,0,1-1.83,6.19c-2,2.62-5.38,4-10.17,4Zm10.68-12L30,138.48c3.72-.24,6.38-1.41,7.94-3.48C39.84,132.52,39.66,129.29,39.41,127.66Z" fill="#012d80"/><path d="M29.38,139.18h-.07l-7-8.05C30.92,132.11,29.38,139.18,29.38,139.18Z" fill="#fff"/><path d="M29.38,139.76H29.3a.6.6,0,0,1-.43-.2l-7-8.05a.59.59,0,0,1-.07-.65.57.57,0,0,1,.58-.3c3,.33,5.12,1.41,6.4,3.2A7.53,7.53,0,0,1,30,139.3.58.58,0,0,1,29.38,139.76ZM23.83,132l5.08,5.85a6,6,0,0,0-1.06-3.4A6.64,6.64,0,0,0,23.83,132Z" fill="#012d80"/><path d="M22.33,131.13l7,8.05c-9.32-.06-7-8.06-7-8.06Z" fill="#fff"/><path d="M29.31,139.76h0c-3.13,0-5.36-.9-6.66-2.63-1.93-2.57-1-6-.94-6.17a.58.58,0,0,1,.62-.41h.07a.56.56,0,0,1,.37.19l7,8.05a.59.59,0,0,1-.44,1Zm-6.67-7.38a5.89,5.89,0,0,0,.94,4.06,6,6,0,0,0,4.4,2.09Z" fill="#012d80"/><path d="M27.27,129.75a3.06,3.06,0,1,1,3.05-3.06A3.06,3.06,0,0,1,27.27,129.75Zm0-5a1.9,1.9,0,1,0,1.89,1.89A1.9,1.9,0,0,0,27.27,124.8Z" fill="#012d80"/><path d="M24.22,138.48a2.78,2.78,0,0,0-2.69,2.06h-.1a2.78,2.78,0,0,0-2.79,2.79,3.11,3.11,0,0,0,0,.43,2.41,2.41,0,0,0-2.06,2.38h4.82v0H32.34v0h1.12l-8-7.37A2.7,2.7,0,0,0,24.22,138.48Z" fill="#012d80"/><path d="M33.46,146.64H32.34l-.14,0H21.56l-.13,0H16.61a.51.51,0,0,1-.5-.5,2.94,2.94,0,0,1,2-2.77v0a3.28,3.28,0,0,1,3-3.28,3.31,3.31,0,0,1,4.53-1.73l.11.08,8,7.37a.51.51,0,0,1-.34.87Zm-16.28-1h4.11a.32.32,0,0,1,.14,0H32.15l-7-6.43A2.29,2.29,0,0,0,22,140.67a.52.52,0,0,1-.5.37h0a2.31,2.31,0,0,0-2.36,2.29,2,2,0,0,0,0,.35.56.56,0,0,1-.09.38.54.54,0,0,1-.34.2A1.91,1.91,0,0,0,17.18,145.64Z" fill="#012d80"/><text transform="translate(140.74 26.74)" font-size="17.29" fill="#fff" font-family="GenSekiGothicTW-M, GenSekiGothic TW" letter-spacing="0.1em">植物性漢堡 <tspan x="100.71" y="0" letter-spacing="0.02em">V</tspan><tspan x="111.38" y="0" letter-spacing="0.1em">.S 牛肉漢堡</tspan></text><path d="M255,50.68H441.77a38.7,38.7,0,0,1,38.7,38.7V280.68a0,0,0,0,1,0,0H255a0,0,0,0,1,0,0v-230A0,0,0,0,1,255,50.68Z" fill="#002a5e"/><text transform="translate(289.35 83.21)" font-size="13" fill="#fff" font-family="GenSekiGothicTW-B, GenSekiGothic TW, Noto Sans CJK TC, sans-serif" letter-spacing="0.2em">製作過程所需資源減少<tspan x="7.7" y="19">= 長期生產成本降低</tspan><tspan x="-7.8" y="57">一旦植物性蛋白質達到和</tspan><tspan x="-7.8" y="76">植物性奶類近似的市佔率</tspan><tspan x="-7.55" y="95">約10% = 10年後市值達</tspan><tspan x="-15.39" y="171">…目前規模不到140億美元</tspan></text><text transform="translate(273.59 219.67)" font-size="27.76" fill="#fff" font-family="GenSekiGothicTW-B, GenSekiGothic TW, Noto Sans CJK TC, sans-serif" letter-spacing="0.2em">1400億美元</text></svg>
