<svg xmlns="http://www.w3.org/2000/svg" xmlns:xlink="http://www.w3.org/1999/xlink" viewBox="0 0 567.14 286.68">
  <defs>
    <clipPath id="a">
      <rect x="-1929.4" y="356.24" width="1367.59" height="667.43" fill="none"/>
    </clipPath>
  </defs>
  <g>
    <line x1="26.2" y1="39.08" x2="557.34" y2="39.08" fill="none" stroke="#fff" stroke-miterlimit="10"/>
    <line x1="26.2" y1="67.63" x2="557.34" y2="67.63" fill="none" stroke="#fff" stroke-miterlimit="10"/>
    <line x1="26.03" y1="96.19" x2="557.17" y2="96.19" fill="none" stroke="#fff" stroke-miterlimit="10"/>
    <line x1="26.2" y1="124.74" x2="557.34" y2="124.74" fill="none" stroke="#fff" stroke-miterlimit="10"/>
    <line x1="26.03" y1="153.3" x2="557.17" y2="153.3" fill="none" stroke="#fff" stroke-miterlimit="10"/>
    <line x1="26.03" y1="181.85" x2="557.17" y2="181.85" fill="none" stroke="#fff" stroke-miterlimit="10"/>
    <line x1="26.2" y1="210.41" x2="557.34" y2="210.41" fill="none" stroke="#fff" stroke-miterlimit="10"/>
    <line x1="26.03" y1="238.78" x2="557.17" y2="238.78" fill="none" stroke="#211815" stroke-miterlimit="10" stroke-width="2"/>
    <text font-size="11.41" fill="#002962" font-family="GenSekiGothicTW-B, GenSekiGothic TW, Microsoft JhengHei, sans-serif, Microsoft JhengHei, sans-serif" letter-spacing="0.03em"><tspan x="2.93" y="42.18">14</tspan><tspan x="2.93" y="70.72">12</tspan><tspan x="2.93" y="99.25">10</tspan><tspan x="9.93" y="127.79">8</tspan><tspan x="9.93" y="156.33">6</tspan><tspan x="9.93" y="184.86">4</tspan><tspan x="9.93" y="213.4">2</tspan><tspan x="9.93" y="241.93">0</tspan></text>
    <line x1="26.03" y1="237.95" x2="26.03" y2="243.61" fill="none" stroke="#211815" stroke-miterlimit="10" stroke-width="2"/>
    <line x1="110.49" y1="238.78" x2="110.49" y2="243.61" fill="none" stroke="#211815" stroke-miterlimit="10" stroke-width="2"/>
    <line x1="195.64" y1="238.78" x2="195.64" y2="243.61" fill="none" stroke="#211815" stroke-miterlimit="10" stroke-width="2"/>
    <line x1="280.92" y1="238.78" x2="280.92" y2="243.61" fill="none" stroke="#211815" stroke-miterlimit="10" stroke-width="2"/>
    <line x1="366.33" y1="238.78" x2="366.33" y2="243.61" fill="none" stroke="#211815" stroke-miterlimit="10" stroke-width="2"/>
    <line x1="451.54" y1="238.78" x2="451.54" y2="243.61" fill="none" stroke="#211815" stroke-miterlimit="10" stroke-width="2"/>
    <line x1="553.63" y1="238.78" x2="553.63" y2="243.61" fill="none" stroke="#211815" stroke-miterlimit="10" stroke-width="2"/>
    <g>
      <line x1="26.2" y1="178.16" x2="30.2" y2="178.16" fill="none" stroke="#abd867" stroke-linecap="round" stroke-linejoin="round" stroke-width="2"/>
      <line x1="38.25" y1="178.16" x2="549.15" y2="178.16" fill="none" stroke-dasharray="8.05 8.05" stroke-linecap="round" stroke-linejoin="round" stroke-width="2" stroke="#abd867"/>
      <line x1="553.17" y1="178.16" x2="557.17" y2="178.16" fill="none" stroke="#abd867" stroke-linecap="round" stroke-linejoin="round" stroke-width="2"/>
    </g>
    <path d="M26,113.54l.73-1.58,1.51,1.58,1.12-5.23h1.27l1.88-3,2.39-1.13,1.89,8.17.88-13.7,1.76-1.89,1.25-9.55,1.51,1.26,2.64-14.33,2.26,4.65,2.51,9.93,1.51,7.48L53.53,101l1.13,14.45,1.64,6.28s2.38,24.76,2.76,25.26a49.41,49.41,0,0,1,1.63,5.53L63.33,167l2,.51,1.26,4.27h1.51l1.38,3.39,2.39,19.48h1.51l1.5-9.55,1.51-1.94,2.89,9.23,1.89-1.64,1.13,4.91,1.38-1,1.13,3.65h1.26l1.26-2.9,3-2.89,1.38,11.06,2,9.52.88,3.18,1.75,2,2.64-6,2.64.85,2,1.79,1.51-.25,2-1,1.13,6.66.63,1.38,2.64-9.8,2-1.46L115,208.1l1.39,1.76,3.77-18.1,1.76.13,1.5,3.89,2.27-3.64,2.26.5,1.25,5.53h1.51l2.39,7.54,1.51.75,2.76,8.93,1.76.25,1.51-2.55,1,3,1.38.5,1.88,1.13,1-1.76,1.51.26,3.39-4.65,1.76.12,2.76,1.35,3.9-8.16h1.26l3.14-8.14,1.13-.63,2.39,3.14,3.39.13s2.14-6.29,2.26-9.18a13.51,13.51,0,0,0,5.28-10.05A44.44,44.44,0,0,1,179.7,170l1.76-.88,1.39-6.16,3.89-10.68s3.9,7.54,5.16,7.41,1.88-2.26,3.14-1.5a12.62,12.62,0,0,1,2.76,3l1-1.25,1.25,7.79,1.51-3.65,1.26-.75s1.51,4.9,1.51,4.52,2.89-14.45,3.14-18.09,2.39-11.31,2.76-13.33.63-8.38,1.13-10.05a18.6,18.6,0,0,1,2.77-4.4s2.14-2.51,2.39-7.79,3.77-20.48,4.9-20.86a5.7,5.7,0,0,0,2.13-1.63l2.14-8.17,3.77,4.52,1.89-1.88,5.15,11.93,2.14,10.06,1.13,2.76,2.89,18.48,1.5-.25s.88,9.92,1.39,10.8,2.38,2.52,2.89,5.91a52.66,52.66,0,0,0,2.39,8.42l1.63-3.39,1.76,2.38,1.38-1.25s.88,8.79,2,10.43,2.26,3.64,2.26,4.52,1,7.54,1.64,8.55a31.76,31.76,0,0,1,3.39,8.8c.63,3.51,2,5.27,2.51,8.16s2,12.42,2,12.42l4.53-2.11,2.51,4.15,1.76-2.77s2.77,3.27,3.77,4.27a13.76,13.76,0,0,1,2,3.65l3.07-1.71,3.47,2.09,2,2.64,1.51-.51,3.92,2.52,1.73-3.27h1.38l2.89.75,3.52-2.89,2.39,1.89h2l1.26,2.51,1.89-.25,2.51,1.88,2.26-.37,5.15,8.29h1.26a40,40,0,0,0,4-7,34.92,34.92,0,0,1,4.9-8.24c.76-.68,2.89-7.21,3.39-9.48a12.17,12.17,0,0,1,1.51-3.77c.25-.5,2.14-3.89,2.14-3.89l3.39-27.9s1.89-31.92,2.64-41.6,2.26-26.39,2.26-26.39a68,68,0,0,0,1.76-6.91c0-1,1-18.73,1-18.73l1.38,2s1.63-10.8,2.51-13.57S359.29,45,359.29,45s2.76,15.31,3.27,20S365,99.27,365,99.27l2.26,27.14s1.76,28,2.26,29.91,3,12.82,3.14,16.72.5,9.17,1.51,10.93,2.14,7.66,2.14,7.66a20.89,20.89,0,0,1,1.63,3c.13.63,1.13,4,1.13,4l1.63.13,2.64,4.9,3.15,2.39,1.88,5.78,2,1.22,1.89-1,1.76,1,1.88-3.74,1.63,1.06,1.39-7.47,3-2.76,1.51-2.76,1.38,1.25,3.4-4,1.63,5.66,2.26,1.38,2.39-1.38,1.63,3,2.77-4.4,1.63-.12,1.38-3.14,2.52,3h1.25l4.65,5.53,1.64.73,1.13,1,1.13-1.63,5.15,4.14,2.27.26,1.38-2.64,2.89,2.76,1.38.13,1.63-3.27,2.27,1.63,2.13-3.39,1.13,1.51,1.26-.53,1.26,1.53,1.13-4.52s4.27-2.11,4.65-12.94l1.25-.51,4.78-7.79,1.13-6.06h1.38l1.26-4.5h1.63l1.64,3.77,1.25-1.75,1.64,1.13v2.26l2.64-2s2.39,10.93,2.76,11.31A36.59,36.59,0,0,1,486,189v2.76a15.19,15.19,0,0,0,2,2.14,20.81,20.81,0,0,1,2.39,2.13l3.77,4,1.76-3.89,2.26,2,1.38-3.52,2-1,.88,1.88,1.38-.88,3.27,4.4,1.63-.13,1.26,3.15,1.38.25.76,3.52,2.64.25,1,2.76h1.89l.63,2.52,1.38-2.39,2.89-2.89,3.39-.13,5-9.8,3.39-.13s6.41-27.41,7.67-42.73" fill="none" stroke="#6bcdd3" stroke-linecap="round" stroke-linejoin="round" stroke-width="2"/>
    <path d="M558.1,132.32s-3.64-17.47-3.64-17.85v-6s-.76-3.39-1.26-3.27-2.51,1.89-3.39,7c0,0-1.89.75-2.77,4.27s-3.77,22-3.77,22L542,153.3" fill="none" stroke="#ffa900" stroke-linecap="round" stroke-linejoin="round" stroke-width="2"/>
    <text transform="translate(15.71 253.73)" font-size="8.56" fill="#172d54" font-family="GenSekiGothicTW-B, GenSekiGothic TW, Microsoft JhengHei, sans-serif, Microsoft JhengHei, sans-serif" letter-spacing="0.03em">1990</text>
    <text transform="translate(99.82 253.73)" font-size="8.56" fill="#172d54" font-family="GenSekiGothicTW-B, GenSekiGothic TW, Microsoft JhengHei, sans-serif, Microsoft JhengHei, sans-serif" letter-spacing="0.03em">1995</text>
    <text transform="translate(185.35 253.73)" font-size="8.56" fill="#172d54" font-family="GenSekiGothicTW-B, GenSekiGothic TW, Microsoft JhengHei, sans-serif, Microsoft JhengHei, sans-serif" letter-spacing="0.03em">2000</text>
    <text transform="translate(270.79 253.73)" font-size="8.56" fill="#172d54" font-family="GenSekiGothicTW-B, GenSekiGothic TW, Microsoft JhengHei, sans-serif, Microsoft JhengHei, sans-serif" letter-spacing="0.03em">2005</text>
    <text transform="translate(355.47 253.73)" font-size="8.56" fill="#172d54" font-family="GenSekiGothicTW-B, GenSekiGothic TW, Microsoft JhengHei, sans-serif, Microsoft JhengHei, sans-serif" letter-spacing="0.03em">2010</text>
    <text transform="translate(441.15 253.73)" font-size="8.56" fill="#172d54" font-family="GenSekiGothicTW-B, GenSekiGothic TW, Microsoft JhengHei, sans-serif, Microsoft JhengHei, sans-serif" letter-spacing="0.03em">2015</text>
    <text transform="translate(543.19 253.73)" font-size="8.56" fill="#172d54" font-family="GenSekiGothicTW-B, GenSekiGothic TW, Microsoft JhengHei, sans-serif, Microsoft JhengHei, sans-serif" letter-spacing="0.03em">2021</text>
    <g>
      <g>
        <text transform="translate(195.57 278.87)" font-size="7.62" fill="#172d54" font-family="GenSekiGothicTW-B, GenSekiGothic TW, Microsoft JhengHei, sans-serif, Microsoft JhengHei, sans-serif" letter-spacing="0.02em">穆迪全球高收益債違約率</text>
        <rect x="166.65" y="274.74" width="23.85" height="3.37" fill="#6bcdd3"/>
      </g>
      <g>
        <text transform="translate(315.43 278.87)" font-size="7.62" fill="#172d54" font-family="GenSekiGothicTW-B, GenSekiGothic TW, Microsoft JhengHei, sans-serif, Microsoft JhengHei, sans-serif" letter-spacing="0.02em">穆迪全球高收益債違約率預估</text>
        <rect x="286.51" y="274.74" width="23.85" height="3.37" fill="#ffa900"/>
      </g>
    </g>
  </g>
  <text transform="translate(1.33 23.27) scale(0.99 1)" font-size="11.41" fill="#002962" font-family="GenSekiGothicTW-B, GenSekiGothic TW, Microsoft JhengHei, sans-serif, Microsoft JhengHei, sans-serif" letter-spacing="0.02em">(%)</text>
</svg>
