<svg xmlns="http://www.w3.org/2000/svg" viewBox="0 0 387.2 290.39">
  <g>
    <line x1="8.17" y1="49.51" x2="318.33" y2="49.51" fill="none" stroke="#9e9f9f" stroke-miterlimit="10" stroke-width="0.5"/>
    <line x1="8.17" y1="72.65" x2="318.33" y2="72.65" fill="none" stroke="#9e9f9f" stroke-miterlimit="10" stroke-width="0.5"/>
    <line x1="8.17" y1="95.79" x2="318.33" y2="95.79" fill="none" stroke="#9e9f9f" stroke-miterlimit="10" stroke-width="0.5"/>
    <line x1="8.17" y1="118.93" x2="318.33" y2="118.93" fill="none" stroke="#9e9f9f" stroke-miterlimit="10" stroke-width="0.5"/>
    <line x1="8.17" y1="142.9" x2="318.33" y2="142.9" fill="none" stroke="#9e9f9f" stroke-miterlimit="10" stroke-width="0.5"/>
    <line x1="8.17" y1="166.87" x2="318.33" y2="166.87" fill="none" stroke="#9e9f9f" stroke-miterlimit="10" stroke-width="0.5"/>
    <line x1="8.17" y1="189.59" x2="318.33" y2="189.59" fill="none" stroke="#9e9f9f" stroke-miterlimit="10" stroke-width="0.5"/>
    <line x1="8.17" y1="212.32" x2="318.33" y2="212.32" fill="none" stroke="#9e9f9f" stroke-miterlimit="10" stroke-width="0.5"/>
    <line x1="8.17" y1="235.04" x2="318.33" y2="235.04" fill="none" stroke="#9e9f9f" stroke-miterlimit="10" stroke-width="0.5"/>
    <text transform="translate(33.52 254.13)" font-size="9" fill="#172d54" font-family="GenSekiGothicTW-B, GenSekiGothic TW, Microsoft JhengHei, sans-serif, Microsoft JhengHei, sans-serif" letter-spacing="0.01em">F<tspan x="5.39" y="0" letter-spacing="0.03em">Y1</tspan></text>
    <text transform="translate(95.29 254.13)" font-size="9" fill="#172d54" font-family="GenSekiGothicTW-B, GenSekiGothic TW, Microsoft JhengHei, sans-serif, Microsoft JhengHei, sans-serif" letter-spacing="0.01em">F<tspan x="5.39" y="0" letter-spacing="0.03em">Y2</tspan></text>
    <text transform="translate(157.05 254.13)" font-size="9" fill="#172d54" font-family="GenSekiGothicTW-B, GenSekiGothic TW, Microsoft JhengHei, sans-serif, Microsoft JhengHei, sans-serif" letter-spacing="0.01em">F<tspan x="5.39" y="0" letter-spacing="0.03em">Y3</tspan></text>
    <text transform="translate(280.58 254.13)" font-size="9" fill="#172d54" font-family="GenSekiGothicTW-B, GenSekiGothic TW, Microsoft JhengHei, sans-serif, Microsoft JhengHei, sans-serif" letter-spacing="0.01em">F<tspan x="5.39" y="0" letter-spacing="0.03em">Y5</tspan></text>
    <text transform="translate(218.59 254.13)" font-size="9" fill="#172d54" font-family="GenSekiGothicTW-B, GenSekiGothic TW, Microsoft JhengHei, sans-serif, Microsoft JhengHei, sans-serif" letter-spacing="0.01em">F<tspan x="5.39" y="0" letter-spacing="0.03em">Y4</tspan></text>
    <g>
      <text transform="translate(110.07 283.42)" font-size="12" fill="#0068bc" font-family="GenSekiGothicTW-B, GenSekiGothic TW, Microsoft JhengHei, sans-serif, Microsoft JhengHei, sans-serif" letter-spacing="0.02em">企業獲利</text>
      <text transform="translate(203.11 283.42)" font-size="12" fill="#008a73" font-family="GenSekiGothicTW-B, GenSekiGothic TW, Microsoft JhengHei, sans-serif, Microsoft JhengHei, sans-serif" letter-spacing="0.02em">共識預估</text>
      <line x1="74.19" y1="278.12" x2="101.71" y2="278.12" fill="none" stroke="#0068bc" stroke-linecap="round" stroke-linejoin="round" stroke-width="2"/>
      <line x1="167.24" y1="278.12" x2="194.75" y2="278.12" fill="none" stroke="#008a73" stroke-linecap="round" stroke-linejoin="round" stroke-width="2"/>
    </g>
    <path d="M12.33,97.76s67,4,80.62,6.76,51.88,9,73.31,17.71,52.81,19,72.38,34.48,59.33,55,66.17,62.44" fill="none" stroke="#0068bc" stroke-linecap="round" stroke-linejoin="round" stroke-width="2"/>
    <polyline points="12.33 97.76 92.02 100.49 137.35 104.84 179.62 112.29 222.18 124.72 273.74 140.56 302.01 152.05" fill="none" stroke="#008a73" stroke-linecap="round" stroke-linejoin="round" stroke-width="2"/>
    <polyline points="318.33 152.05 324.23 152.05 324.23 219.15 318.33 219.15" fill="none" stroke="#fd4c00" stroke-linecap="round" stroke-linejoin="round" stroke-width="2"/>
    <line x1="324.23" y1="185.6" x2="331.8" y2="185.6" fill="none" stroke="#fd4c00" stroke-linecap="round" stroke-linejoin="round" stroke-width="2"/>
    <text transform="translate(336.41 182.92)" font-size="11" fill="#fd4c00" font-family="GenSekiGothicTW-B, GenSekiGothic TW, Microsoft JhengHei, sans-serif, Microsoft JhengHei, sans-serif" letter-spacing="0.02em">成長<tspan x="0" y="15">遜於預期</tspan></text>
  </g>
</svg>
