<svg xmlns="http://www.w3.org/2000/svg" xmlns:xlink="http://www.w3.org/1999/xlink" viewBox="0 0 387.2 290.39">
  <defs>
    <clipPath id="a">
      <rect x="-1748.36" y="-1672.2" width="1367.59" height="667.43" fill="none"/>
    </clipPath>
    <clipPath id="b">
      <circle cx="-1048.15" cy="-701.48" r="633.26" fill="none"/>
    </clipPath>
    <linearGradient id="c" data-name="未命名漸層 53" x1="-7095.27" y1="5204.19" x2="-5763.85" y2="5204.19" gradientTransform="translate(-6832.3 4868.95) rotate(180)" gradientUnits="userSpaceOnUse">
      <stop offset="0" stop-color="#f9dd5d"/>
      <stop offset="0.3" stop-color="#82cad0"/>
      <stop offset="0.65" stop-color="#17426f"/>
      <stop offset="1" stop-color="#0a2a5e"/>
    </linearGradient>
    <linearGradient id="d" x1="-7068.9" y1="5204.19" x2="-5790.21" y2="5204.19" xlink:href="#c"/>
    <linearGradient id="e" x1="-7042.54" y1="5204.19" x2="-5816.58" y2="5204.19" xlink:href="#c"/>
    <linearGradient id="f" x1="-7016.17" y1="5204.19" x2="-5842.95" y2="5204.19" xlink:href="#c"/>
    <linearGradient id="g" x1="-6989.8" y1="5204.19" x2="-5869.31" y2="5204.19" xlink:href="#c"/>
    <linearGradient id="h" x1="-6963.44" y1="5204.19" x2="-5895.68" y2="5204.19" xlink:href="#c"/>
    <linearGradient id="i" x1="-6937.07" y1="5204.19" x2="-5922.05" y2="5204.19" xlink:href="#c"/>
    <linearGradient id="j" x1="-6910.7" y1="5204.19" x2="-5948.41" y2="5204.19" xlink:href="#c"/>
    <linearGradient id="k" x1="-6884.34" y1="5204.19" x2="-5974.78" y2="5204.19" xlink:href="#c"/>
    <linearGradient id="l" x1="-6857.97" y1="5204.19" x2="-6001.14" y2="5204.19" xlink:href="#c"/>
  </defs>
  <g opacity="0.85">
    <g clip-path="url(#a)">
      <g clip-path="url(#b)">
        <g opacity="0.85">
          <path d="M-404.28,330.47c-177.81-.41-344.83-70-470.27-196.07s-194.31-293.35-193.9-471.17,70-344.83,196.07-470.28,293.35-194.31,471.17-193.9,344.83,70,470.28,196.07S263.38-511.52,263-333.71,192.93,11.12,66.9,136.57-226.46,330.88-404.28,330.47Zm3.06-1327.56C-578-997.5-744.37-929-869.67-804.32s-194.52,290.77-194.93,467.56S-996.54,6.39-871.82,131.69-581,326.21-404.27,326.61-61.12,258.56,64.18,133.84,258.7-156.93,259.11-333.72,191.06-676.87,66.34-802.16-224.43-996.69-401.22-997.09Z" fill="url(#c)"/>
          <path d="M-404.22,304.1c-170.77-.39-331.17-67.26-451.65-188.3s-186.61-281.74-186.22-452.51,67.27-331.17,188.3-451.65S-572-975-401.27-974.58-70.1-907.31,50.38-786.28,237-504.54,236.6-333.77,169.33-2.59,48.3,117.88-233.44,304.5-404.22,304.1Zm2.94-1274.83c-169.74-.39-329.48,65.35-449.78,185.1s-186.78,279.18-187.17,448.93,65.34,329.48,185.1,449.78,279.18,186.78,448.92,187.17S-74.72,234.9,45.58,115.15,232.35-164,232.75-333.78,167.4-663.26,47.65-783.56-231.53-970.34-401.28-970.73Z" fill="url(#d)"/>
          <path d="M-404.15,277.74c-163.74-.38-317.52-64.5-433-180.54s-178.92-270.12-178.54-433.85,64.49-317.52,180.54-433,270.12-178.91,433.85-178.53,317.52,64.49,433,180.53S210.61-497.56,210.23-333.83,145.74-16.31,29.7,99.2-240.42,278.11-404.15,277.74Zm2.81-1222.1c-162.7-.37-315.81,62.63-431.13,177.42s-179,267.6-179.39,430.3S-949.23-20.83-834.45,94.48s267.6,179,430.3,179.4S-88.33,211.25,27,96.47s179-267.6,179.4-430.31S143.75-649.65,29-765-238.64-944-401.34-944.36Z" fill="url(#e)"/>
          <path d="M-404.09,251.37C-560.78,251-707.95,189.65-818.49,78.6S-989.71-179.9-989.35-336.59-927.64-640.45-816.58-751s258.5-171.22,415.19-170.86S-97.53-860.13,13-749.08s171.22,258.5,170.86,415.19S122.15-30,11.1,80.51-247.4,251.73-404.09,251.37ZM-401.4-918c-155.66-.36-302.14,59.92-412.46,169.73s-171.28,256-171.64,411.68S-925.58-34.44-815.76,75.88s256,171.28,411.67,171.64S-101.94,187.59,8.38,77.78,179.65-178.24,180-333.9,120.09-636,10.28-746.36-245.74-917.64-401.4-918Z" fill="url(#f)"/>
          <path d="M-404,225c-149.65-.34-290.2-58.94-395.78-165S-963.33-186.88-963-336.53s59-290.2,165-395.77S-551.1-895.83-401.45-895.48s290.2,58.94,395.77,165S157.85-483.6,157.5-333.95,98.56-43.75-7.5,61.82-254.39,225.35-404,225Zm2.57-1116.63c-148.62-.34-288.47,57.21-393.8,162.06S-958.79-485.14-959.13-336.52s57.21,288.47,162,393.8S-552.64,220.81-404,221.15s288.47-57.21,393.8-162.06S153.3-185.34,153.65-334,96.44-622.43-8.41-727.76-252.85-891.29-401.46-891.63Z" fill="url(#g)"/>
          <path d="M-404,198.64c-142.61-.33-276.55-56.17-377.15-157.24s-155.83-235.26-155.5-377.87S-880.45-613-779.38-713.62s235.26-155.82,377.87-155.5S-125-812.95-24.37-711.88,131.46-476.61,131.13-334,75-57.47-26.11,43.14-261.37,199-404,198.64Zm2.45-1063.9c-141.58-.33-274.81,54.5-375.14,154.38S-932.44-478-932.77-336.46s54.5,274.8,154.38,375.14S-545.54,194.46-404,194.78s274.8-54.5,375.14-154.37S127-192.44,127.28-334,72.78-608.82-27.1-709.16-259.95-864.94-401.52-865.26Z" fill="url(#h)"/>
          <path d="M-403.91,172.27C-539.47,172-666.8,118.88-762.43,22.8S-910.57-200.85-910.25-336.41s53.39-262.88,149.47-358.52,223.64-148.13,359.2-147.82S-138.69-789.35-43-693.28,105.08-469.63,104.77-334.07,51.37-71.18-44.7,24.45-268.35,172.58-403.91,172.27Zm2.33-1011.17c-134.54-.31-261.14,51.79-356.48,146.7s-148,221.27-148.34,355.8S-854.61-75.27-759.7,20.08s221.27,148,355.8,148.34,261.13-51.79,356.47-146.7,148-221.27,148.34-355.8S49.12-595.21-45.79-690.56-267-838.59-401.58-838.9Z" fill="url(#i)"/>
          <path d="M-403.85,145.91c-128.52-.3-249.23-50.63-339.9-141.71s-140.43-212-140.14-340.55,50.62-249.23,141.71-339.89,212-140.44,340.54-140.14,249.23,50.62,339.9,141.7S78.7-462.65,78.4-334.13,27.78-84.9-63.31,5.77-275.33,146.2-403.85,145.91Zm2.21-958.44c-127.49-.29-247.47,49.08-337.82,139S-879.74-463.83-880-336.34-831-88.88-741,1.48s209.69,140.28,337.18,140.57S-156.38,93-66,3,74.25-206.65,74.55-334.14,25.47-581.6-64.47-672-274.16-812.24-401.64-812.53Z" fill="url(#j)"/>
          <path d="M-403.79,119.54c-121.48-.28-235.57-47.85-321.27-133.94S-857.8-214.81-857.52-336.29s47.85-235.57,133.94-321.27S-523.17-790.3-401.7-790s235.58,47.85,321.27,133.94S52.31-455.67,52-334.19,4.19-98.62-81.91-12.92-282.31,119.82-403.79,119.54Zm2.08-905.7c-120.44-.28-233.79,46.36-319.15,131.33S-853.39-456.72-853.67-336.28-807.3-102.49-722.33-17.12s198.1,132.53,318.55,132.8S-170,69.32-84.63-15.65,47.9-213.76,48.18-334.2,1.81-568-83.16-653.36-281.26-785.89-401.71-786.16Z" fill="url(#k)"/>
          <path d="M-403.73,93.17C-518.16,92.91-625.64,48.1-706.37-33s-125-188.79-124.79-303.23S-786.08-558.14-705-638.87s188.79-125,303.22-124.78,221.92,45.07,302.65,126.17,125,188.79,124.78,303.23S-19.4-112.34-100.51-31.61-289.3,93.44-403.73,93.17Zm2-853c-113.4-.26-220.12,43.66-300.49,123.66S-827-449.62-827.3-336.22s43.65,220.12,123.66,300.5,186.52,124.78,299.92,125S-183.6,45.66-103.23-34.34s124.78-186.52,125-299.92-43.65-220.12-123.65-300.5S-288.36-759.54-401.77-759.8Z" fill="url(#l)"/>
        </g>
      </g>
    </g>
  </g>
  <g>
    <rect x="154.28" y="23.18" width="159.47" height="213.11" fill="#ffde3b"/>
    <line x1="3.59" y1="49.51" x2="313.75" y2="49.51" fill="none" stroke="#9e9f9f" stroke-miterlimit="10" stroke-width="0.5"/>
    <line x1="3.59" y1="76.19" x2="313.75" y2="76.19" fill="none" stroke="#9e9f9f" stroke-miterlimit="10" stroke-width="0.5"/>
    <line x1="3.59" y1="102.87" x2="313.75" y2="102.87" fill="none" stroke="#9e9f9f" stroke-miterlimit="10" stroke-width="0.5"/>
    <line x1="3.59" y1="129.56" x2="313.75" y2="129.56" fill="none" stroke="#9e9f9f" stroke-miterlimit="10" stroke-width="0.5"/>
    <line x1="3.59" y1="156.24" x2="313.75" y2="156.24" fill="none" stroke="#9e9f9f" stroke-miterlimit="10" stroke-width="0.5"/>
    <line x1="3.59" y1="182.92" x2="313.75" y2="182.92" fill="none" stroke="#9e9f9f" stroke-miterlimit="10" stroke-width="0.5"/>
    <line x1="3.59" y1="209.6" x2="313.75" y2="209.6" fill="none" stroke="#9e9f9f" stroke-miterlimit="10" stroke-width="0.5"/>
    <line x1="3.59" y1="236.29" x2="313.75" y2="236.29" fill="none" stroke="#9e9f9f" stroke-miterlimit="10" stroke-width="0.5"/>
    <text transform="translate(33.91 254.13)" font-size="9" fill="#172d54" font-family="GenSekiGothicTW-B, GenSekiGothic TW, Noto Sans CJK TC, sans-serif" letter-spacing="0.01em">F<tspan x="5.39" y="0" letter-spacing="0.03em">Y1</tspan></text>
    <text transform="translate(95.68 254.13)" font-size="9" fill="#172d54" font-family="GenSekiGothicTW-B, GenSekiGothic TW, Noto Sans CJK TC, sans-serif" letter-spacing="0.01em">F<tspan x="5.39" y="0" letter-spacing="0.03em">Y2</tspan></text>
    <text transform="translate(157.44 254.13)" font-size="9" fill="#172d54" font-family="GenSekiGothicTW-B, GenSekiGothic TW, Noto Sans CJK TC, sans-serif" letter-spacing="0.01em">F<tspan x="5.39" y="0" letter-spacing="0.03em">Y3</tspan></text>
    <text transform="translate(280.97 254.13)" font-size="9" fill="#172d54" font-family="GenSekiGothicTW-B, GenSekiGothic TW, Noto Sans CJK TC, sans-serif" letter-spacing="0.01em">F<tspan x="5.39" y="0" letter-spacing="0.03em">Y5</tspan></text>
    <text transform="translate(218.98 254.13)" font-size="9" fill="#172d54" font-family="GenSekiGothicTW-B, GenSekiGothic TW, Noto Sans CJK TC, sans-serif" letter-spacing="0.01em">F<tspan x="5.39" y="0" letter-spacing="0.03em">Y4</tspan></text>
    <g>
      <text transform="translate(105.49 283.42)" font-size="12" fill="#0068bc" font-family="GenSekiGothicTW-B, GenSekiGothic TW, Noto Sans CJK TC, sans-serif" letter-spacing="0.02em">企業獲利</text>
      <text transform="translate(198.53 283.42)" font-size="12" fill="#008a73" font-family="GenSekiGothicTW-B, GenSekiGothic TW, Noto Sans CJK TC, sans-serif" letter-spacing="0.02em">共識預估</text>
      <line x1="69.61" y1="278.12" x2="97.13" y2="278.12" fill="none" stroke="#0068bc" stroke-linecap="round" stroke-linejoin="round" stroke-width="2"/>
      <line x1="162.66" y1="278.12" x2="190.17" y2="278.12" fill="none" stroke="#008a73" stroke-linecap="round" stroke-linejoin="round" stroke-width="2"/>
    </g>
    <path d="M3.59,209.6s93.68-28.91,115.24-42.73c5.56-3.57,78.52-37.31,78.52-37.31l16.15-10.63,21.63-23.14,17.13-19.6,18.48-26.68,13.63-25" fill="none" stroke="#0068bc" stroke-linecap="round" stroke-linejoin="round" stroke-width="2"/>
    <path d="M291.57,132.12s-70,25.5-83.79,29.14-100,24.29-100,24.29l-30.36,7.28H63.68v6.89L50.05,198.1v3.64H33.72v4.86l-14.54-1.93v4.93l-12.31-1" fill="none" stroke="#008a73" stroke-linecap="round" stroke-linejoin="round" stroke-width="2"/>
    <polyline points="316.72 24.48 322.63 24.48 322.63 133.72 316.72 133.72" fill="none" stroke="#fd4c00" stroke-linecap="round" stroke-linejoin="round" stroke-width="2"/>
    <line x1="322.63" y1="79.1" x2="330.19" y2="79.1" fill="none" stroke="#fd4c00" stroke-linecap="round" stroke-linejoin="round" stroke-width="2"/>
    <text transform="translate(334.8 76.19)" font-size="11" fill="#fd4c00" font-family="GenSekiGothicTW-B, GenSekiGothic TW, Noto Sans CJK TC, sans-serif" letter-spacing="0.02em">成長<tspan x="0" y="15">優於預期</tspan></text>
  </g>
</svg>
