<?xml version="1.0" encoding="utf-8"?>
<!-- Generator: Adobe Illustrator 25.0.1, SVG Export Plug-In . SVG Version: 6.00 Build 0)  -->
<svg xmlns="http://www.w3.org/2000/svg" xmlns:xlink="http://www.w3.org/1999/xlink" x="0px" y="0px" viewBox="0 0 64 36">
<g>
	<path d="M23.9,18.8v-2.1c0-0.2-0.1-0.4-0.2-0.5L4.5,1C4.3,0.8,4.1,0.8,3.8,0.9C3.6,1,3.5,1.2,3.5,1.5v3.9c0,0.2,0.1,0.4,0.2,0.5
		l15,12l-15,12.2c-0.1,0.1-0.2,0.3-0.2,0.5v4c0,0.2,0.1,0.5,0.4,0.6c0.1,0,0.2,0.1,0.3,0.1c0.1,0,0.3-0.1,0.4-0.2l19.2-15.7
		C23.8,19.2,23.9,19,23.9,18.8z" fill="currentColor" />
	<path d="M43.5,18.8v-2.1c0-0.2-0.1-0.4-0.2-0.5L24.1,1c-0.2-0.2-0.4-0.2-0.7-0.1c-0.2,0.1-0.4,0.3-0.4,0.6v3.9
		c0,0.2,0.1,0.4,0.2,0.5l15,12l-15,12.2c-0.2,0.1-0.2,0.3-0.2,0.5v4c0,0.2,0.1,0.5,0.4,0.6c0.1,0,0.2,0.1,0.3,0.1
		c0.1,0,0.3-0.1,0.4-0.2l19.2-15.7C43.4,19.2,43.5,19,43.5,18.8z" fill="currentColor" />
	<path d="M62.9,16.2L43.7,1c-0.3-0.2-0.7-0.1-0.9,0.1c-0.1,0.1-0.1,0.2-0.1,0.4v3.9c0,0.2,0.1,0.4,0.2,0.5l15,12l-15,12.2
		c-0.1,0.1-0.2,0.3-0.2,0.5v4c0,0.2,0.1,0.5,0.4,0.6c0.1,0,0.2,0.1,0.3,0.1c0.1,0,0.3-0.1,0.4-0.2l19.2-15.7
		c0.1-0.1,0.2-0.3,0.2-0.5v-2.2C63.1,16.5,63,16.3,62.9,16.2z" fill="currentColor" />
</g>
</svg>
