<svg xmlns="http://www.w3.org/2000/svg" viewBox="0 0 536.67 246.42">
  <g>
    <line x1="32.45" y1="14.45" x2="535.67" y2="14.45" fill="none" stroke="#fff" stroke-miterlimit="10"/>
    <line x1="32.45" y1="45.33" x2="535.67" y2="45.33" fill="none" stroke="#fff" stroke-miterlimit="10"/>
    <line x1="32.45" y1="76.22" x2="535.67" y2="76.22" fill="none" stroke="#fff" stroke-miterlimit="10"/>
    <line x1="32.45" y1="107.11" x2="535.67" y2="107.11" fill="none" stroke="#fff" stroke-miterlimit="10"/>
    <line x1="32.45" y1="139.35" x2="535.67" y2="139.35" fill="none" stroke="#fff" stroke-miterlimit="10"/>
    <line x1="32.45" y1="166.29" x2="535.67" y2="166.29" fill="none" stroke="#fff" stroke-miterlimit="10"/>
    <line x1="32.45" y1="192.8" x2="535.67" y2="192.8" fill="none" stroke="#211815" stroke-miterlimit="10" stroke-width="2"/>
    <text transform="translate(0 18.43)" font-size="11.49" fill="#002866" font-family="GenSekiGothicTW-B, GenSekiGothic TW, Noto Sans CJK TC, sans-serif" letter-spacing="0.02em">105<tspan x="0" y="30.88">100</tspan><tspan x="3.53" y="61.75">95</tspan><tspan x="3.53" y="92.63">90</tspan><tspan x="3.53" y="123.5">85</tspan><tspan font-size="13.28" fill="#002a5e" font-family="BrushScriptMT, Brush Script MT" letter-spacing="0.03em"><tspan x="6.08" y="150.9">≈</tspan></tspan><tspan x="7.05" y="181.77">0</tspan></text>
    <g>
      <line x1="32.45" y1="191.81" x2="32.45" y2="199.92" fill="none" stroke="#211815" stroke-miterlimit="10" stroke-width="2"/>
      <text transform="translate(24.4 217.31)" font-size="9" fill="#112d57" font-family="GenSekiGothicTW-B, GenSekiGothic TW, Noto Sans CJK TC, sans-serif" letter-spacing="0.03em">2015</text>
    </g>
    <g>
      <line x1="127.09" y1="192.62" x2="127.09" y2="199.92" fill="none" stroke="#211815" stroke-miterlimit="10" stroke-width="2"/>
      <text transform="translate(119.03 217.31)" font-size="9" fill="#112d57" font-family="GenSekiGothicTW-B, GenSekiGothic TW, Noto Sans CJK TC, sans-serif" letter-spacing="0.03em">2016</text>
    </g>
    <g>
      <line x1="221.73" y1="192.62" x2="221.73" y2="199.92" fill="none" stroke="#211815" stroke-miterlimit="10" stroke-width="2"/>
      <text transform="translate(213.67 217.31)" font-size="9" fill="#112d57" font-family="GenSekiGothicTW-B, GenSekiGothic TW, Noto Sans CJK TC, sans-serif" letter-spacing="0.03em">2017</text>
    </g>
    <g>
      <line x1="316.37" y1="192.62" x2="316.37" y2="199.92" fill="none" stroke="#211815" stroke-miterlimit="10" stroke-width="2"/>
      <text transform="translate(308.31 217.31)" font-size="9" fill="#112d57" font-family="GenSekiGothicTW-B, GenSekiGothic TW, Noto Sans CJK TC, sans-serif" letter-spacing="0.03em">2018</text>
    </g>
    <g>
      <line x1="411.01" y1="192.62" x2="411.01" y2="199.92" fill="none" stroke="#211815" stroke-miterlimit="10" stroke-width="2"/>
      <text transform="translate(402.95 217.31)" font-size="9" fill="#112d57" font-family="GenSekiGothicTW-B, GenSekiGothic TW, Noto Sans CJK TC, sans-serif" letter-spacing="0.03em">2019</text>
    </g>
    <g>
      <line x1="505.65" y1="192.62" x2="505.65" y2="199.92" fill="none" stroke="#211815" stroke-miterlimit="10" stroke-width="2"/>
      <text transform="translate(497.59 217.31)" font-size="9" fill="#112d57" font-family="GenSekiGothicTW-B, GenSekiGothic TW, Noto Sans CJK TC, sans-serif" letter-spacing="0.03em">2020</text>
    </g>
    <path d="M33.24,77.17l.68,6.1L35,87.36l1.36-17.94L38,64.77l2.72,4.43s1.22,8.42,1.36,8.75,1.22,2.77,1.22,2.77l3.53-11.63,2.41-.67,1.12-9.63,2.59,3,3-1.22,3.54,15.06L61,69.53l1.77-1.11,1.49,5.76,2.31,2,1.63-7.47,2.58,3.77.54,4.54,2,1.33,1.77-15.17,2.17-.11,1.36-12.85h2.17l3-5.76,3.4,15.35,2.44-5.72L91,56.46l1.9-2.77,1.63.78,3.81-7s2-.56,2,2.21.82,14.85,1.5,16.23,1.49,3.16,1.49,3.16l2.31-6.21,1.77-6,4.48,17.5,1.77-4.21,2,7.2,1.77,2.77,3.8-4.54,1.5,12.19,5-14,1.35-1.11,1.77,8.09,2-2.11,1.76,1.78,1.63-7.2,1.9-1.67,1.5-4,1.36-1.5,2-5.48,2.44,11.41,1.63-2.77,3,8.75,2-5.1,1.49-2.21,1.63,2.44,1.9-3.33,2.45,3.1,1.36-.44,5.43-19.38,2.17,4.09L170.3,63l3.54-25.25,1.35-.78,1.5,2.66,3.67-12.07,2.58-1.11.95,4.65s2.17.58,2.17,1.12,2.58,8.41,2.58,8.41l2.72,2.88.81,2.77,2.45-6.54L198.83,38l.82-2.55,1.63,2.33,3.94,9.75L208.75,39s3.67,6.87,4.21,9.3a13,13,0,0,0,2,4.43l2.71-1.88L218.8,62s2.17-1.44,2.31-1.11,1.22,4,1.22,4l2.18-2.33,2.3.44,1.63-.77,1.5,10.19,2.93-1.77,2.5,14.84,1.77,1.44,1.22-1.55s.82,2.55,1.22,2.44a9.71,9.71,0,0,0,1.77-1.66l2.17,3.43s1.77-1,2.18-.44,2,9.08,2,9.08,3.54-6.09,3.94-8.31a59,59,0,0,1,2-6.64l1.9,4.43,4.49-11.48a33.6,33.6,0,0,1,6,12.14c1.77,7.09,3.94-6.09,3.94-6.09s1.33-.56,2,2.55a58.44,58.44,0,0,0,3.14,8.41s.68.12,1.91,2.94.27,4.71,1.63,5.82,2,2.59,2.31,5.12a14.09,14.09,0,0,0,1.22,4.4L284,110.4s1.8-7.2,1.94-6.2,1.63,7.31,1.63,7.31l1.63-3.88,5.29-2.21,1.91,4.21,2.71-3.21,3,1.44,4.48-16S309,90.58,309,90.24s2.72-11,4.75-9.19,1.91,3.21,1.91,3.21L317.42,78l2.45.66s.81-.55,1.22-.11a19.79,19.79,0,0,1,1.36,3.21l2.35-3.54s1.32,1.33,1.32,1,6.11-4.1,5.7-11,2.85,7,3.4,7A23.43,23.43,0,0,0,338.61,74l2.58,5.76,4.08-7.42,1.49,1.44L351,67.31l3.26-2.76,2,2.1,3.13-4.32L361,66.1l2.31-4.77,3,5.65,2.44,2,.68,2.88,2.17-3.33,3.67,3.66,1.5-6.32a5.54,5.54,0,0,1,1.08-1.44c.41-.22,3.13,1.67,3.13,1.67l2.85-4.1,1.9,3.32s1.77.22,1.77-.11A23,23,0,0,1,389,62.33l1.5-.89a9.89,9.89,0,0,1,1.76,1.44c.14.34.82,0,.82,0l2-4.21,1.5-1.1,3.26,4.32,1.63-4.21,2.31,2.17,1.36-1,1.49,7,2.17-5.53,1.63,8.19,1.5-.22,1.9-6.64,1.63,2.43,3.26-6.87s1.77-.11,2,.23S422.56,61,422.56,61l1.23-3.65L426.37,59l1.76-7.42,3,4.65s3.67-3.44,3.81-5.32,4.07,4.43,4.89,10.19,1.9-3,2-2.66,1.77,3.33,1.77,3.33L445.39,55l2.44,2,2.72-1.22,3.94,6.32,1.76-2.26,1.91,4.92s1.08.11,2.17-1.44,3.26-6.65,5-4.32,2.44,2.54,2.44,2.54l1.36-9.74s1.49-2.66,2.58-1.66S476,69.75,476,69.75l3-42.2,1.77,27.36s1.35-15.18,1.9-12.74.54,9.08,2.17,5.1,2.72-4.77,2.72-4.77l1.9,8.09s2-9.42,3.4-7.09,5,19.49,5,19.49l3-3.14a6.33,6.33,0,0,1,2.17.82c1.5.77,4.75,6.87,4.75,6.87l1.5,7.64,2.45,8.42,1.08,2.21s1.63-.11,1.91.22l1.22,1.56c1.49-.23,2.31,2,2.44,2.32A20.17,20.17,0,0,0,520,91.85l2.59-5,1.08,1.55,2.18-10,3.8,8.75,1.63-2.66,1.49,4.32,2.94-5.2" fill="none" stroke="#0074c1" stroke-linecap="round" stroke-linejoin="round" stroke-width="2"/>
  </g>
</svg>
