<svg xmlns="http://www.w3.org/2000/svg" viewBox="0 0 528.28 254.14">
  <g>
    <g>
      <path d="M24.28,149.78V133.56s0-1.39,1.41,1.95,2.08,2,3.06-1.11,1.67-7.09,4-3.48c0,0,.56,1,2.23-.14s2.64,1.25,3.06,2.37,5.14,12,5.14,12,2.93-10.85,4.6-11.13,4-1.53,5.28,2.37,3.06,13.43,3.06,13.43Z" fill="#bebfbf"/>
      <path d="M56.15,149.78S58.79,170,59.21,170s3.2-20.23,3.2-20.23Z" fill="#bebfbf"/>
      <path d="M62.41,149.78s3.06-15.52,4.17-13.85,2.93,8.21,2.93,8.21,1,1.39,1.53,2.08,1.39,0,2.08-2.22,1.81-9,2.51-8.2,3.89,14,3.89,14Z" fill="#bebfbf"/>
      <path d="M79.52,149.78l2.5,8.68s2.51-.14,3.9-3.33S88,149.78,88,149.78Z" fill="#bebfbf"/>
      <path d="M88,149.78s12-10.79,12.38-12,1.39,1.25,1.8,3.34,1.81,8.7,1.81,8.7Z" fill="#bebfbf"/>
      <path d="M104,149.78a41.66,41.66,0,0,1,0,4.34c-.14,1.56,3.06-4.34,3.34-4.34Z" fill="#bebfbf"/>
      <path d="M108.87,149.78s2.92,3,3.62,4.61,1,4.21,1.94,3.24,6.26-7.85,6.26-7.85Z" fill="#bebfbf"/>
      <path d="M120.69,149.78a41.81,41.81,0,0,0,2.23-7c.28-2.24.42-4.14,2.78-3.12s3.34-11.78,4.73-11.78,3.34,1.67,5.29-5.56c0,0,.14-2.51,3.61-4.45,1.95,0,3.48,15,3.48,15a4.79,4.79,0,0,1,1.95-.42c1.11,0,1.39-1.17,4.17,1.37s3.06,4.92,4.87,1.92,4-7.74,5.43-7,3.33,2.08,3.75-.84S167.43,106,167.43,106l2.37-6.81s2.5-2.23,2.92,0,1.39,6,3.06,7.37,1.45,2.36,3.3,2.09,3.1,0,4.07-.28.7-1.39,2.64-.7,2.92.14,3.06,1,1.93,5.56,1.93,5.56.86-3.2,1.55-3.2.28-3.48,1.95-5.15,1.95-4.31,3.89-2.92.84,3.62,3.76,1.12,5-2.93,7.79-2.51.28.42,3.48-.83,2.64-1.95,4.66-.56,4,3.2,4.38,4.73.69,2.78,1.95,1.53,1.39-1.67,3.19-2,2.79-2.08,4.46-.41,3.06,2.64,3.2,6.25,0,3.34,1.25,5.29,1.39,3.76,3.61,3.76,3.2.41,4.87-1.67,4.87-9.32,6.54-10.57,1.53-2.93,3.2-2.09,2.64,5,4,2.5,3.76-7,3.76-7,1.25,3.2,2.36,2.92,1.06-1.53,3.52-.42,5.8,2.09,6.92,3.06,1.81,2.64,2.64,2.23,1.39-2.09,2.09-3.62,3.33-5.7,3.89-4.87,4,8.49,4,8.49,5,3.75,5.29,4.73,1.25-.84,2.09-1.26a10,10,0,0,0,1.67-1.11s2.78-9.6,3.2-8.48,3.33,10.57,3.33,10.57,3.34-8.35,3.76-7.51,1.53,7.09,2.92,6.67,2.92-1.39,3.9.42,1.39,4.87,2.64,3.34,2.78-4.73,4-2,.84,5,2.65,4.31,2.36-1.66,3.33.7.84,4.24,2.79,5.18,3.2.94,4.17,3.31,2.5,6.53,2.5,6.53.56-5.15,1.67-7.51,3.06-8.07,5.15-7.37l1.8.66a1.68,1.68,0,0,1,.79.22,9.56,9.56,0,0,0,3.47.8c1.35,0,1.62-.7,2.48-.7s3.29-6.9,3.67-6.73,8.51,4.42,9.86,6.79,3.93,5.92,4.52,8.73.44,5.28,2.75,4.9,3.88-8.14,5.88-8.3,5.66.81,6.19-.81,5.29-13.58,6.15-12.39,1.88,4.31,3.12,3.88,2-1.29,2.59-1.4,3-6.25,3.45-5.39,2.53,6.63,3.34,6.09.7-1.62,1.35-2.1.81-3.34,3.5-3.18,3.93-.92,5.28,2.1,5.5,11.32,5.5,11.32a2.05,2.05,0,0,1,2-.76c1.4.16,1.83.86,2.48,2.59s1.73,6.36,2.43,5.76,2-3.77,3-2.26,2.48,4,3.78,4.74,2.21,2.21,3.45.81,2.47-5,2.8-4.42,4.42,6.58,4.52,6.74,1.14,1.78,2.21,1.94,2.75.59,3.94-2.8,1.24-3.67,2.8-1.67,2.48,2.53,4.2,2.37,2.91-2.27,4.32-4.85,6.14-15.25,9.32-14.45,3.5,4.1,4,2,2.37-10.18,4-9.37,2.15,2,3.29.26,1.56-3.82,2.85-1.56,1.35,3.83,2.86,5.07a12,12,0,0,1,2.85,3.07c.38.7,1.84-5.82,3.61-6.58s4.69-8,5.34-9.32,1-1.51,2.05-.86,1.94,1.08,4.15-2.21,1.51-3.34,3.18-4.37,3.23-8,4.36-7.49,2.48,3,3.13,2.86,2-4.63,2.91-3.61,2.05,4.47,2.72,3.77.73-2.91,1.32-2.37a2.3,2.3,0,0,1,.43,1.73l-.25,61.52Z" fill="#bebfbf"/>
    </g>
    <text transform="translate(5.9 23.34)" font-size="9.74" fill="#172d54" font-family="GenSekiGothicTW-B, GenSekiGothic TW" letter-spacing="0.1em">5<tspan x="0" y="25.98">4</tspan><tspan x="0" y="51.95">3</tspan><tspan x="0" y="77.93">2</tspan><tspan x="0" y="103.91">1</tspan><tspan x="0" y="129.88">0</tspan><tspan letter-spacing="0.1em"><tspan x="-4.58" y="155.86">-1</tspan></tspan></text>
    <line x1="24.28" y1="20.72" x2="521.11" y2="20.72" fill="none" stroke="#fff" stroke-miterlimit="10"/>
    <line x1="24.28" y1="46.53" x2="521.11" y2="46.53" fill="none" stroke="#fff" stroke-miterlimit="10"/>
    <line x1="24.28" y1="72.35" x2="521.11" y2="72.35" fill="none" stroke="#fff" stroke-miterlimit="10"/>
    <line x1="24.28" y1="98.16" x2="521.11" y2="98.16" fill="none" stroke="#fff" stroke-miterlimit="10"/>
    <line x1="24.28" y1="123.97" x2="521.11" y2="123.97" fill="none" stroke="#fff" stroke-miterlimit="10"/>
    <line x1="24.28" y1="149.78" x2="521.11" y2="149.78" fill="none" stroke="#fff" stroke-miterlimit="10" stroke-width="2"/>
    <line x1="24.28" y1="175.6" x2="521.11" y2="175.6" fill="none" stroke="#211815" stroke-miterlimit="10" stroke-width="2"/>
    <g>
      <text transform="translate(13.23 192.55)" font-size="9.74" fill="#172d54" font-family="GenSekiGothicTW-B, GenSekiGothic TW" letter-spacing="0.03em">2007</text>
      <line x1="24.56" y1="175.6" x2="24.56" y2="181.1" fill="none" stroke="#211815" stroke-miterlimit="10" stroke-width="2"/>
    </g>
    <g>
      <text transform="translate(167.27 192.55)" font-size="9.74" fill="#172d54" font-family="GenSekiGothicTW-B, GenSekiGothic TW" letter-spacing="0.03em">2010</text>
      <line x1="179.43" y1="175.6" x2="179.43" y2="181.1" fill="none" stroke="#211815" stroke-miterlimit="10" stroke-width="2"/>
    </g>
    <g>
      <text transform="translate(321.3 192.55)" font-size="9.74" fill="#172d54" font-family="GenSekiGothicTW-B, GenSekiGothic TW" letter-spacing="0.03em">2015</text>
      <line x1="333.27" y1="175.6" x2="333.27" y2="181.1" fill="none" stroke="#211815" stroke-miterlimit="10" stroke-width="2"/>
    </g>
    <g>
      <text transform="translate(475.34 192.55)" font-size="9.74" fill="#172d54" font-family="GenSekiGothicTW-B, GenSekiGothic TW" letter-spacing="0.03em">2019</text>
      <line x1="487.23" y1="175.6" x2="487.23" y2="181.1" fill="none" stroke="#211815" stroke-miterlimit="10" stroke-width="2"/>
    </g>
    <g>
      <text transform="translate(184.82 231.22)" font-size="9.74" fill="#172d54" font-family="GenSekiGothicTW-B, GenSekiGothic TW" letter-spacing="0.03em">利差</text>
      <text transform="translate(248.38 226.26)" font-size="9.74" fill="#172d54" font-family="GenSekiGothicTW-B, GenSekiGothic TW" letter-spacing="0.03em">10年期中國<tspan letter-spacing="0.07em"><tspan x="0" y="11.91">國債殖利率</tspan></tspan></text>
      <text transform="translate(345.43 226.26)" font-size="9.74" fill="#172d54" font-family="GenSekiGothicTW-B, GenSekiGothic TW" letter-spacing="0.03em">10年期美國<tspan letter-spacing="0.07em"><tspan x="0" y="11.91">公債殖利率</tspan></tspan></text>
      <rect x="307.67" y="226.26" width="30.61" height="4.3" fill="#76b85b"/>
      <rect x="211.26" y="226.26" width="30.61" height="4.3" fill="#81cacf"/>
      <rect x="147.61" y="226.26" width="30.61" height="4.3" fill="#bebfbf"/>
    </g>
    <path d="M24.56,32.8l4.13,2.36,2.94,2.94,1.77,3.54L40.22,44,44,41.93l2.65-9.13h3.53l3,5.6L59.28,69l3.65,3.33,2.86,5.21,3.53-5.21L75,67.84l4.57.3L82,71.08l2.93-3.89L89,59.05l5.83-.27,3.39-5.15L105,55.18l5.55,3.47,6.91,2,3.25,6.1,3.53-2.71,6.1,1.22,3.79-2.85,6.1-16.94,2.58,3.25,3.79-3.25,2.71-.13L152,48.48,158.64,50l3.8-1.08,2.57-5,3.8-.82L175,52.55l3.39,2.63,2.71,5.23,3.93.68,2.57-3.53,3.14,1.36,3.37-1.36,3.39,5.29,7,2,5.32-4.33L213.39,57l3.8.95L220,56.48l3.93-.14,6,.14,6,4.34,6.78-7.73,2.71-8.4,3.66-.27,6.09-9.89,3.8-4.07,5.83,5.28L268.18,33l2.75,3.53,2.91,5.69,3.25,1.36,4.2-5.56,3.25,1.35s7.59,12.47,8.4,17.89l4.21-2.44,5.69,6.92L306,55.94l3.31,3.93,3.53-3.39,6.77.14,3.12,4.74,5.83,8.4,3.52-1,3,6.51,11.25-.27,5.83-2.7L358,77.56l3-.62,3.11,1.77h3.66L371,72.35l3.38-2,3.26-7.59,5.79,1.36,6.95-8.54,2.44,1.76,6.77-2.71,2.71,1.49,3.8-7.59,4.6-.27,2,.68,3.38-.68,8.81,7.46,3.39.13,2.58,3.25,3.93.41,5.82-4.06,4.75,3.11,2.17,3.8,3.66,1.76,2.84,5.15,3-1.9,3.16,2.85,3.48-8.81,12.06,8.27L483,64.07l3.25,3.52,3.25.41,4.2,4.35,1.49,5.54,6.92,6,10-11.51,2.58-1,3.66-3.8,3.66-.4" fill="none" stroke="#81cacf" stroke-linecap="round" stroke-linejoin="round"/>
    <path d="M24.28,48.38l3.62-2.81,2.64,10.89,6.37,4.29,7-16.33,2.47,2.11,3.47,1,2.63,3.8,4.46-.5,3-3.3,5.93,44,3.63-16.17,3.3-3.07L75.89,80l5.61-20,4-2,5.61,3,4,3.46,3-1.81L101.13,67l3.63-16.32,2.43,5.87,3.34-.76,2.84-5.28,4.08,5.11,6.6,18.31,2.48.5L130.15,85l5.45-2.3,4.61-5.77,2.64-12.7L152,59.43,159.35,70l3.13-2,3.79,11.55,3.14,13.36,2,7.25,3.62-5.6,3.63,1.32,1.65,4.28,4.45,2.48,6-10.23,6.83,16.49,3.63-1.81,3.31,4.29,8.23-6.1,4.12,2.31,6.93-10.72,1.49,3.13,4.06,1.65,3.52,4.12L239,85.49l3.8-2.31,3.3-6.11,2.28,3.8,4.15,2,6.6-12.37,2.47,9.89,3,.66,3.61-2,4.52,2.48,1.76,3.79,6.6-1.46,3.13,4.43L288,86l4.62,6.6h4.61l2.64,13.52,3.63-9.4L306,100l7.36-5.77L317.34,88l2,4.45,4.13-.66L325.92,96l9.24-5.61,3.13,8.41s3,5.28,3.46,5.28,5.78-2.47,5.78-2.47l4.12-.33,2.47,10.06h3l4.29-4,2.14.17,4.62-8.25,3-11.55L373.58,86h4.95l2.64,1.65,2.27.16,6.8,4,2-1.81h4.95l2,4.12,3.63-5.28,9.73-2.31L416,78.72l3-3.13,2.67,2.31,3.27-4.45,3.46,2,3.13-.16,3-2.91,3.63,3.24,2.64-5.11,3.63-2.15,4.12,4,2.8,7.69,2.81,1.16,2.8-2,3.35,7.42,3.74-2,2.81,9.24,2.8,2.8,3.79.33,3,12.37,3-3.13,5.44-2,4.46-4.62L499,130.84l2.55,1.81s6.26-.82,6.76-.82,2.8,3.13,2.8,3.13l3.63-4.12,3,.33,4.25-4.95v3.63" fill="none" stroke="#76b85b" stroke-linecap="round" stroke-linejoin="round"/>
  </g>
  <text transform="translate(0.04 9.72)" font-size="9" fill="#172d54" font-family="GenSekiGothicTW-B, GenSekiGothic TW" letter-spacing="0.1em">(%)</text>
</svg>
