<svg xmlns="http://www.w3.org/2000/svg" viewBox="0 0 502.64 264.49">
  <g>
    <g>
      <text transform="translate(139.02 200.18)" font-size="9.4" fill="#002a5e" font-family="GenSekiGothicTW-M, GenSekiGothic TW, Microsoft JhengHei, sans-serif" letter-spacing="0.1em">12個月預估盈餘收益率(E/P)</text>
      <text transform="translate(324.72 200.18)" font-size="9.4" fill="#002a5e" font-family="GenSekiGothicTW-M, GenSekiGothic TW, Microsoft JhengHei, sans-serif" letter-spacing="0.1em">10年期美國公債</text>
      <line x1="130.93" y1="197.11" x2="102.72" y2="197.11" fill="none" stroke="#008a73" stroke-miterlimit="10" stroke-width="4"/>
      <line x1="315.36" y1="197.11" x2="287.15" y2="197.11" fill="none" stroke="#002a5e" stroke-miterlimit="10" stroke-width="4"/>
    </g>
    <g>
      <text font-size="8.06" fill="#002a5e" font-family="GenSekiGothicTW-M, GenSekiGothic TW, Microsoft JhengHei, sans-serif" letter-spacing="0.1em"><tspan x="0" y="27.39">10</tspan><tspan x="5.4" y="49.21">8</tspan><tspan x="5.4" y="71.04">6</tspan><tspan x="5.4" y="92.86">4</tspan><tspan x="5.4" y="114.68">2</tspan><tspan x="5.4" y="136.5">0</tspan></text>
      <text transform="translate(14.78 157.9)" font-size="9" fill="#002a5e" font-family="GenSekiGothicTW-M, GenSekiGothic TW, Microsoft JhengHei, sans-serif" letter-spacing="0.06em"><tspan xml:space="preserve">1988                       1995                        2000                        2005                         2010             2015        2020   2021</tspan></text>
      <line x1="21.48" y1="24.6" x2="498.27" y2="24.6" fill="none" stroke="#fff" stroke-miterlimit="10"/>
      <line x1="21.48" y1="46.5" x2="498.27" y2="46.5" fill="none" stroke="#fff" stroke-miterlimit="10"/>
      <line x1="21.48" y1="68.4" x2="498.27" y2="68.4" fill="none" stroke="#fff" stroke-miterlimit="10"/>
      <line x1="21.48" y1="90.3" x2="498.27" y2="90.3" fill="none" stroke="#fff" stroke-miterlimit="10"/>
      <line x1="21.48" y1="112.2" x2="498.27" y2="112.2" fill="none" stroke="#fff" stroke-miterlimit="10"/>
      <line x1="21.48" y1="134.1" x2="498.27" y2="134.1" fill="none" stroke="#211815" stroke-miterlimit="10" stroke-width="2"/>
      <path class="line" d="M22.86,26.54s1.11,5.61,2.92,5.53,1.82-8.76,1.82-8.76.71,7.57,1.66,5.76,1.42-8.53,2.37-6.87,2.36,5.21,2.92,1.26.55-6.23,1.73.56c0,0,.87,2.54,3.16,1.86s-.47,1.61,2.45,6.19,2,7.58,4,7.42,3.78-1.11,4.34,1.18.08-2.6,1.73-3.08,2.53.56,4.74,6.16,5-16,5-16,.24-2.06.79,3.86,1.58,7,2.69,5.53l1.1-1.5.56,15.47a7.89,7.89,0,0,1,1.5,2.85c.15,1.18.86,3.47,1.73-.95s1.34,2.36,3.55,2.6S74.65,54.25,76,55s2.53-2.29,3-.47-1.26,7.34,1.9,4.65S83.18,60.35,84,60s.24-5.78,2.14-4,2.92,1.1,3.63,0,1.58,1,1.81,1.89,2,.16,2.84.87,1.35,2.37,4,.55,3.55.08,4.42-.39,2.53-1.89,4.18-1.66,2.93.08,3.56-2.13,1.26-2.92,2.68-2.76.79-2.45,2.45-2.05,3.87-1.65,4.26-2.69,1.11-3.87,3.08-2,3.71,3.08,5.29,4.58,2,1.5,3.16,2.68S135,55.91,135,56.62s1.42-1.34,1.58,0-.08,3.06,1,3.42,2.76,1.38,4,0,2.61-2.16,3.32-.34,1.42,4.73,2.45,5.13,2-.16,2.76,1.89,1.66,3.2,2.45,1.68,2.21-2.15,2.52,1.48.4,6.24,1.82,5.92,3-.5,3.63,0,1-.53,2.37,0,1.73,2.26,2.84,4.71,2.53,2.37,4.1,2,1.58.8,1.82,1.35S174,78,174.83,79.12s1.89,5.21,2.68,5.76.79,2.05,2.13,2.37,1.58,2.13,3,1.42,2.21-1.26,2.92-.32,1.9-2.6,2.85-2.92.94-.47,1.89,1.58,1.26,1.12,2.13,1.82.87-1,1.74-1.82-.24-.71,3.71-.16,2.92-1.89,3.79-.15,2.29-1,2.37-1.9.63,2.29,2.13,2,2.6-9.64,3.23-7.74.71,6.95,2.06,6.79,3.71-.87,4.42-6.47.47-3,.47-3,1.26,7,2.92,7.58,1.34-2.85,4.27-2.3,3.63-15.15,4.57-15,1.9-1,2.37-2.37,1.42.47,2.61,1.81,3.23,4,3.31-2a3.66,3.66,0,0,1,2.84,1.62c.87,1.54-.07,6.83,2,5.8s1.5-2.76,2.92-1.34,2.6.16,3.87,1,.55,4.1,3.55,1.49,1.34-4.89,3.39-5.84,1.72-3.15,4.93-2.68.21,2.6,2,2.76a3.71,3.71,0,0,0,3.16-.79c1.18-.71.71-2.68,2.6-2.6s2.45,1.58,6.16-2.29c0,0,.79-2.45,1.5-1A2.74,2.74,0,0,0,278.24,62c1.5,0,1.42,2.76,3.16-.63s1.89-6.56,4.11-3.87a20.26,20.26,0,0,0,5.13,4.89c1.81,1.19,2.84-1.34,3.79-.08s1.34,3.32,4.34.56.23-4,1.89-2.69,2.45.48,3.4-.55,1.58-5.89,1.89-5.27,1.34,1.56,2.21.85.48.63,1.82.87.55-5.77,4.34-6.48c0,0,2.68-16.81,2.68-19.89s1.74,5.45,2.21,7.89.64,10.27,1.35,6.56,1.42-4,1.57-.63.56,10.21,1.74,10.83,2.53-2.39,3.16.77,1.58,4.18,2.76,3,.79,1.66.79,1.66.87-2.37,1.5-1.58,1.82-2.1,2.84-3.85,2,4.32,2.69,1.09.47-11.14,1.42-10.66,3.47.95,3.71-4,0,5.76,2.13,7.74,1.74,2.6,2.45,2.92,3.55-.24,4.18-.24,1.82-4.89,3.24-6-.08-9.55,2.6-12.63-1.73,6.55,0,4.5,3.24-5.21,2.61-.55-1.13,6.08.15,3.79,1.51-2.67,1.74,1.73,2.37,7.19,2.84,6.95a9.93,9.93,0,0,0,2.77-7.1c-.16-3.71.79.39,1.89,1.73s.63,4.5,1.42,5.06,2.92-2.53,4.27-1.11.31,5.21,1.73,5.37,1.58-.36,2.21,1.36,1,3.14,2.29,2.27,1.82-.79,1.9,0,.71,1.89,1.58,1,.94-.95,1.73,1.57,1.27,4.58,2.84,4,.64-1.73,2.53-.47,3,.47,4,1.58a3.59,3.59,0,0,0,3.94.87,2.24,2.24,0,0,1,2.85,1.73A2.66,2.66,0,0,0,405.5,69c1.73-.08-.16,2.77,1.5,2.37s3.55,1.19,4.73-.63.48-6.55,2.29-5.09,0,4.46,1.82,4.38,3.24-2.68,3.63-5.45,1.42.79,1.9,3.24.86,3,3.55,1.42-.63,2.84,2.21,2,2.52-3,4.58-1,2.05,3.55,5.29,2.84,2.21.63,3.86.24.56-.24,2.85.86,4,4.27,4.73-2,2.61-4,3.63-4.1,1.35-1.27,2.61,1.73,3.24-2.37,3.24-5.6,1.5,1.58,2.05.16-.24-9.08.79-5.85,1.1,10.27,2.84,10.27,1,1.89,1.82,1.58.71-5.85,1.57-3,1.43,5.68,2.77,4.1.94-2.21,3.39,1.9,5.29,1.65,5.21-10,.16,20.06,2.05,20.53,1.58,1,2.45,2,1.82.31,2.45-1.42l.63-1.74" fill="none" stroke="#008a73" stroke-linecap="round" stroke-linejoin="round" stroke-width="2"/>
      <path class="line" d="M22.86,43.6s1.12,1.57,2.56-3.5,2.17-7.23,3.62-4.46,1.69-5.81,2.89-1.21,1.45,5.43,3.26.25.36,3.13,2.29.12,2.29-3.38,3.26.6S43.15,52.52,45,45.17s2.41,9.4,5.67.12,2-3.54,3.49-5c0,0,.78-7,1.21-2.87s3.25,8.44,3.62.24c0,0,1.68-1.45,4,5.31s3.37,1.8,6.39,2.65.6-3.38,2.77-.84.6,6.27,2.77,7,3,2.17,2.9,8.44c0,0,2.19,2.94,2.46-5.89,0,0,.73,1.69,1.28,0s1.74-5.54,3.48-.6,1,6.22,3.11,8.32.73,2.15,1.92-1.65,2-3.47,2.74.19,1.37,10,5.31,6.86c0,0,1.74.45,1.28,3s1.74-.83,2.28,1.73,2.2,4.58,3.75-1.19c0,0,.37-1.18,1.47.37s2.29-1.88,2.83-8.6,1.47-5.3,2.56-6.77.83-1.73,2.29-.82,2.35-7.15,3.93-7.41,4.12.38,4.12,5.82,3.11-2.71,4,7.44,1.65,1.38,3.76,3.57,3.47,7.32,4.57,7.78.55,1.28,1.64-2.56,2.92-5.53,3.11-7.32.65-4.13,1.29-3.31,1.64,1.3,4.29-1,1,5.35,2.11,7.43-.28.62,2.56-2.67c0,0,.82-.37,1.74-2.29s.64-2.56,2.37-.09,3,3.55,3,5.67v1.19s.64-4.55,1.83-1.81.92,4.09,2,4.28,3,.36,3.21,2,.54.27,2.83.27,2.38,2.11,3.66,2.11.82.73,1.28,3,.09,9.51,2,8,3.2-2.74,4.12-2.37,1.55-2.93,1.83-5.49.82-.19,1.83-1.28,3.38-8.33,5.49-7.32,4.66-7.78,5.67-6.77,1.64,6.31,2.74,5.21,2.29-1.73,3.2.46,1.65-.91,1.83,2,2.84-.54,3.57,1.56S206,77.53,206,77.53s1.55,3.24,2.58,2.77-.2-4.42,2.36-5,3.29,2.29,3.56,4.21,3.2,7.41,3.2,7.41.1-7.23,2.11-7.68a2.33,2.33,0,0,1,2.74,1s-.36-5.39.83-4a17.39,17.39,0,0,0,2.3,2.23s4.83,11.4,5.1,15,1.65-6.22,2.75-4.44-.55,3.07.64,2.89,1.74.46,1.74,1.37,1.37-1.19,2.65-.82.18,2.38,1,3.2,2.65-.73,2.83-9.51c0,0,1-1.92,1.46-.28s1.28,7.23,2.84,1.1,5,10.43,5.49,4.85.91-11.16,3.75-7.14,1.83,5.86,4.85,3,2.28,4.2,3.56,1.32,2.65-4.12,3.39-1.41,2.37,3.75,2.74.73,1.1,2.2,1.74,1.1.64-4.67,3.93-4.76,3-1.83,4.67-4.3,2.74-3.56,4.11-.45,2.84,3.94,4.39,4,.28-1.84,2-2-.09,1.37,2.11,1,1.83,1.92,2.83-.65,1-4.11,2.56-1,2.57,1.28,3.39,3.11.18,6.86,1.92,6.86,1.1.82,1.74,2.56,1.64,5.49,3.11,1.65,1.37-7.5,4.94-3.66c0,0,2.83-2.66,3.11.27s1.19,19,1.83,16.83,1.46-8.69,2.92-6.49,1,3.69,2.84-4.21,5.3,3.84,6.86.09.73-7.59,1.92-5.94L334.59,94s1.19-2.47,2.19-.64,2.56,7.32,2.84,8,2,.46,2.38,1.92.18,4.76,2.47,2.2,1.83-7.23,3.65-8,3.11-2.2,4.67,1.46,1.65-1.46,2.65,3.11.37,11.8,4.12,9.61,1.1,3.46,3.2,2,1.55-5.12,2.65-2.65-.09,4.93,1.74,5.3.46,1.46,2.65.82,2.38-.27,4.3-1.09-.27-4.39,2.47-3.21,4.39,3.39,4.39,1.74,1.37-9,3.39-9.69.91,2.1,2.65,1,2.56-9.51,3.38-5.58.64,5,2.29,4.67,1.1.36,2.74,1.1,3.84.09,4,1.83.64-2.2,2.28.36,3.11,1.28,3.11,3.29-.91,4.85.37,3.3,1-1.63,3.11-2.65,1.65-3.76,2.93-3.21,1.19.73,2.65,1.37,1.1-.27,3.2-.45.73,3.11,2.47,4,2-.18,3.66.28.73,4.2,2.92,3.56,3.21-2.1,3.76-4.39.36-6.31,2.92-6.22,4,2.84,6.13,2.2.91,2.1,2.84.55,2.28-2.29,4-2.29.91-3.93,4.21-4.57,1.83-.55,4.11-.55,3.85-4.21,4.76-2.56.82,3.93,2.29,4.21,1.28-.19,2,1.55a2.69,2.69,0,0,0,2.1,1.83s1.56,5.12,3.94,6.13-.92,4.66,1.64,2.83,3.75-6.22,4.3-1.64,2.56,11.34,3.29,11.43a27.85,27.85,0,0,1,4,.91c1,.37,1.19-.82,2.56-.82" fill="none" stroke="#002a5e" stroke-linecap="round" stroke-linejoin="round" stroke-width="2"/>
    </g>
    <g>
      <text transform="translate(40.72 240.57)" font-size="11.91" fill="#002a5e" font-family="GenSekiGothicTW-M, GenSekiGothic TW, Microsoft JhengHei, sans-serif" letter-spacing="0.1em">企業盈餘預測<tspan x="73.65" y="0" font-size="10.65" letter-spacing="0.06em">（</tspan><tspan x="84.99" y="0" font-size="10.65" letter-spacing="0.1em">MSCI </tspan><tspan x="118.21" y="0" font-size="10.65" letter-spacing="0.09em">A</tspan><tspan x="125.79" y="0" font-size="10.65" letter-spacing="0.1em">C世界指</tspan><tspan x="168.9" y="0" font-size="10.65" letter-spacing="0.06em">數</tspan><tspan x="180.23" y="0" font-size="10.65" letter-spacing="-0.36em">）</tspan></text>
      <text transform="translate(254.82 232.04)" font-size="10.65" fill="#002a5e" font-family="GenSekiGothicTW-M, GenSekiGothic TW, Microsoft JhengHei, sans-serif" letter-spacing="0.1em">2020預估：-18.8<tspan x="94.24" y="0" letter-spacing="-0.36em">%</tspan><tspan x="100.37" y="0" letter-spacing="0.06em">（</tspan><tspan x="111.71" y="0">1個月前-19.3</tspan><tspan x="184.53" y="0" letter-spacing="0.06em">%</tspan><tspan x="195.22" y="0" letter-spacing="-0.36em">）</tspan><tspan x="0" y="16.92">2021預估：+29.2</tspan><tspan x="96.51" y="16.92" letter-spacing="-0.36em">%</tspan><tspan x="102.64" y="16.92" letter-spacing="0.06em">（</tspan><tspan x="113.97" y="16.92">1個月前+29.3</tspan><tspan x="189.07" y="16.92" letter-spacing="0.06em">%</tspan><tspan x="199.76" y="16.92" letter-spacing="-0.36em">）</tspan></text>
      <line x1="229.13" y1="236.44" x2="240.31" y2="236.44" fill="none" stroke="#002a5e" stroke-miterlimit="10"/>
      <polyline points="249.85 245.96 240.31 245.96 240.31 226.88 249.85 226.88" fill="none" stroke="#002a5e" stroke-miterlimit="10"/>
    </g>
  </g>
</svg>
