<svg xmlns="http://www.w3.org/2000/svg" viewBox="0 0 537.12 279.26">
  <g>
    <line x1="31.91" y1="28.92" x2="537.12" y2="28.92" fill="none" stroke="#fff" stroke-miterlimit="10"/>
    <line x1="31.91" y1="51.77" x2="537.12" y2="51.77" fill="none" stroke="#fff" stroke-miterlimit="10"/>
    <line x1="31.91" y1="74.62" x2="537.12" y2="74.62" fill="none" stroke="#fff" stroke-miterlimit="10"/>
    <line x1="31.91" y1="97.47" x2="537.12" y2="97.47" fill="none" stroke="#fff" stroke-miterlimit="10"/>
    <line x1="31.91" y1="120.32" x2="537.12" y2="120.32" fill="none" stroke="#fff" stroke-miterlimit="10" stroke-width="2"/>
    <line x1="31.91" y1="143.17" x2="537.12" y2="143.17" fill="none" stroke="#fff" stroke-miterlimit="10"/>
    <line x1="31.91" y1="166.03" x2="537.12" y2="166.03" fill="none" stroke="#fff" stroke-miterlimit="10"/>
    <line x1="31.91" y1="188.88" x2="537.12" y2="188.88" fill="none" stroke="#fff" stroke-miterlimit="10"/>
    <line x1="31.91" y1="211.73" x2="537.12" y2="211.73" fill="none" stroke="#fff" stroke-miterlimit="10"/>
    <line x1="31.91" y1="234.58" x2="537.12" y2="234.58" fill="none" stroke="#211815" stroke-miterlimit="10" stroke-width="2"/>
    <text transform="translate(4.3 31.76)" font-size="10.89" fill="#002866" font-family="GenSekiGothicTW-B, GenSekiGothic TW, Noto Sans CJK TC, sans-serif" letter-spacing="0.03em">0.8<tspan x="0" y="23.14">0.6</tspan><tspan x="0" y="46.28">0.4</tspan><tspan x="0" y="69.43">0.2</tspan><tspan x="10.5" y="92.57">0</tspan><tspan x="-4.3" y="115.71">-0.2</tspan><tspan x="-4.3" y="138.85">-0.4</tspan><tspan x="-4.3" y="161.99">-0.6</tspan><tspan x="-4.3" y="185.13">-0.8</tspan><tspan x="6.2" y="208.28">-1</tspan></text>
    <line x1="32.08" y1="233.6" x2="32.08" y2="241.39" fill="none" stroke="#211815" stroke-miterlimit="10" stroke-width="2"/>
    <line x1="126.01" y1="234.47" x2="126.01" y2="241.39" fill="none" stroke="#211815" stroke-miterlimit="10" stroke-width="2"/>
    <line x1="219.94" y1="234.47" x2="219.94" y2="241.39" fill="none" stroke="#211815" stroke-miterlimit="10" stroke-width="2"/>
    <line x1="313.87" y1="234.47" x2="313.87" y2="241.39" fill="none" stroke="#211815" stroke-miterlimit="10" stroke-width="2"/>
    <line x1="407.81" y1="234.47" x2="407.81" y2="241.39" fill="none" stroke="#211815" stroke-miterlimit="10" stroke-width="2"/>
    <line x1="501.74" y1="234.47" x2="501.74" y2="241.39" fill="none" stroke="#211815" stroke-miterlimit="10" stroke-width="2"/>
    <text transform="translate(19.15 259.47)" font-size="9" fill="#112d57" font-family="GenSekiGothicTW-B, GenSekiGothic TW, Noto Sans CJK TC, sans-serif" letter-spacing="0.03em">N<tspan x="6.97" y="0" letter-spacing="0.02em">o</tspan><tspan x="12.75" y="0" letter-spacing="0.01em">v</tspan><tspan x="18.02" y="0" letter-spacing="0.02em">-16</tspan></text>
    <text transform="translate(113.29 259.47)" font-size="9" fill="#112d57" font-family="GenSekiGothicTW-B, GenSekiGothic TW, Noto Sans CJK TC, sans-serif" letter-spacing="0.02em">A<tspan x="5.97" y="0" letter-spacing="0.03em">ug-17</tspan></text>
    <text transform="translate(206.68 259.47)" font-size="9" fill="#112d57" font-family="GenSekiGothicTW-B, GenSekiGothic TW, Noto Sans CJK TC, sans-serif" letter-spacing="0.03em">May-18</text>
    <text transform="translate(301.41 259.47)" font-size="9" fill="#112d57" font-family="GenSekiGothicTW-B, GenSekiGothic TW, Noto Sans CJK TC, sans-serif" letter-spacing="0.01em">F<tspan x="5.32" y="0" letter-spacing="0.03em">e</tspan><tspan x="10.77" y="0" letter-spacing="0.03em">b</tspan><tspan x="16.82" y="0" letter-spacing="0.03em">-19</tspan></text>
    <text transform="translate(394.87 259.47)" font-size="9" fill="#112d57" font-family="GenSekiGothicTW-B, GenSekiGothic TW, Noto Sans CJK TC, sans-serif" letter-spacing="0.03em">N<tspan x="6.97" y="0" letter-spacing="0.02em">o</tspan><tspan x="12.75" y="0" letter-spacing="0.01em">v</tspan><tspan x="18.02" y="0" letter-spacing="0.02em">-19</tspan></text>
    <text transform="translate(489.02 259.47)" font-size="9" fill="#112d57" font-family="GenSekiGothicTW-B, GenSekiGothic TW, Noto Sans CJK TC, sans-serif" letter-spacing="0.02em">A<tspan x="5.97" y="0" letter-spacing="0.03em">ug-20</tspan></text>
    <path d="M38.36,57.12l4,21.76s4.77-15,5.14-13,4.77,26.57,4.77,26.57l2.93-10.18L59.65,91l4.4-5.56,3.3,1.33,2.2-3.11s1.11,4.8,1.84,4,2.57-13,2.57-13l3.67-2.52V82.27L82,74.62,85.7,82l2.2,3.48,1.84,14.89,5.87-13,7-1.89,4,14.89,1.83-7.91,4.4,5,1.84-5.59,4,3.11,2.21-9.52,5.13-17.89s2.57,13,3.67,11.16,4.74-7.86,4.74-7.86l3-5.56,7.7-6.78,4.78,7.06,1.83,2.54,4-7.06,1.46,13.54,2.13,7.94L162,94.71l2.21,2.76,2.56-3,1.67,7.57,2.46-.89,2.19,2,3-1.89,2.13-7,2.06.8,3,6.85L185.76,97l4.45,2.74s1.74,22.61,1.87,22.46,4.9-5.27,4.9-5.27l2.26,7.26,2.2,11.08,2.71-.94,2.26,4.37,2.38.45,7.55-7.16,1.81,5.86,2.58-1.19,2.71,5.12,2.07.85,2.25-3.88,2.71-.6,1.88,5.57,2-2.34,3,6.36,2.59,1.2,3.93-4.82,2.71-.25,1.94,8.74,3.22,3.93,2-9.14,2.13,6.51,2.78,3.52,2.39-4.12L265.71,166s2.25.53,3.16-1.21,1.35-2.73,2.71.4a9.73,9.73,0,0,1,1.1,4.57c.06.35,2.19,10.68,2.19,10.68l2.77-11.33,1.94,9.89,2.32-2.33,2.62,3.57,2.35-10.63,2.26-4.47,3.48,1.29,2.65.69,1.42.15,1.87,2.24,4.45-7.35,2.65,8.05,2.13-3.28,5,16.94,2.51-7.05,4.91,9h1.61l2.45,4.18,3,.29,1.61.6h2.64s2,2.68,2.13,2.48,2.78-4.91,2.78-4.51S339,199.31,339,199.31l2.84-7.61,1.74,11.48,3.1,2.44,2.51,1.49,3.75,6.81,3.22-20.63L357.4,191l4.71,18.88,2.77-9.19,2.59,6.11,2.58-6.36,2.45,2.93,1.42,14.86,2.19-8.79,2.52,2.28,4.84-25.59,2.58,4.82,2.19-15.41,2.52,30.67,2.65-3.83,2.38,3.18,2.13-10.73,2.39,7.4,2.39-5.52,2.13,8.85,2.58-13.22,3.93,5.72a24,24,0,0,1,2.71.79c.13.15,2.59,7.8,2.59,7.8l3-4.52,2.07-15.85,2.32,6.86,1.94-6.12,3-4,2.26,4.37,1.68,7.8,5.22-11.08,4-1.49,2.13-.5,6.26-56.85s2.45-11.68,2.39-18.19A112.41,112.41,0,0,1,454.51,91l.52-4,2.71,6.65,1.81,7.21s6.64-6.86,6.77-10.68,3,1.24,3,1.24l1.42,4.82,2.58-5.42,2.52,5.82,2.58-2.14,2.13,3.33,1.74-.65,2.45,4,2.39-6,3-.69L492,96.54s5.42-8.55,6.52-8.5,2.26,1.54,2.39,1.84,3.16,4.57,3.16,4.57,4.52-6,4.65-7.75S511,100.56,511,100.56l2.84-7,3.81,9.74,2.84,2.93,2.9,6.86,1.88,9.74,2.71-3,2.58,6.12,1.35.34" fill="none" stroke="#0074c1" stroke-linecap="round" stroke-linejoin="round" stroke-width="2"/>
  </g>
  <text transform="translate(2.59 12.47)" font-size="10.95" fill="#002866" font-family="GenSekiGothicTW-B, GenSekiGothic TW, Noto Sans CJK TC, sans-serif" letter-spacing="0.03em">(%)</text>
</svg>
