<svg xmlns="http://www.w3.org/2000/svg" viewBox="0 0 525.35 280.23">
  <g>
    <line x1="32.71" y1="21.27" x2="511.98" y2="21.27" fill="none" stroke="#fff" stroke-miterlimit="10"/>
    <line x1="32.71" y1="51.71" x2="511.98" y2="51.71" fill="none" stroke="#fff" stroke-miterlimit="10"/>
    <line x1="32.71" y1="82.14" x2="511.98" y2="82.14" fill="none" stroke="#fff" stroke-miterlimit="10"/>
    <line x1="32.71" y1="112.58" x2="511.98" y2="112.58" fill="none" stroke="#fff" stroke-miterlimit="10"/>
    <line x1="32.71" y1="143.01" x2="511.98" y2="143.01" fill="none" stroke="#fff" stroke-miterlimit="10"/>
    <line x1="32.71" y1="173.45" x2="511.98" y2="173.45" fill="none" stroke="#fff" stroke-miterlimit="10"/>
    <line x1="32.71" y1="203.88" x2="511.98" y2="203.88" fill="none" stroke="#211815" stroke-miterlimit="10" stroke-width="2"/>
    <line x1="32.87" y1="202.87" x2="32.87" y2="210.18" fill="none" stroke="#211815" stroke-miterlimit="10" stroke-width="2"/>
    <line x1="267.4" y1="203.75" x2="267.4" y2="210.18" fill="none" stroke="#211815" stroke-miterlimit="10" stroke-width="2"/>
    <line x1="501.93" y1="203.75" x2="501.93" y2="210.18" fill="none" stroke="#211815" stroke-miterlimit="10" stroke-width="2"/>
    <text transform="translate(13.07 24.51)" font-size="10.11" fill="#002866" font-family="GenSekiGothicTW-B, GenSekiGothic TW" letter-spacing="0.03em">3<tspan x="-9.75" y="30.34">2.5</tspan><tspan x="0" y="60.68">2</tspan><tspan x="-9.75" y="91.02">1.5</tspan><tspan x="0" y="121.36">1</tspan><tspan x="-9.75" y="151.69">0.5</tspan><tspan x="0" y="182.03">0</tspan></text>
    <g>
      <text transform="translate(231.12 267.76)" font-size="10.75" fill="#112d57" font-family="GenSekiGothicTW-B, GenSekiGothic TW" letter-spacing="0.02em">新興市場10年期債券溢酬</text>
      <rect x="190.15" y="261.92" width="33.79" height="4.75" fill="#0074c1"/>
    </g>
    <polyline points="35.69 61.62 45.71 79.91 56.87 113.74 68.56 92.48 81.31 87.68 92.46 113.74 103.09 110.01 114.77 121.82 127.52 112.58 139.21 141.91 150.37 129.06 162.58 153.82 175.33 126.39 184.9 89.41 198.18 89.41 209.33 95.53 221.02 113.74 231.11 123.34 242.8 122.2 253.96 148.49 264.06 150.77 277.86 130.2 287.95 117.25 300.17 116.86 310.25 145.71 312.92 153.82 324.61 177.27 334.17 177.27 346.39 148.87 356.9 175.54 370.29 169.06 382.51 145.71 398.45 134.39 408.01 125.63 416.51 115.72 428.73 130.58 439.88 154.97 449.46 157.63 462.2 184.81 486.63 135.53 495.52 59.71 508.94 55.03 520.63 57.43 524.35 63.52" fill="none" stroke="#0074c1" stroke-linecap="round" stroke-linejoin="round" stroke-width="2"/>
    <text transform="translate(20.27 223.93)" font-size="10.11" fill="#112d57" font-family="GenSekiGothicTW-B, GenSekiGothic TW" letter-spacing="0.03em">2010</text>
    <text transform="translate(254.5 223.93)" font-size="10.11" fill="#112d57" font-family="GenSekiGothicTW-B, GenSekiGothic TW" letter-spacing="0.03em">2015</text>
    <text transform="translate(489.84 223.93)" font-size="10.11" fill="#112d57" font-family="GenSekiGothicTW-B, GenSekiGothic TW" letter-spacing="0.03em">2020</text>
  </g>
  <text transform="translate(7.37 9.79)" font-size="9" fill="#172d54" font-family="GenSekiGothicTW-B, GenSekiGothic TW" letter-spacing="0.1em">(%)</text>
</svg>
