<svg xmlns="http://www.w3.org/2000/svg" xmlns:xlink="http://www.w3.org/1999/xlink" viewBox="0 0 1019.4 81.31">
  <defs>
    <clipPath id="a">
      <rect x="-1887.31" y="-1802.03" width="1367.59" height="667.43" fill="none"/>
    </clipPath>
    <clipPath id="b">
      <circle cx="-1187.09" cy="-831.3" r="633.26" fill="none"/>
    </clipPath>
    <linearGradient id="c" data-name="未命名漸層 21" x1="-7234.21" y1="13450.36" x2="-5902.79" y2="13450.36" gradientTransform="translate(-7110.19 12985.29) rotate(180)" gradientUnits="userSpaceOnUse">
      <stop offset="0" stop-color="#fddc3b"/>
      <stop offset="0.3" stop-color="#6acbd1"/>
      <stop offset="0.65" stop-color="#004273"/>
      <stop offset="1" stop-color="#002962"/>
    </linearGradient>
    <linearGradient id="d" x1="-7207.85" y1="13450.36" x2="-5929.16" y2="13450.36" xlink:href="#c"/>
    <linearGradient id="e" x1="-7181.48" y1="13450.36" x2="-5955.53" y2="13450.36" xlink:href="#c"/>
    <linearGradient id="f" x1="-7155.12" y1="13450.36" x2="-5981.89" y2="13450.36" xlink:href="#c"/>
    <linearGradient id="g" x1="-7128.75" y1="13450.36" x2="-6008.26" y2="13450.36" xlink:href="#c"/>
    <linearGradient id="h" data-name="未命名漸層 44" x1="509.7" y1="-27.68" x2="509.7" y2="88.32" gradientUnits="userSpaceOnUse">
      <stop offset="0" stop-color="#ac8ccb"/>
      <stop offset="0.08" stop-color="#b99fd3"/>
      <stop offset="0.26" stop-color="#d2c1e3"/>
      <stop offset="0.44" stop-color="#e6dcef"/>
      <stop offset="0.62" stop-color="#f4f0f8"/>
      <stop offset="0.81" stop-color="#fcfbfd"/>
      <stop offset="1" stop-color="#fff"/>
    </linearGradient>
  </defs>
  <g opacity="0.85">
    <g clip-path="url(#a)">
      <g clip-path="url(#b)">
        <g opacity="0.85">
          <path d="M-543.22,200.64C-721,200.23-888,130.6-1013.5,4.58s-194.31-293.36-193.9-471.18,70-344.83,196.07-470.28,293.36-194.31,471.17-193.9,344.84,70,470.28,196.07S124.43-641.35,124-463.54,54-118.7-72,6.74-365.4,201.05-543.22,200.64Zm3.06-1327.56c-176.79-.41-343.16,68.05-468.45,192.77s-194.52,290.77-194.93,467.56,68,343.15,192.77,468.45S-720,196.38-543.21,196.78-200.06,128.73-74.76,4,119.76-286.76,120.17-463.54,52.11-806.7-72.61-932-363.38-1126.51-540.16-1126.92Z" fill="url(#c)"/>
          <path d="M-543.16,174.27C-713.93,173.88-874.33,107-994.81-14S-1181.42-295.77-1181-466.54s67.27-331.17,188.3-451.65S-711-1104.8-540.22-1104.41-209-1037.14-88.56-916.11,98.05-634.37,97.66-463.6,30.39-132.42-90.65-11.94-372.39,174.67-543.16,174.27Zm2.93-1274.83c-169.74-.39-329.48,65.35-449.78,185.1s-186.77,279.18-187.17,448.93S-1111.83-137-992.08-16.74-712.9,170-543.15,170.42s329.48-65.35,449.79-185.1S93.41-293.86,93.8-463.61,28.46-793.09-91.3-913.39-370.48-1100.16-540.23-1100.56Z" fill="url(#d)"/>
          <path d="M-543.1,147.91c-163.73-.38-317.52-64.5-433-180.54S-1155-302.75-1154.66-466.48s64.49-317.52,180.53-433S-704-1078.42-540.28-1078s317.52,64.49,433,180.53S71.67-627.39,71.29-463.66,6.8-146.14-109.25-30.63-379.37,148.28-543.1,147.91Zm2.81-1222.1c-162.7-.37-315.81,62.63-431.12,177.42s-179,267.6-179.4,430.3,62.63,315.81,177.42,431.12,267.6,179,430.3,179.4S-227.28,81.42-112-33.36,67.06-301,67.43-463.67,4.8-779.48-110-894.79-377.58-1073.81-540.29-1074.19Z" fill="url(#e)"/>
          <path d="M-543,121.54c-156.69-.36-303.86-61.72-414.4-172.77s-171.22-258.5-170.86-415.19,61.72-303.86,172.77-414.4S-697-1052-540.34-1051.68-236.48-990-125.94-878.91,45.28-620.41,44.92-463.72-16.8-159.86-127.85-49.32-386.35,121.9-543,121.54Zm2.69-1169.36c-155.66-.36-302.14,59.92-412.46,169.73s-171.27,256-171.63,411.68,59.92,302.14,169.73,412.46,256,171.28,411.68,171.64S-240.89,57.77-130.57-52s171.28-256,171.64-411.68S-18.85-765.87-128.67-876.19-384.69-1047.46-540.35-1047.82Z" fill="url(#f)"/>
          <path d="M-543,95.17c-149.64-.34-290.2-58.94-395.77-165s-163.53-246.88-163.18-396.53,58.94-290.2,165-395.77S-690-1025.66-540.4-1025.31s290.2,58.94,395.78,165S18.9-613.43,18.56-463.78-40.39-173.58-146.45-68-393.33,95.52-543,95.17Zm2.57-1116.63c-148.61-.34-288.47,57.21-393.8,162.06s-163.52,244.43-163.87,393S-1040.87-177.88-936-72.55-691.59,91-543,91.32-254.5,34.11-149.17-70.74,14.36-315.17,14.7-463.79s-57.21-288.47-162-393.8S-391.79-1021.11-540.41-1021.46Z" fill="url(#g)"/>
        </g>
      </g>
    </g>
  </g>
  <rect width="1019.4" height="81.31" fill="url(#h)"/>
  <line x1="0.55" y1="42.63" x2="1018.85" y2="42.63" fill="none" stroke="#002a5e" stroke-miterlimit="10"/>
  <text transform="translate(413.7 27.41)" font-size="20" fill="#002a5e" font-family="GenSekiGothicTW-B, GenSekiGothic TW, Noto Sans TC" letter-spacing="0.2em">每單位風險的收益</text>
  <text transform="translate(55.07 71.07)" font-size="24" fill="#6bcdd3" font-family="GenSekiGothicTW-B, GenSekiGothic TW, Noto Sans TC" letter-spacing="0.2em">0.51</text>
  <text transform="translate(209.41 71.07)" font-size="24" fill="#002a5e" font-family="GenSekiGothicTW-B, GenSekiGothic TW, Noto Sans TC" letter-spacing="0.2em">0.03</text>
  <text transform="translate(906.06 71.07)" font-size="24" fill="#002a5e" font-family="GenSekiGothicTW-B, GenSekiGothic TW, Noto Sans TC" letter-spacing="0.2em">0.08</text>
  <text transform="translate(341.17 71.07)" font-size="24" fill="#002a5e" font-family="GenSekiGothicTW-B, GenSekiGothic TW, Noto Sans TC" letter-spacing="0.2em">0.14</text>
  <text transform="translate(477.4 71.07)" font-size="24" fill="#002a5e" font-family="GenSekiGothicTW-B, GenSekiGothic TW, Noto Sans TC" letter-spacing="0.2em">0.25</text>
  <text transform="translate(616.43 71.07)" font-size="24" fill="#002a5e" font-family="GenSekiGothicTW-B, GenSekiGothic TW, Noto Sans TC" letter-spacing="0.2em">0.25</text>
  <text transform="translate(751.03 71.07)" font-size="24" fill="#002a5e" font-family="GenSekiGothicTW-B, GenSekiGothic TW, Noto Sans TC" letter-spacing="0.2em">0.29</text>
  <line x1="177.68" y1="42.62" x2="177.68" y2="81.31" fill="none" stroke="#002a5e" stroke-miterlimit="10"/>
  <line x1="444.18" y1="42.62" x2="444.18" y2="81.31" fill="none" stroke="#002a5e" stroke-miterlimit="10"/>
  <line x1="310.93" y1="42.62" x2="310.93" y2="81.31" fill="none" stroke="#002a5e" stroke-miterlimit="10"/>
  <line x1="587.52" y1="42.63" x2="587.52" y2="81.31" fill="none" stroke="#002a5e" stroke-miterlimit="10"/>
  <line x1="854.02" y1="42.62" x2="854.02" y2="81.31" fill="none" stroke="#002a5e" stroke-miterlimit="10"/>
  <line x1="720.77" y1="42.62" x2="720.77" y2="81.31" fill="none" stroke="#002a5e" stroke-miterlimit="10"/>
</svg>
