<svg xmlns="http://www.w3.org/2000/svg" viewBox="0 0 540.19 254.71">
  <g>
    <line x1="28.07" y1="75.4" x2="531.65" y2="75.4" fill="none" stroke="#fff" stroke-miterlimit="10"/>
    <line x1="28.07" y1="32.29" x2="531.65" y2="32.29" fill="none" stroke="#fff" stroke-miterlimit="10"/>
    <line x1="28.07" y1="117.84" x2="531.65" y2="117.84" fill="none" stroke="#fff" stroke-miterlimit="10"/>
    <line x1="25.87" y1="158.45" x2="529.44" y2="158.45" fill="none" stroke="#fff" stroke-miterlimit="10"/>
    <line x1="27.3" y1="202.11" x2="530.33" y2="202.11" fill="none" stroke="#211815" stroke-miterlimit="10" stroke-width="2"/>
    <text transform="translate(3.15 80.84)" font-size="13.29" fill="#112d57" font-family="GenSekiGothicTW-B, GenSekiGothic TW, Microsoft JhengHei, sans-serif, Microsoft JhengHei, sans-serif" letter-spacing="0.02em">15</text>
    <text transform="translate(3.15 36.66)" font-size="13.29" fill="#112d57" font-family="GenSekiGothicTW-B, GenSekiGothic TW, Microsoft JhengHei, sans-serif, Microsoft JhengHei, sans-serif" letter-spacing="0.02em">20</text>
    <text transform="translate(0 18.65)" font-size="13.29" fill="#112d57" font-family="GenSekiGothicTW-B, GenSekiGothic TW, Microsoft JhengHei, sans-serif, Microsoft JhengHei, sans-serif" letter-spacing="0.03em">(%)</text>
    <text transform="translate(3.15 122.84)" font-size="13.29" fill="#112d57" font-family="GenSekiGothicTW-B, GenSekiGothic TW, Microsoft JhengHei, sans-serif, Microsoft JhengHei, sans-serif" letter-spacing="0.02em">10</text>
    <text transform="translate(9.22 162.23)" font-size="13.29" fill="#112d57" font-family="GenSekiGothicTW-B, GenSekiGothic TW, Microsoft JhengHei, sans-serif, Microsoft JhengHei, sans-serif" letter-spacing="0.02em">5</text>
    <text transform="translate(9.22 205.77)" font-size="13.29" fill="#112d57" font-family="GenSekiGothicTW-B, GenSekiGothic TW, Microsoft JhengHei, sans-serif, Microsoft JhengHei, sans-serif" letter-spacing="0.02em">0</text>
    <path d="M22.1,86.49l3.19-1.25v15.81l1.11,18.18,1.67,5.68v2.36l2.16,1.25,4.14-6.24,4.46,1.25,2.71-.69L43.77,126l7,.77,1.43,2.77,3-4.16,2.23,4.16,3.4,1L66.41,126s1.75,2.57,2.23,2.43,2.39-1,2.39-1l5.26,3.89,4.62-2.5,2.23,5,3.67,1.81,3.78-.56L93,137.26l6.22,3.88v-2.77l4-1.66,9.89,3.33,2.07,3.19,4.14-6.25,4-.83,2.55,5,2.39-4.57,4.14,4.57,3.51-2.91,1.91-6.24,3.35,5.69,1.11-6.8,4.31,1.8,2.07,4.72,1.27,2.36,2.23.41,2.87-2.49,4.62.83.64-5.13,3.67-3.06,3.35,3.33,2.39-11.37,2.39,2.36,1.43-2.92,2.55,8.05,4.15-16.92,1.59,12.34L185,93.56l2.39,4,2.23-15.68,2.71,15.26,1.43-7.63,2.55,5.13,2.39,1.81v11.65l1.76.14,2.71,12.34,2.87-6.1v-4l4-5.27,2.87,8.46,3.79-4.86,1.47,3.05,3.5-2.77,4,11.51,2.39-11,5.1,2.09,3.19,3.74,2.39-9.57,1.91,6,5.58,1.67,1.86,3.19v5.13l3.72-2.08,2.07,2.08,4-.27,1.76-4.31,4.62,2.5,1.59,3.06,7-1.39,5.42,7.35,4,.28,3.19,5,5.74.28,2.07-1.81,4.3.42,3.35-2.22s.32,4.3,1.27,4.3,8.92-1.8,8.92-1.8L316,128.8l1.63,3.33,2.67-4,2.55,6.1,4-1.25s4.78-15.54,4.78-19.42,1.59,3.47,1.59,3.47l2.39-2.92,2.71,18.18,4.14-.42,2.4,10.27s2.87-5.69,3-5.28,1.11,3.75,1.11,3.75,1.91,3.88,2.71,4a28.67,28.67,0,0,0,3.52,0l1.58-3.05,1.91,3.11,4.63-2.14,1.91,2.14,2.39-2.14,4.94,3.75L377,133.79l2.55,3.05,3.35-2.91,1.59-5.55,8.93-4.16,2.71,6.94,2.07,5.41.8,4.16,3,4.72,3.44-1.11,4.21,1.94,4.14-3.89,4.46,1.67,7.65-5.41,3,.55,2.39,2.92,4-1.81,4.14,1.39,6.54-5,4.94-.28,2.55,5.55,4.14-3.33,3.19-5.13,2.39,3.6,5.31-7.77,1.22-5.41,2.71,3.06,1.28-4.72,2.71,2.08v-8.19l2.55,2.64,3.82-8.6,1.44.69,3-8,2.23-.56,2.07-6.79s2.07,7.49,2.71,7.76,6,2.22,6,2.22L501,96.2l3.35,2.91,4.62-3.6,2.87-6.39s2.39-7.7,2.39-8.29V78.58l1.44-3.18,2.39-23.59" fill="none" stroke="#68cbd0" stroke-miterlimit="10"/>
    <g>
      <text transform="translate(222.36 245.85)" font-size="8.9" fill="#112d57" font-family="GenSekiGothicTW-B, GenSekiGothic TW, Microsoft JhengHei, sans-serif, Microsoft JhengHei, sans-serif" letter-spacing="0.02em">前五大公司市值佔S&amp;P 500市場比重</text>
      <rect x="188.46" y="241.02" width="27.96" height="3.93" fill="#68cbd0"/>
    </g>
    <text transform="translate(125.83 48.87)" font-size="8.09" fill="#112d57" font-family="GenSekiGothicTW-B, GenSekiGothic TW, Microsoft JhengHei, sans-serif, Microsoft JhengHei, sans-serif" letter-spacing="0.02em">2000年：微軟、奇異、<tspan x="0" y="9.89">思科、英特爾、沃爾瑪</tspan></text>
    <text transform="translate(395.8 48.87)" font-size="8.09" fill="#112d57" font-family="GenSekiGothicTW-B, GenSekiGothic TW, Microsoft JhengHei, sans-serif, Microsoft JhengHei, sans-serif" letter-spacing="0.02em">2020年：微軟、蘋果、亞<tspan x="0" y="9.89">馬遜、Alphab</tspan><tspan x="54.2" y="9.89" letter-spacing="0.01em">e</tspan><tspan x="59" y="9.89">t、臉書</tspan></text>
    <circle cx="188.46" cy="86.42" r="15.14" fill="none" stroke="#5eba4c" stroke-linecap="round" stroke-linejoin="round" stroke-width="2"/>
    <circle cx="515.4" cy="51.81" r="15.14" fill="none" stroke="#5eba4c" stroke-linecap="round" stroke-linejoin="round" stroke-width="2"/>
    <g>
      <line x1="27.3" y1="201.18" x2="27.3" y2="210.35" fill="none" stroke="#211815" stroke-miterlimit="10" stroke-width="2"/>
      <text transform="translate(17.09 223.1)" font-size="8.18" fill="#112d57" font-family="GenSekiGothicTW-B, GenSekiGothic TW, Microsoft JhengHei, sans-serif, Microsoft JhengHei, sans-serif" letter-spacing="0.03em">1990</text>
    </g>
    <g>
      <line x1="110.01" y1="201.9" x2="110.01" y2="210.35" fill="none" stroke="#211815" stroke-miterlimit="10" stroke-width="2"/>
      <text transform="translate(100.93 225.57)" font-size="8.18" fill="#112d57" font-family="GenSekiGothicTW-B, GenSekiGothic TW, Microsoft JhengHei, sans-serif, Microsoft JhengHei, sans-serif" letter-spacing="0.03em">1995</text>
    </g>
    <g>
      <line x1="193.43" y1="201.9" x2="193.43" y2="210.35" fill="none" stroke="#211815" stroke-miterlimit="10" stroke-width="2"/>
      <text transform="translate(184.76 225.57)" font-size="8.18" fill="#112d57" font-family="GenSekiGothicTW-B, GenSekiGothic TW, Microsoft JhengHei, sans-serif, Microsoft JhengHei, sans-serif" letter-spacing="0.03em">2000</text>
    </g>
    <g>
      <line x1="278.34" y1="201.9" x2="278.34" y2="210.35" fill="none" stroke="#211815" stroke-miterlimit="10" stroke-width="2"/>
      <text transform="translate(268.59 225.57)" font-size="8.18" fill="#112d57" font-family="GenSekiGothicTW-B, GenSekiGothic TW, Microsoft JhengHei, sans-serif, Microsoft JhengHei, sans-serif" letter-spacing="0.03em">2005</text>
    </g>
    <g>
      <line x1="362.06" y1="201.9" x2="362.06" y2="210.35" fill="none" stroke="#211815" stroke-miterlimit="10" stroke-width="2"/>
      <text transform="translate(352.43 225.57)" font-size="8.18" fill="#112d57" font-family="GenSekiGothicTW-B, GenSekiGothic TW, Microsoft JhengHei, sans-serif, Microsoft JhengHei, sans-serif" letter-spacing="0.03em">2010</text>
    </g>
    <g>
      <line x1="445.73" y1="201.9" x2="445.73" y2="210.35" fill="none" stroke="#211815" stroke-miterlimit="10" stroke-width="2"/>
      <text transform="translate(436.26 225.57)" font-size="8.18" fill="#112d57" font-family="GenSekiGothicTW-B, GenSekiGothic TW, Microsoft JhengHei, sans-serif, Microsoft JhengHei, sans-serif" letter-spacing="0.03em">2015</text>
    </g>
    <g>
      <line x1="529.44" y1="201.23" x2="529.44" y2="210.35" fill="none" stroke="#211815" stroke-miterlimit="10" stroke-width="2"/>
      <text transform="translate(520.09 225.57)" font-size="8.18" fill="#112d57" font-family="GenSekiGothicTW-B, GenSekiGothic TW, Microsoft JhengHei, sans-serif, Microsoft JhengHei, sans-serif" letter-spacing="0.03em">2020</text>
    </g>
  </g>
</svg>
