<svg xmlns="http://www.w3.org/2000/svg" viewBox="0 0 482 166">
  <g style="isolation: isolate">
    <g style="mix-blend-mode: soft-light">
      <path d="M460,2.66a2.57,2.57,0,0,1,.78-1.88,2.66,2.66,0,0,1,3.76,0,2.54,2.54,0,0,1,.79,1.88,2.55,2.55,0,0,1-.79,1.89,2.66,2.66,0,0,1-3.76,0A2.57,2.57,0,0,1,460,2.66Z" fill="#888"/>
      <path d="M460,42.76a2.66,2.66,0,0,1,4.54-1.88,2.67,2.67,0,0,1-1.88,4.55A2.66,2.66,0,0,1,460,42.76Z" fill="#9e9f9f"/>
      <path d="M460,82.87A2.66,2.66,0,0,1,464.51,81,2.66,2.66,0,1,1,460,82.87Z" fill="#b4b4b5"/>
      <path d="M460,123a2.66,2.66,0,0,1,4.54-1.88,2.67,2.67,0,0,1-1.88,4.55A2.66,2.66,0,0,1,460,123Z" fill="#c8c9c9"/>
      <path d="M460,163.07a2.66,2.66,0,0,1,4.54-1.89,2.66,2.66,0,1,1-4.54,1.89Z" fill="#fff"/>
      <path d="M417,2.66a2.57,2.57,0,0,1,.78-1.88,2.67,2.67,0,0,1,3.77,0,2.57,2.57,0,0,1,.78,1.88,2.57,2.57,0,0,1-.78,1.89,2.67,2.67,0,0,1-3.77,0A2.57,2.57,0,0,1,417,2.66Z" fill="#888"/>
      <path d="M417,42.76a2.66,2.66,0,1,1,.78,1.89A2.57,2.57,0,0,1,417,42.76Z" fill="#9e9f9f"/>
      <path d="M417,82.87a2.66,2.66,0,1,1,.78,1.88A2.57,2.57,0,0,1,417,82.87Z" fill="#b4b4b5"/>
      <path d="M417,123a2.66,2.66,0,1,1,.78,1.89A2.57,2.57,0,0,1,417,123Z" fill="#c8c9c9"/>
      <path d="M417,163.07a2.66,2.66,0,1,1,.78,1.88A2.57,2.57,0,0,1,417,163.07Z" fill="#fff"/>
      <path d="M374.09,2.66a2.57,2.57,0,0,1,.78-1.88,2.67,2.67,0,0,1,3.77,0,2.57,2.57,0,0,1,.78,1.88,2.57,2.57,0,0,1-.78,1.89,2.67,2.67,0,0,1-3.77,0A2.57,2.57,0,0,1,374.09,2.66Z" fill="#888"/>
      <path d="M374.09,42.76a2.66,2.66,0,1,1,.78,1.89A2.57,2.57,0,0,1,374.09,42.76Z" fill="#9e9f9f"/>
      <path d="M374.09,82.87a2.66,2.66,0,1,1,.78,1.88A2.57,2.57,0,0,1,374.09,82.87Z" fill="#b4b4b5"/>
      <path d="M374.09,123a2.66,2.66,0,1,1,.78,1.89A2.57,2.57,0,0,1,374.09,123Z" fill="#c8c9c9"/>
      <path d="M374.09,163.07a2.66,2.66,0,1,1,.78,1.88A2.57,2.57,0,0,1,374.09,163.07Z" fill="#fff"/>
      <path d="M331.15,2.66a2.57,2.57,0,0,1,.78-1.88,2.67,2.67,0,0,1,3.77,0,2.57,2.57,0,0,1,.78,1.88,2.57,2.57,0,0,1-.78,1.89,2.67,2.67,0,0,1-3.77,0A2.57,2.57,0,0,1,331.15,2.66Z" fill="#888"/>
      <path d="M331.15,42.76a2.66,2.66,0,1,1,.78,1.89A2.57,2.57,0,0,1,331.15,42.76Z" fill="#9e9f9f"/>
      <path d="M331.15,82.87a2.66,2.66,0,1,1,.78,1.88A2.57,2.57,0,0,1,331.15,82.87Z" fill="#b4b4b5"/>
      <path d="M331.15,123a2.66,2.66,0,1,1,.78,1.89A2.57,2.57,0,0,1,331.15,123Z" fill="#c8c9c9"/>
      <path d="M331.15,163.07a2.66,2.66,0,1,1,.78,1.88A2.57,2.57,0,0,1,331.15,163.07Z" fill="#fff"/>
      <path d="M288.21,2.66A2.57,2.57,0,0,1,289,.78a2.67,2.67,0,0,1,3.77,0,2.57,2.57,0,0,1,.78,1.88,2.57,2.57,0,0,1-.78,1.89,2.67,2.67,0,0,1-3.77,0A2.57,2.57,0,0,1,288.21,2.66Z" fill="#888"/>
      <path d="M288.21,42.76a2.66,2.66,0,1,1,.78,1.89A2.57,2.57,0,0,1,288.21,42.76Z" fill="#9e9f9f"/>
      <path d="M288.21,82.87a2.66,2.66,0,1,1,.78,1.88A2.57,2.57,0,0,1,288.21,82.87Z" fill="#b4b4b5"/>
      <path d="M288.21,123a2.66,2.66,0,1,1,.78,1.89A2.57,2.57,0,0,1,288.21,123Z" fill="#c8c9c9"/>
      <path d="M288.21,163.07A2.66,2.66,0,1,1,289,165,2.57,2.57,0,0,1,288.21,163.07Z" fill="#fff"/>
      <path d="M245.28,2.66a2.57,2.57,0,0,1,.78-1.88,2.66,2.66,0,0,1,3.76,0,2.57,2.57,0,0,1,.78,1.88,2.57,2.57,0,0,1-.78,1.89,2.66,2.66,0,0,1-3.76,0A2.57,2.57,0,0,1,245.28,2.66Z" fill="#888"/>
      <path d="M245.28,42.76a2.66,2.66,0,1,1,.78,1.89A2.57,2.57,0,0,1,245.28,42.76Z" fill="#9e9f9f"/>
      <path d="M245.28,82.87a2.66,2.66,0,1,1,.78,1.88A2.57,2.57,0,0,1,245.28,82.87Z" fill="#b4b4b5"/>
      <path d="M245.28,123a2.66,2.66,0,1,1,.78,1.89A2.57,2.57,0,0,1,245.28,123Z" fill="#c8c9c9"/>
      <path d="M245.28,163.07a2.66,2.66,0,1,1,.78,1.88A2.57,2.57,0,0,1,245.28,163.07Z" fill="#fff"/>
    </g>
  </g>
</svg>
