<svg xmlns="http://www.w3.org/2000/svg" xmlns:xlink="http://www.w3.org/1999/xlink" viewBox="0 0 683 203.38"><defs><clipPath id="clip-path"><rect y="287.36" width="1366" height="203.38" fill="none"/></clipPath><clipPath id="clip-path-2"><circle cx="97.95" cy="346.04" r="236.98" fill="none"/></clipPath><linearGradient id="未命名漸層_33" x1="-715.16" y1="-2689.12" x2="-407.29" y2="-2689.12" gradientTransform="matrix(0.74, -0.67, -0.67, -0.74, -1300.16, -2170.22)" gradientUnits="userSpaceOnUse"><stop offset="0" stop-color="#ffdf5e"/><stop offset="0.3" stop-color="#83ccd2"/><stop offset="0.65" stop-color="#13426f"/><stop offset="1" stop-color="#002a5e"/></linearGradient><linearGradient id="未命名漸層_33-2" x1="-709.06" y1="-2689.12" x2="-413.39" y2="-2689.12" xlink:href="#未命名漸層_33"/><linearGradient id="未命名漸層_33-3" x1="-702.97" y1="-2689.12" x2="-419.49" y2="-2689.12" xlink:href="#未命名漸層_33"/><linearGradient id="未命名漸層_33-4" x1="-696.87" y1="-2689.12" x2="-425.58" y2="-2689.12" xlink:href="#未命名漸層_33"/><linearGradient id="未命名漸層_33-5" x1="-690.77" y1="-2689.12" x2="-431.68" y2="-2689.12" xlink:href="#未命名漸層_33"/><linearGradient id="未命名漸層_33-6" x1="-684.68" y1="-2689.12" x2="-437.78" y2="-2689.12" xlink:href="#未命名漸層_33"/><linearGradient id="未命名漸層_33-7" x1="-678.58" y1="-2689.12" x2="-443.87" y2="-2689.12" xlink:href="#未命名漸層_33"/><linearGradient id="未命名漸層_33-8" x1="-672.48" y1="-2689.12" x2="-449.97" y2="-2689.12" xlink:href="#未命名漸層_33"/><linearGradient id="未命名漸層_33-9" x1="-666.39" y1="-2689.12" x2="-456.07" y2="-2689.12" xlink:href="#未命名漸層_33"/><linearGradient id="未命名漸層_33-10" x1="-660.29" y1="-2689.12" x2="-462.16" y2="-2689.12" xlink:href="#未命名漸層_33"/><linearGradient id="未命名漸層_33-11" x1="-654.19" y1="-2689.12" x2="-468.26" y2="-2689.12" xlink:href="#未命名漸層_33"/><linearGradient id="未命名漸層_33-12" x1="-648.1" y1="-2689.12" x2="-474.36" y2="-2689.12" xlink:href="#未命名漸層_33"/><linearGradient id="未命名漸層_33-13" x1="-642" y1="-2689.12" x2="-480.45" y2="-2689.12" xlink:href="#未命名漸層_33"/><linearGradient id="未命名漸層_33-14" x1="-635.9" y1="-2689.12" x2="-486.55" y2="-2689.12" xlink:href="#未命名漸層_33"/><linearGradient id="未命名漸層_33-15" x1="-629.81" y1="-2689.12" x2="-492.65" y2="-2689.12" xlink:href="#未命名漸層_33"/><linearGradient id="未命名漸層_33-16" x1="-623.71" y1="-2689.12" x2="-498.74" y2="-2689.12" xlink:href="#未命名漸層_33"/><linearGradient id="未命名漸層_33-17" x1="-617.61" y1="-2689.12" x2="-504.84" y2="-2689.12" xlink:href="#未命名漸層_33"/><linearGradient id="未命名漸層_33-18" x1="-611.52" y1="-2689.12" x2="-510.94" y2="-2689.12" xlink:href="#未命名漸層_33"/><linearGradient id="未命名漸層_33-19" x1="-605.42" y1="-2689.12" x2="-517.03" y2="-2689.12" xlink:href="#未命名漸層_33"/><linearGradient id="未命名漸層_33-20" x1="-599.32" y1="-2689.12" x2="-523.13" y2="-2689.12" xlink:href="#未命名漸層_33"/><linearGradient id="未命名漸層_33-21" x1="-593.23" y1="-2689.12" x2="-529.23" y2="-2689.12" xlink:href="#未命名漸層_33"/><linearGradient id="未命名漸層_33-22" x1="-587.13" y1="-2689.12" x2="-535.32" y2="-2689.12" xlink:href="#未命名漸層_33"/><linearGradient id="未命名漸層_33-23" x1="-581.03" y1="-2689.12" x2="-541.42" y2="-2689.12" xlink:href="#未命名漸層_33"/><linearGradient id="未命名漸層_33-24" x1="-574.93" y1="-2689.12" x2="-547.52" y2="-2689.12" xlink:href="#未命名漸層_33"/><linearGradient id="未命名漸層_33-25" x1="-568.84" y1="-2689.12" x2="-553.61" y2="-2689.12" xlink:href="#未命名漸層_33"/><clipPath id="clip-path-3"><rect width="1366" height="203.38" fill="none"/></clipPath><clipPath id="clip-path-4"><circle cx="97.95" cy="58.68" r="236.98" fill="none"/></clipPath><linearGradient id="未命名漸層_33-26" x1="-4043.66" y1="-6068.68" x2="-3545.42" y2="-6068.68" gradientTransform="matrix(-0.46, -0.89, -0.89, 0.46, -7166.05, -343.63)" xlink:href="#未命名漸層_33"/><linearGradient id="未命名漸層_33-27" x1="-4033.79" y1="-6068.68" x2="-3555.29" y2="-6068.68" gradientTransform="matrix(-0.46, -0.89, -0.89, 0.46, -7166.05, -343.63)" xlink:href="#未命名漸層_33"/><linearGradient id="未命名漸層_33-28" x1="-4023.92" y1="-6068.68" x2="-3565.15" y2="-6068.68" gradientTransform="matrix(-0.46, -0.89, -0.89, 0.46, -7166.05, -343.63)" xlink:href="#未命名漸層_33"/><linearGradient id="未命名漸層_33-29" x1="-4014.06" y1="-6068.68" x2="-3575.02" y2="-6068.68" gradientTransform="matrix(-0.46, -0.89, -0.89, 0.46, -7166.05, -343.63)" xlink:href="#未命名漸層_33"/><linearGradient id="未命名漸層_33-30" x1="-4004.19" y1="-6068.68" x2="-3584.89" y2="-6068.68" gradientTransform="matrix(-0.46, -0.89, -0.89, 0.46, -7166.05, -343.63)" xlink:href="#未命名漸層_33"/><linearGradient id="未命名漸層_33-31" x1="-3994.32" y1="-6068.68" x2="-3594.75" y2="-6068.68" gradientTransform="matrix(-0.46, -0.89, -0.89, 0.46, -7166.05, -343.63)" xlink:href="#未命名漸層_33"/><linearGradient id="未命名漸層_33-32" x1="-3984.46" y1="-6068.68" x2="-3604.62" y2="-6068.68" gradientTransform="matrix(-0.46, -0.89, -0.89, 0.46, -7166.05, -343.63)" xlink:href="#未命名漸層_33"/><linearGradient id="未命名漸層_33-33" x1="-3974.59" y1="-6068.68" x2="-3614.49" y2="-6068.68" gradientTransform="matrix(-0.46, -0.89, -0.89, 0.46, -7166.05, -343.63)" xlink:href="#未命名漸層_33"/><linearGradient id="未命名漸層_33-34" x1="-3964.72" y1="-6068.68" x2="-3624.35" y2="-6068.68" gradientTransform="matrix(-0.46, -0.89, -0.89, 0.46, -7166.05, -343.63)" xlink:href="#未命名漸層_33"/><linearGradient id="未命名漸層_33-35" x1="-3954.86" y1="-6068.68" x2="-3634.22" y2="-6068.68" gradientTransform="matrix(-0.46, -0.89, -0.89, 0.46, -7166.05, -343.63)" xlink:href="#未命名漸層_33"/><linearGradient id="未命名漸層_33-36" x1="-3944.99" y1="-6068.68" x2="-3644.09" y2="-6068.68" gradientTransform="matrix(-0.46, -0.89, -0.89, 0.46, -7166.05, -343.63)" xlink:href="#未命名漸層_33"/><linearGradient id="未命名漸層_33-37" x1="-3935.12" y1="-6068.68" x2="-3653.95" y2="-6068.68" gradientTransform="matrix(-0.46, -0.89, -0.89, 0.46, -7166.05, -343.63)" xlink:href="#未命名漸層_33"/><linearGradient id="未命名漸層_33-38" x1="-3925.26" y1="-6068.68" x2="-3663.82" y2="-6068.68" gradientTransform="matrix(-0.46, -0.89, -0.89, 0.46, -7166.05, -343.63)" xlink:href="#未命名漸層_33"/><linearGradient id="未命名漸層_33-39" x1="-3915.39" y1="-6068.68" x2="-3673.69" y2="-6068.68" gradientTransform="matrix(-0.46, -0.89, -0.89, 0.46, -7166.05, -343.63)" xlink:href="#未命名漸層_33"/><linearGradient id="未命名漸層_33-40" x1="-3905.52" y1="-6068.68" x2="-3683.55" y2="-6068.68" gradientTransform="matrix(-0.46, -0.89, -0.89, 0.46, -7166.05, -343.63)" xlink:href="#未命名漸層_33"/><linearGradient id="未命名漸層_33-41" x1="-3895.66" y1="-6068.68" x2="-3693.42" y2="-6068.68" gradientTransform="matrix(-0.46, -0.89, -0.89, 0.46, -7166.05, -343.63)" xlink:href="#未命名漸層_33"/><linearGradient id="未命名漸層_33-42" x1="-3885.79" y1="-6068.68" x2="-3703.29" y2="-6068.68" gradientTransform="matrix(-0.46, -0.89, -0.89, 0.46, -7166.05, -343.63)" xlink:href="#未命名漸層_33"/><linearGradient id="未命名漸層_33-43" x1="-3875.92" y1="-6068.68" x2="-3713.15" y2="-6068.68" gradientTransform="matrix(-0.46, -0.89, -0.89, 0.46, -7166.05, -343.63)" xlink:href="#未命名漸層_33"/><linearGradient id="未命名漸層_33-44" x1="-3866.06" y1="-6068.68" x2="-3723.02" y2="-6068.68" gradientTransform="matrix(-0.46, -0.89, -0.89, 0.46, -7166.05, -343.63)" xlink:href="#未命名漸層_33"/><linearGradient id="未命名漸層_33-45" x1="-3856.19" y1="-6068.68" x2="-3732.89" y2="-6068.68" gradientTransform="matrix(-0.46, -0.89, -0.89, 0.46, -7166.05, -343.63)" xlink:href="#未命名漸層_33"/><linearGradient id="未命名漸層_33-46" x1="-3846.32" y1="-6068.68" x2="-3742.75" y2="-6068.68" gradientTransform="matrix(-0.46, -0.89, -0.89, 0.46, -7166.05, -343.63)" xlink:href="#未命名漸層_33"/><linearGradient id="未命名漸層_33-47" x1="-523.43" y1="-2475.08" x2="-215.56" y2="-2475.08" xlink:href="#未命名漸層_33"/><linearGradient id="未命名漸層_33-48" x1="-517.33" y1="-2475.08" x2="-221.66" y2="-2475.08" xlink:href="#未命名漸層_33"/><linearGradient id="未命名漸層_33-49" x1="-511.24" y1="-2475.08" x2="-227.76" y2="-2475.08" xlink:href="#未命名漸層_33"/><linearGradient id="未命名漸層_33-50" x1="-505.14" y1="-2475.08" x2="-233.85" y2="-2475.08" xlink:href="#未命名漸層_33"/><linearGradient id="未命名漸層_33-51" x1="-499.04" y1="-2475.08" x2="-239.95" y2="-2475.08" xlink:href="#未命名漸層_33"/><linearGradient id="未命名漸層_33-52" x1="-492.95" y1="-2475.08" x2="-246.05" y2="-2475.08" xlink:href="#未命名漸層_33"/><linearGradient id="未命名漸層_33-53" x1="-486.85" y1="-2475.08" x2="-252.15" y2="-2475.08" xlink:href="#未命名漸層_33"/><linearGradient id="未命名漸層_33-54" x1="-480.75" y1="-2475.08" x2="-258.24" y2="-2475.08" xlink:href="#未命名漸層_33"/><linearGradient id="未命名漸層_33-55" x1="-474.66" y1="-2475.08" x2="-264.34" y2="-2475.08" xlink:href="#未命名漸層_33"/><linearGradient id="未命名漸層_33-56" x1="-468.56" y1="-2475.08" x2="-270.44" y2="-2475.08" xlink:href="#未命名漸層_33"/><linearGradient id="未命名漸層_33-57" x1="-462.46" y1="-2475.08" x2="-276.53" y2="-2475.08" xlink:href="#未命名漸層_33"/><linearGradient id="未命名漸層_33-58" x1="-456.37" y1="-2475.08" x2="-282.63" y2="-2475.08" xlink:href="#未命名漸層_33"/><linearGradient id="未命名漸層_33-59" x1="-450.27" y1="-2475.08" x2="-288.73" y2="-2475.08" xlink:href="#未命名漸層_33"/><linearGradient id="未命名漸層_47" x1="-4388.07" y1="48.5" x2="-4636.76" y2="51.65" gradientTransform="matrix(1, 0, 0, -1, 4539.53, 101.58)" gradientUnits="userSpaceOnUse"><stop offset="0" stop-color="#ffdf5e"/><stop offset="0.3" stop-color="#83ccd2"/><stop offset="0.65" stop-color="#13426f"/><stop offset="1" stop-color="#002a5e" stop-opacity="0"/></linearGradient><linearGradient id="未命名漸層_47-2" x1="-4368.63" y1="89.84" x2="-4617.32" y2="92.99" gradientTransform="matrix(1, 0, 0, -1, 4500.65, 184.25)" xlink:href="#未命名漸層_47"/><linearGradient id="未命名漸層_47-3" x1="-4421.02" y1="133.32" x2="-4669.71" y2="136.47" gradientTransform="matrix(1, 0, 0, -1, 4605.43, 271.22)" xlink:href="#未命名漸層_47"/><linearGradient id="未命名漸層_47-4" x1="-4377.4" y1="175.13" x2="-4626.08" y2="178.28" gradientTransform="matrix(1, 0, 0, -1, 4518.18, 354.84)" xlink:href="#未命名漸層_47"/></defs><g style="isolation:isolate"><g id="_1-4圖表" data-name="1-4圖表"><g clip-path="url(#clip-path)"><g clip-path="url(#clip-path-2)"><g opacity="0.58"><path d="M84.69,53.59A153.93,153.93,0,0,1,67.34,361,153.93,153.93,0,1,1,84.69,53.59ZM228.81,215.9A153,153,0,0,0,84.64,54.48,153,153,0,1,0,178,321.42,152,152,0,0,0,228.81,215.9Z" fill="url(#未命名漸層_33)"/><path d="M84.34,59.68a147.83,147.83,0,1,1-16.66,295.2A147.83,147.83,0,1,1,84.34,59.68ZM222.72,215.56a146.93,146.93,0,0,0-138.43-155A146.94,146.94,0,1,0,173.9,316.88,146,146,0,0,0,222.72,215.56Z" fill="url(#未命名漸層_33-2)"/><path d="M84,65.76a141.74,141.74,0,1,1-16,283,141.74,141.74,0,0,1,16-283ZM216.64,215.22A140.86,140.86,0,0,0,84,66.65a140.85,140.85,0,1,0,85.89,245.68A139.92,139.92,0,0,0,216.64,215.22Z" fill="url(#未命名漸層_33-3)"/><path d="M83.66,71.85A135.65,135.65,0,0,1,68.37,342.71,135.65,135.65,0,0,1,83.66,71.85Zm126.89,143A134.75,134.75,0,0,0,83.61,72.74a134.75,134.75,0,1,0,82.16,235A133.87,133.87,0,0,0,210.55,214.87Z" fill="url(#未命名漸層_33-4)"/><path d="M83.31,77.94a129.55,129.55,0,1,1-14.6,258.68A129.55,129.55,0,0,1,83.31,77.94ZM204.46,214.53A128.65,128.65,0,0,0,83.26,78.83a128.65,128.65,0,1,0,78.45,224.4A127.78,127.78,0,0,0,204.46,214.53Z" fill="url(#未命名漸層_33-5)"/><path d="M83,84A123.45,123.45,0,1,1,69.05,330.53,123.45,123.45,0,0,1,83,84ZM198.38,214.19A122.58,122.58,0,0,0,82.92,84.91a122.56,122.56,0,1,0,74.73,213.78A121.78,121.78,0,0,0,198.38,214.19Z" fill="url(#未命名漸層_33-6)"/><path d="M82.63,90.11A117.35,117.35,0,1,1-11.51,285.45,117.35,117.35,0,0,1,82.63,90.11ZM192.29,213.84A116.47,116.47,0,0,0,82.58,91a116.46,116.46,0,1,0,71,203.14A115.69,115.69,0,0,0,192.29,213.84Z" fill="url(#未命名漸層_33-7)"/><path d="M82.28,96.2A111.26,111.26,0,1,1-7,281.39,111.26,111.26,0,0,1,82.28,96.2ZM186.2,213.5a110.35,110.35,0,0,0-104-116.41,110.37,110.37,0,1,0,67.3,192.5A109.62,109.62,0,0,0,186.2,213.5Z" fill="url(#未命名漸層_33-8)"/><path d="M81.94,102.29a105.16,105.16,0,1,1-84.36,175,105.16,105.16,0,0,1,84.36-175Zm98.18,110.86a104.26,104.26,0,0,0-98.23-110,104.27,104.27,0,1,0,63.58,181.87A103.63,103.63,0,0,0,180.12,213.15Z" fill="url(#未命名漸層_33-9)"/><path d="M81.6,108.37A99.06,99.06,0,1,1,2.13,273.27,99.06,99.06,0,0,1,81.6,108.37ZM174,212.81A98.18,98.18,0,0,0,81.55,109.26,98.17,98.17,0,1,0,141.41,280.5,97.58,97.58,0,0,0,174,212.81Z" fill="url(#未命名漸層_33-10)"/><path d="M145.35,145.35a93,93,0,1,1-131.27-7.41A93.08,93.08,0,0,1,145.35,145.35Zm-.66.59a92.08,92.08,0,1,0-7.34,130A92.19,92.19,0,0,0,144.69,145.94Z" fill="url(#未命名漸層_33-11)"/><path d="M140.8,149.41a86.87,86.87,0,1,1-122.65-6.92A87,87,0,0,1,140.8,149.41Zm-.66.6a86,86,0,1,0-6.86,121.39A86.08,86.08,0,0,0,140.14,150Z" fill="url(#未命名漸層_33-12)"/><path d="M136.26,153.47a80.77,80.77,0,1,1-114-6.44A80.87,80.87,0,0,1,136.26,153.47Zm-.67.6a79.88,79.88,0,1,0-6.37,112.79A80,80,0,0,0,135.59,154.07Z" fill="url(#未命名漸層_33-13)"/><path d="M131.71,157.53a74.68,74.68,0,1,1-105.44-5.95A74.76,74.76,0,0,1,131.71,157.53Zm-.67.6a73.78,73.78,0,1,0-5.88,104.18A73.86,73.86,0,0,0,131,158.13Z" fill="url(#未命名漸層_33-14)"/><path d="M127.16,161.6a68.58,68.58,0,1,1-96.83-5.47A68.65,68.65,0,0,1,127.16,161.6Zm-.66.59a67.69,67.69,0,1,0-5.4,95.57A67.77,67.77,0,0,0,126.5,162.19Z" fill="url(#未命名漸層_33-15)"/><path d="M122.61,165.66a62.48,62.48,0,1,1-88.22-5A62.55,62.55,0,0,1,122.61,165.66Zm-.66.59a61.59,61.59,0,1,0-4.91,87A61.67,61.67,0,0,0,122,166.25Z" fill="url(#未命名漸層_33-16)"/><path d="M118.07,169.72a56.39,56.39,0,1,1-79.62-4.5A56.44,56.44,0,0,1,118.07,169.72Zm-.67.59A55.49,55.49,0,1,0,113,248.67,55.55,55.55,0,0,0,117.4,170.31Z" fill="url(#未命名漸層_33-17)"/><path d="M113.52,173.78a50.29,50.29,0,1,1-71-4A50.35,50.35,0,0,1,113.52,173.78Zm-.67.59a49.4,49.4,0,1,0-3.93,69.75A49.44,49.44,0,0,0,112.85,174.37Z" fill="url(#未命名漸層_33-18)"/><path d="M109,177.84a44.19,44.19,0,1,1-62.4-3.52A44.25,44.25,0,0,1,109,177.84Zm-.66.59a43.3,43.3,0,1,0-3.45,61.14A43.36,43.36,0,0,0,108.31,178.43Z" fill="url(#未命名漸層_33-19)"/><path d="M104.43,181.9a38.1,38.1,0,1,1-53.79-3A38.14,38.14,0,0,1,104.43,181.9Zm-.67.6a37.2,37.2,0,1,0-3,52.53A37.23,37.23,0,0,0,103.76,182.5Z" fill="url(#未命名漸層_33-20)"/><path d="M99.88,186a32,32,0,1,1-45.18-2.55A32,32,0,0,1,99.88,186Zm-.67.6a31.11,31.11,0,1,0-2.48,43.92A31.13,31.13,0,0,0,99.21,186.56Z" fill="url(#未命名漸層_33-21)"/><path d="M95.33,190A25.9,25.9,0,1,1,58.76,188,25.94,25.94,0,0,1,95.33,190Zm-.66.6a25,25,0,1,0-2,35.31A25,25,0,0,0,94.67,190.62Z" fill="url(#未命名漸層_33-22)"/><path d="M90.78,194.08a19.81,19.81,0,1,1-28-1.57A19.83,19.83,0,0,1,90.78,194.08Zm-.66.6a18.91,18.91,0,1,0-1.51,26.7A18.94,18.94,0,0,0,90.12,194.68Z" fill="url(#未命名漸層_33-23)"/><path d="M86.24,198.15a13.71,13.71,0,1,1-19.36-1.1A13.72,13.72,0,0,1,86.24,198.15Zm-.67.59a12.82,12.82,0,1,0-1,18.1A12.83,12.83,0,0,0,85.57,198.74Z" fill="url(#未命名漸層_33-24)"/><path d="M81.69,202.21a7.61,7.61,0,1,1-10.75-.61A7.62,7.62,0,0,1,81.69,202.21Zm-.67.59a6.72,6.72,0,1,0-.53,9.49A6.72,6.72,0,0,0,81,202.8Z" fill="url(#未命名漸層_33-25)"/></g><g style="mix-blend-mode:soft-light"><path d="M30.68,179.65a2.29,2.29,0,1,1-.67,1.62A2.2,2.2,0,0,1,30.68,179.65Z" fill="#b5b5b6"/><path d="M30.68,145.13a2.29,2.29,0,1,1-.67,1.62A2.2,2.2,0,0,1,30.68,145.13Z" fill="#c9caca"/><path d="M30.68,110.61a2.29,2.29,0,1,1-.67,1.62A2.2,2.2,0,0,1,30.68,110.61Z" fill="#fff"/></g></g></g><g clip-path="url(#clip-path-3)"><g clip-path="url(#clip-path-4)"><path d="M-270.68,175.6A247.5,247.5,0,0,1-147.26,30.27a247.54,247.54,0,0,1,190-15.49A247.54,247.54,0,0,1,188.11,138.2a247.55,247.55,0,0,1,15.49,190A247.52,247.52,0,0,1,80.17,473.57a247.52,247.52,0,0,1-190,15.49A247.51,247.51,0,0,1-255.19,365.64,247.5,247.5,0,0,1-270.68,175.6Zm313-159.45A246.14,246.14,0,0,0-146.6,31.55,246.09,246.09,0,0,0-269.31,176,246.09,246.09,0,0,0-253.91,365,246.09,246.09,0,0,0-109.42,487.69,246.1,246.1,0,0,0,79.52,472.28,246,246,0,0,0,202.22,327.8a246,246,0,0,0-15.4-188.94A246.08,246.08,0,0,0,42.34,16.15Z" fill="url(#未命名漸層_33-26)"/><path d="M-261.29,178.62A237.7,237.7,0,0,1-142.75,39.05,237.7,237.7,0,0,1,39.75,24.17,237.69,237.69,0,0,1,179.33,142.71,237.68,237.68,0,0,1,194.2,325.22,237.65,237.65,0,0,1,75.67,464.79a237.73,237.73,0,0,1-182.51,14.88A237.7,237.7,0,0,1-246.41,361.13,237.68,237.68,0,0,1-261.29,178.62ZM39.31,25.55A236.28,236.28,0,0,0-142.1,40.33,236.29,236.29,0,0,0-259.92,179.07a236.26,236.26,0,0,0,14.79,181.4A236.27,236.27,0,0,0-106.4,478.29,236.28,236.28,0,0,0,75,463.51,236.26,236.26,0,0,0,192.83,324.77,236.21,236.21,0,0,0,178,143.37,236.21,236.21,0,0,0,39.31,25.55Z" fill="url(#未命名漸層_33-27)"/><path d="M-251.9,181.65A227.86,227.86,0,0,1-138.25,47.83a227.83,227.83,0,0,1,175-14.26A227.88,227.88,0,0,1,170.55,147.21a227.88,227.88,0,0,1,14.26,175A227.88,227.88,0,0,1,71.17,456a227.9,227.9,0,0,1-175,14.26A227.89,227.89,0,0,1-237.63,356.63,227.88,227.88,0,0,1-251.9,181.65ZM36.29,34.94A226.47,226.47,0,0,0-137.59,49.11a226.47,226.47,0,0,0-112.93,133A226.42,226.42,0,0,0-236.35,356a226.44,226.44,0,0,0,133,112.93A226.47,226.47,0,0,0,70.51,454.73a226.47,226.47,0,0,0,112.93-133,226.47,226.47,0,0,0-14.17-173.88A226.47,226.47,0,0,0,36.29,34.94Z" fill="url(#未命名漸層_33-28)"/><path d="M-242.5,184.67A218,218,0,0,1-133.75,56.61,218,218,0,0,1,33.71,43,218.1,218.1,0,0,1,161.77,151.72a218.06,218.06,0,0,1,13.65,167.45A218,218,0,0,1,66.66,447.23a218,218,0,0,1-167.45,13.65A218.06,218.06,0,0,1-228.85,352.13,218,218,0,0,1-242.5,184.67ZM33.27,44.33A216.64,216.64,0,0,0-133.09,57.89a216.61,216.61,0,0,0-108,127.22,216.64,216.64,0,0,0,13.56,166.36,216.68,216.68,0,0,0,127.22,108A216.65,216.65,0,0,0,66,446,216.66,216.66,0,0,0,174.05,318.73a216.68,216.68,0,0,0-13.56-166.36A216.68,216.68,0,0,0,33.27,44.33Z" fill="url(#未命名漸層_33-29)"/><path d="M-233.11,187.69A208.22,208.22,0,0,1-129.24,65.39a208.23,208.23,0,0,1,159.93-13A208.28,208.28,0,0,1,153,156.22a208.32,208.32,0,0,1,13,159.93A208.28,208.28,0,0,1,62.16,438.45a208.23,208.23,0,0,1-159.93,13A208.3,208.3,0,0,1-220.08,347.62,208.27,208.27,0,0,1-233.11,187.69Zm263.35-134a206.8,206.8,0,0,0-158.82,13A206.84,206.84,0,0,0-231.74,188.13a206.82,206.82,0,0,0,13,158.83A206.87,206.87,0,0,0-97.33,450.12,206.87,206.87,0,0,0,61.5,437.17,206.87,206.87,0,0,0,164.66,315.71a206.87,206.87,0,0,0-12.95-158.83A206.89,206.89,0,0,0,30.24,53.72Z" fill="url(#未命名漸層_33-30)"/><path d="M-223.72,190.71a198.49,198.49,0,0,1,99-116.54A198.47,198.47,0,0,1,27.66,61.74a198.48,198.48,0,0,1,116.55,99,198.53,198.53,0,0,1,12.43,152.41,198.46,198.46,0,0,1-99,116.54A198.49,198.49,0,0,1-94.75,442.1a198.48,198.48,0,0,1-116.55-99A198.49,198.49,0,0,1-223.72,190.71ZM27.22,63.12a197,197,0,0,0-151.3,12.33,197,197,0,0,0-98.27,115.71A197,197,0,0,0-210,342.46a197,197,0,0,0,115.7,98.26A197,197,0,0,0,57,428.39a197.05,197.05,0,0,0,98.26-115.71,197.06,197.06,0,0,0-12.33-151.3A197,197,0,0,0,27.22,63.12Z" fill="url(#未命名漸層_33-31)"/><path d="M-214.33,193.74a188.71,188.71,0,0,1,94.09-110.8A188.72,188.72,0,0,1,24.64,71.13a188.67,188.67,0,0,1,110.79,94.1A188.65,188.65,0,0,1,147.24,310.1,188.67,188.67,0,0,1,53.15,420.9,188.7,188.7,0,0,1-91.72,432.71a188.72,188.72,0,0,1-110.8-94.1A188.69,188.69,0,0,1-214.33,193.74ZM24.2,72.51A187.23,187.23,0,0,0-119.58,84.23a187.23,187.23,0,0,0-93.37,110A187.16,187.16,0,0,0-201.23,338a187.18,187.18,0,0,0,110,93.38A187.2,187.2,0,0,0,52.49,419.61a187.21,187.21,0,0,0,93.38-109.95,187.24,187.24,0,0,0-11.72-143.77A187.21,187.21,0,0,0,24.2,72.51Z" fill="url(#未命名漸層_33-32)"/><path d="M-204.94,196.76a178.93,178.93,0,0,1,89.21-105A178.86,178.86,0,0,1,21.62,80.53a178.88,178.88,0,0,1,105,89.2,178.86,178.86,0,0,1,11.19,137.35,178.88,178.88,0,0,1-89.2,105A178.86,178.86,0,0,1-88.7,423.31a178.85,178.85,0,0,1-105-89.2A178.91,178.91,0,0,1-204.94,196.76ZM21.18,81.9A177.41,177.41,0,0,0-115.07,93,177.39,177.39,0,0,0-203.56,197.2a177.45,177.45,0,0,0,11.1,136.25,177.47,177.47,0,0,0,104.2,88.49A177.42,177.42,0,0,0,48,410.83a177.42,177.42,0,0,0,88.49-104.19,177.46,177.46,0,0,0-11.11-136.25A177.45,177.45,0,0,0,21.18,81.9Z" fill="url(#未命名漸層_33-33)"/><path d="M-195.54,199.78a169.06,169.06,0,0,1,84.31-99.28A169.07,169.07,0,0,1,18.6,89.92a169.06,169.06,0,0,1,99.28,84.31,169.08,169.08,0,0,1,10.58,129.83,169.08,169.08,0,0,1-84.32,99.28A169,169,0,0,1-85.68,413.92,169.06,169.06,0,0,1-185,329.61,169.08,169.08,0,0,1-195.54,199.78ZM18.15,91.29a167.64,167.64,0,0,0-128.72,10.49,167.68,167.68,0,0,0-83.6,98.44A167.67,167.67,0,0,0-183.68,329a167.68,167.68,0,0,0,98.44,83.6A167.67,167.67,0,0,0,43.49,402.06a167.68,167.68,0,0,0,83.6-98.44,167.63,167.63,0,0,0-10.5-128.73A167.62,167.62,0,0,0,18.15,91.29Z" fill="url(#未命名漸層_33-34)"/><path d="M-186.15,202.81a159.27,159.27,0,0,1,79.43-93.53,159.24,159.24,0,0,1,122.29-10,159.27,159.27,0,0,1,93.53,79.43,159.24,159.24,0,0,1,10,122.29,159.27,159.27,0,0,1-79.43,93.53,159.26,159.26,0,0,1-122.3,10,159.28,159.28,0,0,1-93.52-79.43A159.24,159.24,0,0,1-186.15,202.81ZM15.13,100.68a157.86,157.86,0,0,0-121.2,9.88,157.85,157.85,0,0,0-78.71,92.69,157.83,157.83,0,0,0,9.88,121.19,157.83,157.83,0,0,0,92.69,78.72A157.84,157.84,0,0,0,39,393.28a157.82,157.82,0,0,0,78.71-92.69,157.74,157.74,0,0,0-9.88-121.19A157.81,157.81,0,0,0,15.13,100.68Z" fill="url(#未命名漸層_33-35)"/><path d="M-102.22,118.06c73.81-37.87,164.67-8.63,202.54,65.18S109,347.91,35.14,385.78s-164.67,8.63-202.54-65.18S-176,155.93-102.22,118.06Zm.66,1.28c-73.11,37.51-102.07,127.5-64.56,200.6S-38.63,422,34.48,384.5,136.54,257,99,183.9-28.46,81.84-101.56,119.34Z" fill="url(#未命名漸層_33-36)"/><path d="M-97.72,126.84c69-35.39,153.88-8.06,189.26,60.91S99.6,341.62,30.63,377s-153.87,8.06-189.25-60.91S-166.69,162.22-97.72,126.84Zm.66,1.28c-68.26,35-95.3,119-60.28,187.32S-38.29,410.74,30,375.72s95.31-119,60.29-187.32S-28.79,93.1-97.06,128.12Z" fill="url(#未命名漸層_33-37)"/><path d="M-93.21,135.62c64.13-32.91,143.07-7.5,176,56.63s7.5,143.07-56.63,176-143.07,7.5-176-56.63S-157.34,168.52-93.21,135.62Zm.66,1.28a129.41,129.41,0,0,0-56,174c32.54,63.42,110.61,88.55,174,56s88.55-110.61,56-174S-29.13,104.36-92.55,136.9Z" fill="url(#未命名漸層_33-38)"/><path d="M-88.71,144.39A121,121,0,0,1,74,196.75a121,121,0,0,1-52.36,162.7,121,121,0,0,1-162.69-52.36A121,121,0,0,1-88.71,144.39Zm.66,1.29a119.54,119.54,0,0,0-51.73,160.75A119.54,119.54,0,0,0,21,358.16,119.54,119.54,0,0,0,72.7,197.41,119.54,119.54,0,0,0-88,145.68Z" fill="url(#未命名漸層_33-39)"/><path d="M-84.2,153.17A111.12,111.12,0,0,1,65.21,201.26,111.12,111.12,0,0,1,17.12,350.67a111.12,111.12,0,0,1-149.41-48.09A111.12,111.12,0,0,1-84.2,153.17Zm.65,1.29A109.66,109.66,0,0,0-131,301.92,109.66,109.66,0,0,0,16.46,349.38,109.66,109.66,0,0,0,63.92,201.92,109.65,109.65,0,0,0-83.55,154.46Z" fill="url(#未命名漸層_33-40)"/><path d="M-79.7,162A101.24,101.24,0,0,1,56.43,205.76,101.24,101.24,0,0,1,12.62,341.89a101.24,101.24,0,0,1-136.13-43.81A101.24,101.24,0,0,1-79.7,162Zm.66,1.29a99.78,99.78,0,0,0-43.19,134.18A99.81,99.81,0,0,0,12,340.61,99.79,99.79,0,0,0,55.14,206.42,99.78,99.78,0,0,0-79,163.24Z" fill="url(#未命名漸層_33-41)"/><path d="M-75.2,170.73A91.36,91.36,0,0,1,47.65,210.27,91.35,91.35,0,0,1,8.11,333.11a91.35,91.35,0,0,1-122.84-39.54A91.36,91.36,0,0,1-75.2,170.73Zm.66,1.28a89.93,89.93,0,0,0-38.91,120.91A89.91,89.91,0,0,0,7.45,331.83,89.92,89.92,0,0,0,46.36,210.92,89.91,89.91,0,0,0-74.54,172Z" fill="url(#未命名漸層_33-42)"/><path d="M-70.69,179.51A81.47,81.47,0,0,1,38.87,214.77,81.48,81.48,0,0,1,3.61,324.33a81.47,81.47,0,0,1-109.56-35.26A81.47,81.47,0,0,1-70.69,179.51Zm.66,1.28a80,80,0,0,0-34.64,107.62A80,80,0,0,0,3,323.05,80,80,0,0,0,37.59,215.43,80,80,0,0,0-70,180.79Z" fill="url(#未命名漸層_33-43)"/><path d="M-66.19,188.29a71.6,71.6,0,0,1,96.28,31,71.6,71.6,0,0,1-31,96.28,71.6,71.6,0,0,1-96.27-31A71.59,71.59,0,0,1-66.19,188.29Zm.66,1.28a70.16,70.16,0,0,0-30.36,94.34A70.16,70.16,0,0,0-1.55,314.27a70.16,70.16,0,0,0,30.36-94.34A70.16,70.16,0,0,0-65.53,189.57Z" fill="url(#未命名漸層_33-44)"/><path d="M-61.68,197.07a61.71,61.71,0,0,1,83,26.71,61.71,61.71,0,0,1-26.71,83,61.72,61.72,0,0,1-83-26.71A61.72,61.72,0,0,1-61.68,197.07Zm.65,1.28a60.27,60.27,0,0,0-26.08,81A60.27,60.27,0,0,0-6.06,305.49,60.28,60.28,0,0,0,20,224.44,60.28,60.28,0,0,0-61,198.35Z" fill="url(#未命名漸層_33-45)"/><path d="M-57.18,205.84a51.85,51.85,0,0,1,69.71,22.44A51.85,51.85,0,0,1-9.9,298a51.86,51.86,0,0,1-69.72-22.44A51.85,51.85,0,0,1-57.18,205.84Zm.66,1.29A50.39,50.39,0,0,0-78.33,274.9a50.4,50.4,0,0,0,67.77,21.81,50.4,50.4,0,0,0,21.81-67.77A50.4,50.4,0,0,0-56.52,207.13Z" fill="url(#未命名漸層_33-46)"/><g opacity="0.58"><path d="M84.69-233.77a152.92,152.92,0,0,1,106.13,51.15A152.92,152.92,0,0,1,229.7-71.4,152.92,152.92,0,0,1,178.55,34.73,152.89,152.89,0,0,1,67.34,73.61,152.92,152.92,0,0,1-38.8,22.46,153,153,0,0,1-77.68-88.76,153,153,0,0,1-26.53-194.89,152.93,152.93,0,0,1,84.69-233.77ZM228.81-71.45A152,152,0,0,0,190.16-182,152.11,152.11,0,0,0,84.64-232.88,152.05,152.05,0,0,0-25.93-194.22,152.06,152.06,0,0,0-76.79-88.71,152.08,152.08,0,0,0-38.13,21.87,152,152,0,0,0,67.39,72.72,152.06,152.06,0,0,0,178,34.07,152,152,0,0,0,228.81-71.45Z" fill="url(#未命名漸層_33-47)"/><path d="M84.34-227.68a146.83,146.83,0,0,1,101.93,49.12A146.83,146.83,0,0,1,223.61-71.75,146.83,146.83,0,0,1,174.49,30.18,146.82,146.82,0,0,1,67.68,67.52,146.85,146.85,0,0,1-34.25,18.4,146.92,146.92,0,0,1-71.59-88.41,146.87,146.87,0,0,1-22.47-190.34,146.85,146.85,0,0,1,84.34-227.68ZM222.72-71.8A145.9,145.9,0,0,0,185.61-178,146,146,0,0,0,84.29-226.79,146,146,0,0,0-21.87-189.68,146,146,0,0,0-70.7-88.36,146,146,0,0,0-33.58,17.81,146,146,0,0,0,67.73,66.63,146,146,0,0,0,173.9,29.52,146,146,0,0,0,222.72-71.8Z" fill="url(#未命名漸層_33-48)"/><path d="M84-221.59a140.83,140.83,0,0,1,97.73,47.09,140.84,140.84,0,0,1,35.8,102.41,140.84,140.84,0,0,1-47.1,97.73A140.84,140.84,0,0,1,68,61.44,140.82,140.82,0,0,1-29.7,14.34,140.8,140.8,0,0,1-65.5-88.07a140.78,140.78,0,0,1,47.1-97.72A140.76,140.76,0,0,1,84-221.59ZM216.64-72.14A139.94,139.94,0,0,0,181.06-173.9,139.92,139.92,0,0,0,84-220.7,139.93,139.93,0,0,0-17.81-185.13,139.92,139.92,0,0,0-64.61-88,139.93,139.93,0,0,0-29,13.74,139.93,139.93,0,0,0,68.07,60.55,140,140,0,0,0,169.84,25,139.92,139.92,0,0,0,216.64-72.14Z" fill="url(#未命名漸層_33-49)"/><path d="M83.66-215.51a134.79,134.79,0,0,1,93.52,45.07,134.77,134.77,0,0,1,34.26,98,134.77,134.77,0,0,1-45.07,93.52,134.78,134.78,0,0,1-98,34.26A134.77,134.77,0,0,1-25.16,10.28a134.8,134.8,0,0,1-34.26-98,134.78,134.78,0,0,1,45.08-93.53A134.77,134.77,0,0,1,83.66-215.51Zm126.89,143a133.88,133.88,0,0,0-34-97.36,133.88,133.88,0,0,0-92.91-44.78,133.86,133.86,0,0,0-97.36,34A133.85,133.85,0,0,0-58.53-87.67a133.88,133.88,0,0,0,34,97.35A133.87,133.87,0,0,0,68.42,54.46a133.84,133.84,0,0,0,97.35-34A133.84,133.84,0,0,0,210.55-72.48Z" fill="url(#未命名漸層_33-50)"/><path d="M83.31-209.42a128.69,128.69,0,0,1,89.32,43,128.67,128.67,0,0,1,32.72,93.59,128.68,128.68,0,0,1-43,89.32,128.71,128.71,0,0,1-93.6,32.72,128.72,128.72,0,0,1-89.32-43,128.71,128.71,0,0,1-32.72-93.6A128.69,128.69,0,0,1-10.28-176.7,128.7,128.7,0,0,1,83.31-209.42ZM204.46-72.83A127.8,127.8,0,0,0,172-165.78a127.84,127.84,0,0,0-88.71-42.75A127.76,127.76,0,0,0-9.69-176a127.82,127.82,0,0,0-42.75,88.7,127.76,127.76,0,0,0,32.5,93,127.82,127.82,0,0,0,88.7,42.75,127.8,127.8,0,0,0,93-32.49A127.82,127.82,0,0,0,204.46-72.83Z" fill="url(#未命名漸層_33-51)"/><path d="M83-203.33a122.65,122.65,0,0,1,85.12,41,122.69,122.69,0,0,1,31.18,89.19,122.64,122.64,0,0,1-41,85.11,122.63,122.63,0,0,1-89.2,31.18,122.56,122.56,0,0,1-85.11-41A122.6,122.6,0,0,1-47.24-87a122.64,122.64,0,0,1,41-85.11A122.61,122.61,0,0,1,83-203.33ZM198.38-73.17a121.77,121.77,0,0,0-31-88.55,121.73,121.73,0,0,0-84.5-40.72A121.78,121.78,0,0,0-5.63-171.49,121.77,121.77,0,0,0-46.35-87a121.76,121.76,0,0,0,31,88.55A121.73,121.73,0,0,0,69.1,42.28a121.71,121.71,0,0,0,88.55-30.95A121.78,121.78,0,0,0,198.38-73.17Z" fill="url(#未命名漸層_33-52)"/><path d="M82.63-197.25a116.61,116.61,0,0,1,80.91,39,116.58,116.58,0,0,1,29.64,84.79,116.61,116.61,0,0,1-39,80.91A116.6,116.6,0,0,1,69.4,37.09a116.59,116.59,0,0,1-80.91-39A116.57,116.57,0,0,1-41.15-86.69a116.58,116.58,0,0,1,39-80.92A116.62,116.62,0,0,1,82.63-197.25ZM192.29-73.52a115.69,115.69,0,0,0-29.42-84.14,115.73,115.73,0,0,0-80.29-38.7A115.75,115.75,0,0,0-1.57-166.94a115.68,115.68,0,0,0-38.69,80.3A115.66,115.66,0,0,0-10.85-2.5a115.73,115.73,0,0,0,80.3,38.7A115.72,115.72,0,0,0,153.59,6.78,115.69,115.69,0,0,0,192.29-73.52Z" fill="url(#未命名漸層_33-53)"/><path d="M82.28-191.16a110.56,110.56,0,0,1,76.71,37,110.48,110.48,0,0,1,28.1,80.38,110.5,110.5,0,0,1-37,76.71A110.48,110.48,0,0,1,69.74,31,110.5,110.5,0,0,1-7-6a110.56,110.56,0,0,1-28.1-80.38,110.58,110.58,0,0,1,37-76.71A110.58,110.58,0,0,1,82.28-191.16ZM186.2-73.86a109.69,109.69,0,0,0-27.87-79.74,109.69,109.69,0,0,0-76.1-36.67A109.65,109.65,0,0,0,2.49-162.39,109.64,109.64,0,0,0-34.18-86.3,109.65,109.65,0,0,0-6.3-6.56,109.62,109.62,0,0,0,69.79,30.11,109.69,109.69,0,0,0,149.53,2.24,109.65,109.65,0,0,0,186.2-73.86Z" fill="url(#未命名漸層_33-54)"/><path d="M81.94-185.07a104.45,104.45,0,0,1,72.5,34.94,104.4,104.4,0,0,1,26.56,76,104.45,104.45,0,0,1-34.94,72.5,104.44,104.44,0,0,1-76,26.56A104.45,104.45,0,0,1-2.42-10,104.49,104.49,0,0,1-29-86,104.45,104.45,0,0,1,6-158.51,104.49,104.49,0,0,1,81.94-185.07ZM180.12-74.2a103.66,103.66,0,0,0-26.34-75.34,103.58,103.58,0,0,0-71.89-34.64A103.58,103.58,0,0,0,6.56-157.85,103.59,103.59,0,0,0-28.09-86,103.58,103.58,0,0,0-1.75-10.62,103.58,103.58,0,0,0,70.14,24,103.59,103.59,0,0,0,145.47-2.31,103.61,103.61,0,0,0,180.12-74.2Z" fill="url(#未命名漸層_33-55)"/><path d="M81.6-179a98.44,98.44,0,0,1,68.3,32.91,98.46,98.46,0,0,1,25,71.57A98.42,98.42,0,0,1,142-6.19a98.43,98.43,0,0,1-71.57,25A98.46,98.46,0,0,1,2.13-14.09a98.4,98.4,0,0,1-25-71.57A98.41,98.41,0,0,1,10-154,98.38,98.38,0,0,1,81.6-179ZM174-74.55a97.48,97.48,0,0,0-24.8-70.92,97.48,97.48,0,0,0-67.68-32.62A97.5,97.5,0,0,0,10.62-153.3,97.5,97.5,0,0,0-22-85.61,97.51,97.51,0,0,0,2.79-14.68,97.58,97.58,0,0,0,70.48,17.94a97.57,97.57,0,0,0,70.93-24.8A97.58,97.58,0,0,0,174-74.55Z" fill="url(#未命名漸層_33-56)"/><path d="M145.35-142a93.08,93.08,0,0,1-7.41,131.27A93.08,93.08,0,0,1,6.67-18.15a93.09,93.09,0,0,1,7.41-131.27A93.09,93.09,0,0,1,145.35-142Zm-.66.6a92.18,92.18,0,0,0-130-7.34,92.17,92.17,0,0,0-7.34,130,92.18,92.18,0,0,0,130,7.34A92.19,92.19,0,0,0,144.69-141.41Z" fill="url(#未命名漸層_33-57)"/><path d="M140.8-137.95a87,87,0,0,1-6.92,122.66A87,87,0,0,1,11.22-22.21a87,87,0,0,1,6.93-122.66A87,87,0,0,1,140.8-137.95Zm-.66.6a86.08,86.08,0,0,0-121.4-6.85A86.06,86.06,0,0,0,11.89-22.81a86.07,86.07,0,0,0,121.39,6.86A86.08,86.08,0,0,0,140.14-137.35Z" fill="url(#未命名漸層_33-58)"/><path d="M136.26-133.88a80.86,80.86,0,0,1-6.44,114,80.87,80.87,0,0,1-114-6.43,80.86,80.86,0,0,1,6.44-114A80.86,80.86,0,0,1,136.26-133.88Zm-.67.59A80,80,0,0,0,22.8-139.66,80,80,0,0,0,16.43-26.87,80,80,0,0,0,129.22-20.5,80,80,0,0,0,135.59-133.29Z" fill="url(#未命名漸層_33-59)"/></g><g style="mix-blend-mode:soft-light"><path d="M50.69,64.46a2.23,2.23,0,0,1-1.6.72,2.18,2.18,0,0,1-1.64-.63,2.23,2.23,0,0,1-.72-1.6,2.19,2.19,0,0,1,.63-1.64,2.23,2.23,0,0,1,1.6-.72,2.27,2.27,0,0,1,1.64.63,2.23,2.23,0,0,1,.72,1.6A2.25,2.25,0,0,1,50.69,64.46Z" fill="#898989"/><path d="M51.63,99a2.24,2.24,0,0,1-1.61.72,2.29,2.29,0,0,1-1.64-.63,2.22,2.22,0,0,1-.71-1.6,2.18,2.18,0,0,1,.63-1.64,2.21,2.21,0,0,1,1.6-.72,2.19,2.19,0,0,1,1.64.63,2.17,2.17,0,0,1,.71,1.6A2.22,2.22,0,0,1,51.63,99Z" fill="#9fa0a0"/><path d="M52.56,133.48a2.17,2.17,0,0,1-1.6.71,2.19,2.19,0,0,1-1.64-.63,2.17,2.17,0,0,1-.71-1.6,2.22,2.22,0,0,1,.62-1.64,2.31,2.31,0,0,1,3.25-.08,2.23,2.23,0,0,1,.71,1.6A2.19,2.19,0,0,1,52.56,133.48Z" fill="#b5b5b6"/><path d="M53.5,168a2.23,2.23,0,0,1-1.6.72,2.19,2.19,0,0,1-1.64-.63,2.3,2.3,0,0,1,1.51-4,2.25,2.25,0,0,1,1.64.63A2.28,2.28,0,0,1,53.5,168Z" fill="#c9caca"/><path d="M54.44,202.49a2.3,2.3,0,0,1-4-1.51,2.18,2.18,0,0,1,.63-1.64,2.21,2.21,0,0,1,1.6-.72,2.19,2.19,0,0,1,1.64.63,2.17,2.17,0,0,1,.71,1.6A2.22,2.22,0,0,1,54.44,202.49Z" fill="#fff"/><path d="M87.64,63.46a2.23,2.23,0,0,1-1.6.72,2.25,2.25,0,0,1-1.64-.63,2.23,2.23,0,0,1-.72-1.6,2.18,2.18,0,0,1,.63-1.64,2.21,2.21,0,0,1,1.6-.72,2.19,2.19,0,0,1,1.64.63,2.21,2.21,0,0,1,.72,1.6A2.27,2.27,0,0,1,87.64,63.46Z" fill="#898989"/><path d="M88.58,98a2.3,2.3,0,1,1-.09-3.24,2.15,2.15,0,0,1,.71,1.6A2.22,2.22,0,0,1,88.58,98Z" fill="#9fa0a0"/><path d="M89.51,132.47a2.21,2.21,0,0,1-1.6.72,2.19,2.19,0,0,1-1.64-.63,2.21,2.21,0,0,1-.72-1.6,2.27,2.27,0,0,1,.63-1.64,2.23,2.23,0,0,1,1.6-.72,2.25,2.25,0,0,1,1.64.63,2.23,2.23,0,0,1,.72,1.6A2.18,2.18,0,0,1,89.51,132.47Z" fill="#b5b5b6"/><path d="M90.45,167a2.23,2.23,0,0,1-1.6.72,2.31,2.31,0,0,1-2.36-2.24,2.17,2.17,0,0,1,.63-1.63,2.23,2.23,0,0,1,1.6-.72,2.19,2.19,0,0,1,1.64.63,2.21,2.21,0,0,1,.72,1.6A2.27,2.27,0,0,1,90.45,167Z" fill="#c9caca"/><path d="M91.39,201.49a2.23,2.23,0,0,1-1.61.71,2.29,2.29,0,0,1-1.72-3.87,2.17,2.17,0,0,1,1.6-.71,2.19,2.19,0,0,1,1.64.63,2.15,2.15,0,0,1,.71,1.6A2.22,2.22,0,0,1,91.39,201.49Z" fill="#fff"/><path d="M124.59,62.46a2.23,2.23,0,0,1-1.61.71,2.17,2.17,0,0,1-1.63-.63,2.21,2.21,0,0,1-.72-1.6,2.19,2.19,0,0,1,.63-1.64,2.17,2.17,0,0,1,1.6-.71,2.19,2.19,0,0,1,1.64.63,2.15,2.15,0,0,1,.71,1.6A2.22,2.22,0,0,1,124.59,62.46Z" fill="#898989"/><path d="M125.52,97a2.21,2.21,0,0,1-1.6.72,2.29,2.29,0,0,1-2.35-2.23,2.29,2.29,0,0,1,2.23-2.36,2.27,2.27,0,0,1,1.64.63,2.22,2.22,0,0,1,.71,1.6A2.18,2.18,0,0,1,125.52,97Z" fill="#9fa0a0"/><path d="M126.46,131.47a2.21,2.21,0,0,1-1.6.72,2.27,2.27,0,0,1-1.64-.63,2.23,2.23,0,0,1-.72-1.6,2.25,2.25,0,0,1,.63-1.64,2.23,2.23,0,0,1,1.6-.72,2.18,2.18,0,0,1,1.64.63,2.21,2.21,0,0,1,.72,1.6A2.19,2.19,0,0,1,126.46,131.47Z" fill="#b5b5b6"/><path d="M127.4,166a2.23,2.23,0,0,1-1.61.71,2.17,2.17,0,0,1-1.63-.63,2.21,2.21,0,0,1-.72-1.6,2.19,2.19,0,0,1,.63-1.64,2.17,2.17,0,0,1,1.6-.71,2.31,2.31,0,0,1,2.36,2.23A2.27,2.27,0,0,1,127.4,166Z" fill="#c9caca"/><path d="M128.33,200.48a2.21,2.21,0,0,1-1.6.72,2.29,2.29,0,0,1-1.72-3.87,2.21,2.21,0,0,1,1.6-.72,2.27,2.27,0,0,1,1.64.63,2.22,2.22,0,0,1,.71,1.6A2.18,2.18,0,0,1,128.33,200.48Z" fill="#fff"/><path d="M161.54,61.45a2.24,2.24,0,0,1-1.61.72,2.19,2.19,0,0,1-1.64-.63,2.22,2.22,0,0,1-.71-1.6,2.19,2.19,0,0,1,.63-1.64,2.21,2.21,0,0,1,1.6-.72,2.27,2.27,0,0,1,1.64.63,2.18,2.18,0,0,1,.71,1.6A2.21,2.21,0,0,1,161.54,61.45Z" fill="#898989"/><path d="M162.47,96a2.21,2.21,0,0,1-1.6.72,2.27,2.27,0,0,1-1.64-.63,2.18,2.18,0,0,1-.71-1.6,2.21,2.21,0,0,1,.62-1.64,2.24,2.24,0,0,1,1.61-.72,2.17,2.17,0,0,1,1.63.63,2.21,2.21,0,0,1,.72,1.6A2.19,2.19,0,0,1,162.47,96Z" fill="#9fa0a0"/><path d="M163.41,130.47a2.3,2.3,0,1,1-.09-3.24,2.21,2.21,0,0,1,.72,1.6A2.27,2.27,0,0,1,163.41,130.47Z" fill="#b5b5b6"/><path d="M164.35,165a2.24,2.24,0,0,1-1.61.72,2.17,2.17,0,0,1-1.63-.63,2.3,2.3,0,0,1,1.51-4,2.27,2.27,0,0,1,1.64.63,2.18,2.18,0,0,1,.71,1.6A2.21,2.21,0,0,1,164.35,165Z" fill="#c9caca"/><path d="M165.28,199.48a2.21,2.21,0,0,1-1.6.72,2.27,2.27,0,0,1-1.64-.63,2.18,2.18,0,0,1-.71-1.6,2.21,2.21,0,0,1,.62-1.64,2.24,2.24,0,0,1,1.61-.72,2.29,2.29,0,0,1,1.72,3.87Z" fill="#fff"/><path d="M198.48,60.45a2.21,2.21,0,0,1-1.6.72,2.27,2.27,0,0,1-1.64-.63,2.29,2.29,0,0,1-.08-3.24,2.21,2.21,0,0,1,1.6-.72,2.19,2.19,0,0,1,1.64.63,2.17,2.17,0,0,1,.71,1.6A2.19,2.19,0,0,1,198.48,60.45Z" fill="#898989"/><path d="M199.42,95a2.17,2.17,0,0,1-1.6.71,2.31,2.31,0,0,1-2.36-2.23,2.27,2.27,0,0,1,.63-1.64,2.29,2.29,0,0,1,3.24-.08,2.21,2.21,0,0,1,.72,1.6A2.19,2.19,0,0,1,199.42,95Z" fill="#9fa0a0"/><path d="M200.36,129.46a2.23,2.23,0,0,1-1.6.72,2.18,2.18,0,0,1-1.64-.63,2.21,2.21,0,0,1-.72-1.6,2.19,2.19,0,0,1,.63-1.64,2.23,2.23,0,0,1,1.6-.72,2.27,2.27,0,0,1,1.64.63,2.23,2.23,0,0,1,.72,1.6A2.25,2.25,0,0,1,200.36,129.46Z" fill="#b5b5b6"/><path d="M201.3,164a2.24,2.24,0,0,1-1.61.72,2.27,2.27,0,0,1-1.64-.63,2.22,2.22,0,0,1-.71-1.6,2.18,2.18,0,0,1,.63-1.64,2.21,2.21,0,0,1,1.6-.72,2.19,2.19,0,0,1,1.64.63,2.17,2.17,0,0,1,.71,1.6A2.22,2.22,0,0,1,201.3,164Z" fill="#c9caca"/><path d="M202.23,198.48a2.17,2.17,0,0,1-1.6.71,2.19,2.19,0,0,1-1.64-.63,2.21,2.21,0,0,1-.72-1.6,2.27,2.27,0,0,1,.63-1.64,2.29,2.29,0,0,1,3.24-.08,2.21,2.21,0,0,1,.72,1.6A2.19,2.19,0,0,1,202.23,198.48Z" fill="#fff"/><path d="M235.43,59.45a2.17,2.17,0,0,1-1.6.71,2.19,2.19,0,0,1-1.64-.63,2.17,2.17,0,0,1-.71-1.6,2.22,2.22,0,0,1,.62-1.64,2.3,2.3,0,1,1,3.33,3.16Z" fill="#898989"/><path d="M236.37,94a2.23,2.23,0,0,1-1.6.72,2.19,2.19,0,0,1-1.64-.63,2.21,2.21,0,0,1-.72-1.6A2.27,2.27,0,0,1,233,90.8a2.23,2.23,0,0,1,1.6-.72,2.25,2.25,0,0,1,1.64.63,2.23,2.23,0,0,1,.72,1.6A2.18,2.18,0,0,1,236.37,94Z" fill="#9fa0a0"/><path d="M237.31,128.46a2.3,2.3,0,0,1-4-1.51,2.18,2.18,0,0,1,.63-1.64,2.21,2.21,0,0,1,1.6-.72,2.19,2.19,0,0,1,1.64.63,2.17,2.17,0,0,1,.71,1.6A2.22,2.22,0,0,1,237.31,128.46Z" fill="#b5b5b6"/><path d="M238.24,163a2.17,2.17,0,0,1-1.6.71,2.19,2.19,0,0,1-1.64-.63,2.17,2.17,0,0,1-.71-1.6,2.27,2.27,0,0,1,2.23-2.35,2.29,2.29,0,0,1,1.72,3.87Z" fill="#c9caca"/><path d="M239.18,197.47a2.21,2.21,0,0,1-1.6.72,2.19,2.19,0,0,1-1.64-.63,2.21,2.21,0,0,1-.72-1.6,2.27,2.27,0,0,1,.63-1.64,2.23,2.23,0,0,1,1.6-.72,2.25,2.25,0,0,1,1.64.63,2.23,2.23,0,0,1,.72,1.6A2.18,2.18,0,0,1,239.18,197.47Z" fill="#fff"/></g><rect x="-162.14" y="39.28" width="265.99" height="23.03" transform="translate(-58.29 101.58) rotate(-180)" opacity="0.36" fill="url(#未命名漸層_47)"/><rect x="-181.58" y="80.61" width="265.99" height="23.03" transform="translate(-97.18 184.25) rotate(-180)" opacity="0.36" fill="url(#未命名漸層_47-2)"/><rect x="-129.19" y="124.09" width="265.99" height="23.03" transform="translate(7.6 271.22) rotate(-180)" opacity="0.36" fill="url(#未命名漸層_47-3)"/><rect x="-172.81" y="165.9" width="265.99" height="23.03" transform="translate(-79.64 354.84) rotate(-180)" opacity="0.36" fill="url(#未命名漸層_47-4)"/></g></g></g></g></svg>