<svg xmlns="http://www.w3.org/2000/svg" xmlns:xlink="http://www.w3.org/1999/xlink" viewBox="0 0 683 203.38"><defs><clipPath id="clip-path"><rect x="-683" width="1366" height="203.38" fill="none"/></clipPath><clipPath id="clip-path-2"><circle cx="580.8" cy="58.68" r="236.98" fill="none"/></clipPath><linearGradient id="未命名漸層_33" x1="-2008.15" y1="-2123.03" x2="-1700.28" y2="-2123.03" gradientTransform="matrix(0.74, 0.67, -0.67, 0.74, 554.6, 2733.87)" gradientUnits="userSpaceOnUse"><stop offset="0" stop-color="#ffdf5e"/><stop offset="0.3" stop-color="#83ccd2"/><stop offset="0.65" stop-color="#13426f"/><stop offset="1" stop-color="#002a5e"/></linearGradient><linearGradient id="未命名漸層_33-2" x1="-2002.05" y1="-2123.03" x2="-1706.38" y2="-2123.03" xlink:href="#未命名漸層_33"/><linearGradient id="未命名漸層_33-3" x1="-1995.96" y1="-2123.03" x2="-1712.48" y2="-2123.03" xlink:href="#未命名漸層_33"/><linearGradient id="未命名漸層_33-4" x1="-1989.86" y1="-2123.03" x2="-1718.57" y2="-2123.03" xlink:href="#未命名漸層_33"/><linearGradient id="未命名漸層_33-5" x1="-1983.76" y1="-2123.03" x2="-1724.67" y2="-2123.03" xlink:href="#未命名漸層_33"/><linearGradient id="未命名漸層_33-6" x1="-1977.67" y1="-2123.03" x2="-1730.77" y2="-2123.03" xlink:href="#未命名漸層_33"/><linearGradient id="未命名漸層_33-7" x1="-1971.57" y1="-2123.03" x2="-1736.87" y2="-2123.03" xlink:href="#未命名漸層_33"/><linearGradient id="未命名漸層_33-8" x1="-1965.47" y1="-2123.03" x2="-1742.96" y2="-2123.03" xlink:href="#未命名漸層_33"/><linearGradient id="未命名漸層_33-9" x1="-1959.38" y1="-2123.03" x2="-1749.06" y2="-2123.03" xlink:href="#未命名漸層_33"/><linearGradient id="未命名漸層_33-10" x1="-1953.28" y1="-2123.03" x2="-1755.16" y2="-2123.03" xlink:href="#未命名漸層_33"/><linearGradient id="未命名漸層_33-11" x1="-1947.18" y1="-2123.03" x2="-1761.25" y2="-2123.03" xlink:href="#未命名漸層_33"/><linearGradient id="未命名漸層_33-12" x1="-1941.09" y1="-2123.03" x2="-1767.35" y2="-2123.03" xlink:href="#未命名漸層_33"/><linearGradient id="未命名漸層_47" x1="888.51" y1="48.5" x2="639.82" y2="51.65" gradientUnits="userSpaceOnUse"><stop offset="0" stop-color="#ffdf5e"/><stop offset="0.3" stop-color="#83ccd2"/><stop offset="0.65" stop-color="#13426f"/><stop offset="1" stop-color="#002a5e" stop-opacity="0"/></linearGradient><linearGradient id="未命名漸層_47-2" x1="907.95" y1="89.84" x2="659.26" y2="92.99" xlink:href="#未命名漸層_47"/><linearGradient id="未命名漸層_47-3" x1="855.56" y1="133.32" x2="606.87" y2="136.47" xlink:href="#未命名漸層_47"/><linearGradient id="未命名漸層_47-4" x1="770.6" y1="67.93" x2="446.45" y2="72.04" xlink:href="#未命名漸層_47"/><linearGradient id="未命名漸層_47-5" x1="757.45" y1="109.79" x2="420.39" y2="114.06" xlink:href="#未命名漸層_47"/><linearGradient id="未命名漸層_33-13" x1="-810.92" y1="-2174.42" x2="-312.69" y2="-2174.42" gradientTransform="translate(1878.33 2171.31) rotate(-16.79)" xlink:href="#未命名漸層_33"/><linearGradient id="未命名漸層_33-14" x1="-801.05" y1="-2174.42" x2="-322.55" y2="-2174.42" gradientTransform="translate(1878.33 2171.31) rotate(-16.79)" xlink:href="#未命名漸層_33"/><linearGradient id="未命名漸層_33-15" x1="-791.19" y1="-2174.42" x2="-332.42" y2="-2174.42" gradientTransform="translate(1878.33 2171.31) rotate(-16.79)" xlink:href="#未命名漸層_33"/><linearGradient id="未命名漸層_33-16" x1="-781.32" y1="-2174.42" x2="-342.28" y2="-2174.42" gradientTransform="translate(1878.33 2171.31) rotate(-16.79)" xlink:href="#未命名漸層_33"/><linearGradient id="未命名漸層_33-17" x1="-771.45" y1="-2174.42" x2="-352.15" y2="-2174.42" gradientTransform="translate(1878.33 2171.31) rotate(-16.79)" xlink:href="#未命名漸層_33"/><linearGradient id="未命名漸層_33-18" x1="-761.59" y1="-2174.42" x2="-362.02" y2="-2174.42" gradientTransform="translate(1878.33 2171.31) rotate(-16.79)" xlink:href="#未命名漸層_33"/><linearGradient id="未命名漸層_33-19" x1="-751.72" y1="-2174.42" x2="-371.89" y2="-2174.42" gradientTransform="translate(1878.33 2171.31) rotate(-16.79)" xlink:href="#未命名漸層_33"/><linearGradient id="未命名漸層_33-20" x1="-741.85" y1="-2174.42" x2="-381.75" y2="-2174.42" gradientTransform="translate(1878.33 2171.31) rotate(-16.79)" xlink:href="#未命名漸層_33"/><linearGradient id="未命名漸層_33-21" x1="-731.99" y1="-2174.42" x2="-391.62" y2="-2174.42" gradientTransform="translate(1878.33 2171.31) rotate(-16.79)" xlink:href="#未命名漸層_33"/><linearGradient id="未命名漸層_33-22" x1="-722.12" y1="-2174.42" x2="-401.49" y2="-2174.42" gradientTransform="translate(1878.33 2171.31) rotate(-16.79)" xlink:href="#未命名漸層_33"/><linearGradient id="未命名漸層_33-23" x1="-712.25" y1="-2174.42" x2="-411.35" y2="-2174.42" gradientTransform="translate(1878.33 2171.31) rotate(-16.79)" xlink:href="#未命名漸層_33"/><linearGradient id="未命名漸層_33-24" x1="-702.39" y1="-2174.42" x2="-421.22" y2="-2174.42" gradientTransform="translate(1878.33 2171.31) rotate(-16.79)" xlink:href="#未命名漸層_33"/><linearGradient id="未命名漸層_33-25" x1="-692.52" y1="-2174.42" x2="-431.08" y2="-2174.42" gradientTransform="translate(1878.33 2171.31) rotate(-16.79)" xlink:href="#未命名漸層_33"/><linearGradient id="未命名漸層_33-26" x1="-682.65" y1="-2174.42" x2="-440.95" y2="-2174.42" gradientTransform="translate(1878.33 2171.31) rotate(-16.79)" xlink:href="#未命名漸層_33"/><linearGradient id="未命名漸層_33-27" x1="-672.79" y1="-2174.42" x2="-450.82" y2="-2174.42" gradientTransform="translate(1878.33 2171.31) rotate(-16.79)" xlink:href="#未命名漸層_33"/><linearGradient id="未命名漸層_33-28" x1="-662.92" y1="-2174.42" x2="-460.68" y2="-2174.42" gradientTransform="translate(1878.33 2171.31) rotate(-16.79)" xlink:href="#未命名漸層_33"/><linearGradient id="未命名漸層_33-29" x1="-653.05" y1="-2174.42" x2="-470.55" y2="-2174.42" gradientTransform="translate(1878.33 2171.31) rotate(-16.79)" xlink:href="#未命名漸層_33"/><linearGradient id="未命名漸層_33-30" x1="-643.19" y1="-2174.42" x2="-480.42" y2="-2174.42" gradientTransform="translate(1878.33 2171.31) rotate(-16.79)" xlink:href="#未命名漸層_33"/><linearGradient id="未命名漸層_33-31" x1="-633.32" y1="-2174.42" x2="-490.28" y2="-2174.42" gradientTransform="translate(1878.33 2171.31) rotate(-16.79)" xlink:href="#未命名漸層_33"/><linearGradient id="未命名漸層_33-32" x1="-623.45" y1="-2174.42" x2="-500.15" y2="-2174.42" gradientTransform="translate(1878.33 2171.31) rotate(-16.79)" xlink:href="#未命名漸層_33"/><linearGradient id="未命名漸層_33-33" x1="-613.59" y1="-2174.42" x2="-510.02" y2="-2174.42" gradientTransform="translate(1878.33 2171.31) rotate(-16.79)" xlink:href="#未命名漸層_33"/><clipPath id="clip-path-3"><rect x="-683" y="-287.36" width="1366" height="203.38" fill="none"/></clipPath><clipPath id="clip-path-4"><circle cx="580.8" cy="-228.68" r="236.98" fill="none"/></clipPath><linearGradient id="未命名漸層_33-34" x1="-727.9" y1="-2449.52" x2="-229.67" y2="-2449.52" gradientTransform="translate(1878.33 2171.31) rotate(-16.79)" xlink:href="#未命名漸層_33"/><linearGradient id="未命名漸層_33-35" x1="-718.04" y1="-2449.52" x2="-239.53" y2="-2449.52" gradientTransform="translate(1878.33 2171.31) rotate(-16.79)" xlink:href="#未命名漸層_33"/><linearGradient id="未命名漸層_33-36" x1="-708.17" y1="-2449.52" x2="-249.4" y2="-2449.52" gradientTransform="translate(1878.33 2171.31) rotate(-16.79)" xlink:href="#未命名漸層_33"/><linearGradient id="未命名漸層_33-37" x1="-698.3" y1="-2449.52" x2="-259.27" y2="-2449.52" gradientTransform="translate(1878.33 2171.31) rotate(-16.79)" xlink:href="#未命名漸層_33"/><linearGradient id="未命名漸層_33-38" x1="-688.44" y1="-2449.52" x2="-269.13" y2="-2449.52" gradientTransform="translate(1878.33 2171.31) rotate(-16.79)" xlink:href="#未命名漸層_33"/><linearGradient id="未命名漸層_33-39" x1="-678.57" y1="-2449.52" x2="-279" y2="-2449.52" gradientTransform="translate(1878.33 2171.31) rotate(-16.79)" xlink:href="#未命名漸層_33"/><linearGradient id="未命名漸層_33-40" x1="-668.7" y1="-2449.52" x2="-288.87" y2="-2449.52" gradientTransform="translate(1878.33 2171.31) rotate(-16.79)" xlink:href="#未命名漸層_33"/><linearGradient id="未命名漸層_33-41" x1="-658.84" y1="-2449.52" x2="-298.73" y2="-2449.52" gradientTransform="translate(1878.33 2171.31) rotate(-16.79)" xlink:href="#未命名漸層_33"/><linearGradient id="未命名漸層_33-42" x1="-648.97" y1="-2449.52" x2="-308.6" y2="-2449.52" gradientTransform="translate(1878.33 2171.31) rotate(-16.79)" xlink:href="#未命名漸層_33"/><linearGradient id="未命名漸層_33-43" x1="-639.1" y1="-2449.52" x2="-318.47" y2="-2449.52" gradientTransform="translate(1878.33 2171.31) rotate(-16.79)" xlink:href="#未命名漸層_33"/><linearGradient id="未命名漸層_33-44" x1="-629.24" y1="-2449.52" x2="-328.33" y2="-2449.52" gradientTransform="translate(1878.33 2171.31) rotate(-16.79)" xlink:href="#未命名漸層_33"/><linearGradient id="未命名漸層_33-45" x1="-619.37" y1="-2449.52" x2="-338.2" y2="-2449.52" gradientTransform="translate(1878.33 2171.31) rotate(-16.79)" xlink:href="#未命名漸層_33"/><linearGradient id="未命名漸層_33-46" x1="-609.5" y1="-2449.52" x2="-348.07" y2="-2449.52" gradientTransform="translate(1878.33 2171.31) rotate(-16.79)" xlink:href="#未命名漸層_33"/><linearGradient id="未命名漸層_33-47" x1="-599.64" y1="-2449.52" x2="-357.93" y2="-2449.52" gradientTransform="translate(1878.33 2171.31) rotate(-16.79)" xlink:href="#未命名漸層_33"/><linearGradient id="未命名漸層_33-48" x1="-589.77" y1="-2449.52" x2="-367.8" y2="-2449.52" gradientTransform="translate(1878.33 2171.31) rotate(-16.79)" xlink:href="#未命名漸層_33"/><linearGradient id="未命名漸層_33-49" x1="-579.9" y1="-2449.52" x2="-377.67" y2="-2449.52" gradientTransform="translate(1878.33 2171.31) rotate(-16.79)" xlink:href="#未命名漸層_33"/><linearGradient id="未命名漸層_33-50" x1="-570.04" y1="-2449.52" x2="-387.53" y2="-2449.52" gradientTransform="translate(1878.33 2171.31) rotate(-16.79)" xlink:href="#未命名漸層_33"/><linearGradient id="未命名漸層_33-51" x1="-560.17" y1="-2449.52" x2="-397.4" y2="-2449.52" gradientTransform="translate(1878.33 2171.31) rotate(-16.79)" xlink:href="#未命名漸層_33"/><linearGradient id="未命名漸層_33-52" x1="-550.3" y1="-2449.52" x2="-407.27" y2="-2449.52" gradientTransform="translate(1878.33 2171.31) rotate(-16.79)" xlink:href="#未命名漸層_33"/><linearGradient id="未命名漸層_33-53" x1="-540.44" y1="-2449.52" x2="-417.13" y2="-2449.52" gradientTransform="translate(1878.33 2171.31) rotate(-16.79)" xlink:href="#未命名漸層_33"/><linearGradient id="未命名漸層_33-54" x1="-530.57" y1="-2449.52" x2="-427" y2="-2449.52" gradientTransform="translate(1878.33 2171.31) rotate(-16.79)" xlink:href="#未命名漸層_33"/><linearGradient id="未命名漸層_33-55" x1="-520.7" y1="-2449.52" x2="-436.87" y2="-2449.52" gradientTransform="translate(1878.33 2171.31) rotate(-16.79)" xlink:href="#未命名漸層_33"/></defs><g id="_1-4圖表" data-name="1-4圖表"><g clip-path="url(#clip-path)"><g clip-path="url(#clip-path-2)"><g opacity="0.51"><path d="M500.05,29.86A152.94,152.94,0,0,1,449.39-76.51a152.94,152.94,0,0,1,39.4-111A153,153,0,0,1,595.16-238.2a153,153,0,0,1,111,39.4A153,153,0,0,1,756.85-92.43a152.94,152.94,0,0,1-39.4,111A153,153,0,0,1,611.08,69.26,153,153,0,0,1,500.05,29.86Zm205.55-228a152.07,152.07,0,0,0-110.39-39.17,152.11,152.11,0,0,0-105.76,50.36A152.07,152.07,0,0,0,450.28-76.56,152.09,152.09,0,0,0,500.64,29.2,152.09,152.09,0,0,0,611,68.37,152.07,152.07,0,0,0,716.79,18,152.07,152.07,0,0,0,756-92.38,152,152,0,0,0,705.6-198.14Z" fill="url(#未命名漸層_33)"/><path d="M504.13,25.33A146.85,146.85,0,0,1,455.48-76.83a146.88,146.88,0,0,1,37.84-106.63,146.85,146.85,0,0,1,102.16-48.65,146.87,146.87,0,0,1,106.63,37.84A146.85,146.85,0,0,1,750.76-92.11,146.88,146.88,0,0,1,712.92,14.52,146.85,146.85,0,0,1,610.76,63.17,146.88,146.88,0,0,1,504.13,25.33ZM701.52-193.61a146,146,0,0,0-106-37.61A146,146,0,0,0,494-182.86a146,146,0,0,0-37.61,106A146,146,0,0,0,504.73,24.67a146,146,0,0,0,106,37.61A146,146,0,0,0,712.26,13.93a146,146,0,0,0,37.61-106A146,146,0,0,0,701.52-193.61Z" fill="url(#未命名漸層_33-2)"/><path d="M508.21,20.8a140.8,140.8,0,0,1-46.64-97.94,140.81,140.81,0,0,1,36.28-102.24A140.82,140.82,0,0,1,595.79-226,140.81,140.81,0,0,1,698-189.74,140.8,140.8,0,0,1,744.67-91.8,140.77,140.77,0,0,1,708.39,10.44a140.8,140.8,0,0,1-97.94,46.64A140.81,140.81,0,0,1,508.21,20.8ZM697.43-189.08a139.94,139.94,0,0,0-101.59-36,140,140,0,0,0-97.33,46.35A139.94,139.94,0,0,0,462.46-77.19a140,140,0,0,0,46.35,97.33A139.9,139.9,0,0,0,610.4,56.19,139.86,139.86,0,0,0,707.73,9.84a139.9,139.9,0,0,0,36-101.59A139.88,139.88,0,0,0,697.43-189.08Z" fill="url(#未命名漸層_33-3)"/><path d="M512.29,16.28a134.76,134.76,0,0,1-44.63-93.74,134.78,134.78,0,0,1,34.72-97.84,134.74,134.74,0,0,1,93.73-44.63A134.78,134.78,0,0,1,694-185.21a134.74,134.74,0,0,1,44.63,93.73A134.73,134.73,0,0,1,703.87,6.36,134.74,134.74,0,0,1,610.13,51,134.73,134.73,0,0,1,512.29,16.28ZM693.35-184.55A133.87,133.87,0,0,0,596.16-219,133.87,133.87,0,0,0,503-174.7a133.88,133.88,0,0,0-34.49,97.2,133.87,133.87,0,0,0,44.34,93.11,133.88,133.88,0,0,0,97.2,34.49A133.87,133.87,0,0,0,703.2,5.76a133.83,133.83,0,0,0,34.49-97.2A133.83,133.83,0,0,0,693.35-184.55Z" fill="url(#未命名漸層_33-4)"/><path d="M516.38,11.75a128.72,128.72,0,0,1-42.63-89.52,128.65,128.65,0,0,1,33.16-93.44,128.7,128.7,0,0,1,89.51-42.63,128.7,128.7,0,0,1,93.45,33.15A128.72,128.72,0,0,1,732.5-91.17,128.75,128.75,0,0,1,699.34,2.28,128.65,128.65,0,0,1,609.82,44.9,128.68,128.68,0,0,1,516.38,11.75ZM689.27-180a127.8,127.8,0,0,0-92.8-32.93,127.78,127.78,0,0,0-88.9,42.33,127.81,127.81,0,0,0-32.93,92.8A127.87,127.87,0,0,0,517,11.09,127.81,127.81,0,0,0,609.77,44,127.81,127.81,0,0,0,698.68,1.68a127.84,127.84,0,0,0,32.93-92.8A127.84,127.84,0,0,0,689.27-180Z" fill="url(#未命名漸層_33-5)"/><path d="M520.46,7.22a122.63,122.63,0,0,1-40.62-85.31,122.6,122.6,0,0,1,31.59-89,122.63,122.63,0,0,1,85.31-40.62,122.6,122.6,0,0,1,89,31.59,122.64,122.64,0,0,1,40.63,85.31,122.65,122.65,0,0,1-31.6,89A122.68,122.68,0,0,1,609.5,38.82,122.65,122.65,0,0,1,520.46,7.22ZM685.19-175.5a121.73,121.73,0,0,0-88.4-31.36,121.74,121.74,0,0,0-84.69,40.32,121.7,121.7,0,0,0-31.37,88.41A121.73,121.73,0,0,0,521.06,6.56a121.76,121.76,0,0,0,88.4,31.37A121.81,121.81,0,0,0,694.15-2.4a121.79,121.79,0,0,0,31.37-88.41A121.81,121.81,0,0,0,685.19-175.5Z" fill="url(#未命名漸層_33-6)"/><path d="M524.54,2.69A116.58,116.58,0,0,1,485.93-78.4,116.58,116.58,0,0,1,516-163a116.63,116.63,0,0,1,81.09-38.62,116.58,116.58,0,0,1,84.65,30,116.59,116.59,0,0,1,38.62,81.09,116.58,116.58,0,0,1-30,84.65,116.59,116.59,0,0,1-81.09,38.62A116.58,116.58,0,0,1,524.54,2.69ZM681.11-171a115.75,115.75,0,0,0-84-29.81,115.69,115.69,0,0,0-80.48,38.33,115.68,115.68,0,0,0-29.8,84A115.64,115.64,0,0,0,525.14,2a115.73,115.73,0,0,0,84,29.81A115.69,115.69,0,0,0,689.62-6.49a115.67,115.67,0,0,0,29.81-84A115.72,115.72,0,0,0,681.11-171Z" fill="url(#未命名漸層_33-7)"/><path d="M528.62-1.84A110.55,110.55,0,0,1,492-78.72,110.55,110.55,0,0,1,520.49-159a110.55,110.55,0,0,1,76.88-36.61,110.55,110.55,0,0,1,80.25,28.48,110.55,110.55,0,0,1,36.61,76.88A110.51,110.51,0,0,1,685.75-10a110.55,110.55,0,0,1-76.88,36.61A110.58,110.58,0,0,1,528.62-1.84ZM677-166.44a109.64,109.64,0,0,0-79.6-28.25,109.66,109.66,0,0,0-76.27,36.32A109.66,109.66,0,0,0,492.9-78.76,109.68,109.68,0,0,0,529.22-2.5a109.68,109.68,0,0,0,79.61,28.25,109.64,109.64,0,0,0,76.26-36.32,109.66,109.66,0,0,0,28.25-79.61A109.62,109.62,0,0,0,677-166.44Z" fill="url(#未命名漸層_33-8)"/><path d="M532.71-6.37A104.41,104.41,0,0,1,498.1-79,104.47,104.47,0,0,1,525-154.88a104.43,104.43,0,0,1,72.67-34.61,104.49,104.49,0,0,1,75.85,26.92,104.46,104.46,0,0,1,34.6,72.66A104.53,104.53,0,0,1,681.23-14a104.48,104.48,0,0,1-72.67,34.6A104.47,104.47,0,0,1,532.71-6.37ZM672.94-161.91a103.58,103.58,0,0,0-75.21-26.69,103.61,103.61,0,0,0-72.05,34.31A103.6,103.6,0,0,0,499-79.08,103.61,103.61,0,0,0,533.3-7a103.6,103.6,0,0,0,75.21,26.69,103.59,103.59,0,0,0,72-34.31,103.6,103.6,0,0,0,26.69-75.21A103.57,103.57,0,0,0,672.94-161.91Z" fill="url(#未命名漸層_33-9)"/><path d="M536.79-10.89a98.44,98.44,0,0,1-32.6-68.46,98.4,98.4,0,0,1,25.36-71.45A98.38,98.38,0,0,1,598-183.4,98.41,98.41,0,0,1,669.45-158a98.4,98.4,0,0,1,32.6,68.46A98.39,98.39,0,0,1,676.7-18.14a98.4,98.4,0,0,1-68.46,32.6A98.43,98.43,0,0,1,536.79-10.89ZM668.86-157.38a97.52,97.52,0,0,0-70.81-25.13,97.57,97.57,0,0,0-67.84,32.3,97.57,97.57,0,0,0-25.13,70.82,97.52,97.52,0,0,0,32.31,67.83A97.49,97.49,0,0,0,608.2,13.57,97.55,97.55,0,0,0,676-18.73a97.56,97.56,0,0,0,25.12-70.81A97.53,97.53,0,0,0,668.86-157.38Z" fill="url(#未命名漸層_33-10)"/><path d="M540.87-15.42a93.08,93.08,0,0,1-6.8-131.3,93.08,93.08,0,0,1,131.3-6.8,93.07,93.07,0,0,1,6.8,131.3A93.08,93.08,0,0,1,540.87-15.42ZM664.78-152.85a92.17,92.17,0,0,0-130,6.73,92.17,92.17,0,0,0,6.73,130,92.18,92.18,0,0,0,130-6.74A92.18,92.18,0,0,0,664.78-152.85Z" fill="url(#未命名漸層_33-11)"/><path d="M545-19.95a87,87,0,0,1-6.35-122.69A87,87,0,0,1,661.29-149,87,87,0,0,1,667.64-26.3,87,87,0,0,1,545-19.95ZM660.69-148.33A86.08,86.08,0,0,0,539.26-142a86.08,86.08,0,0,0,6.29,121.43A86.08,86.08,0,0,0,667-26.9,86.08,86.08,0,0,0,660.69-148.33Z" fill="url(#未命名漸層_33-12)"/></g><rect x="574.91" y="39.28" width="265.99" height="23.03" opacity="0.36" fill="url(#未命名漸層_47)"/><rect x="594.35" y="80.61" width="265.99" height="23.03" opacity="0.36" fill="url(#未命名漸層_47-2)"/><rect x="541.96" y="124.09" width="265.99" height="23.03" opacity="0.36" fill="url(#未命名漸層_47-3)"/><rect x="361.81" y="58.68" width="346.76" height="24.47" opacity="0.36" fill="url(#未命名漸層_47-4)"/><rect x="332.36" y="101.69" width="360.61" height="22.4" opacity="0.36" fill="url(#未命名漸層_47-5)"/><g opacity="0.65"><path d="M784.61,490.31a249.11,249.11,0,0,1-292-355.82A249.12,249.12,0,0,1,932,369.35,247.49,247.49,0,0,1,784.61,490.31ZM640.4,14.91a247.67,247.67,0,0,0-44.86,455.44A247.68,247.68,0,0,0,949.3,180,247.67,247.67,0,0,0,640.4,14.91Z" fill="url(#未命名漸層_33-13)"/><path d="M781.75,480.87A239.26,239.26,0,0,1,501.29,139.14a239.25,239.25,0,0,1,422,225.56A237.71,237.71,0,0,1,781.75,480.87ZM643.26,24.35a237.82,237.82,0,0,0-43.07,437.3A237.81,237.81,0,0,0,939.86,182.89,237.8,237.8,0,0,0,643.26,24.35Z" fill="url(#未命名漸層_33-14)"/><path d="M778.88,471.43A229.38,229.38,0,0,1,510,143.79,229.38,229.38,0,1,1,914.59,360.05,227.88,227.88,0,0,1,778.88,471.43ZM646.13,33.79A227.95,227.95,0,0,0,604.84,453a227.95,227.95,0,0,0,325.58-267.2,227.94,227.94,0,0,0-284.29-152Z" fill="url(#未命名漸層_33-15)"/><path d="M776,462A219.51,219.51,0,0,1,518.7,148.44,219.52,219.52,0,1,1,776,462ZM649,43.24a218.07,218.07,0,0,0-39.49,401A218.08,218.08,0,0,0,815.09,59.59,216.67,216.67,0,0,0,649,43.24Z" fill="url(#未命名漸層_33-16)"/><path d="M773.15,452.54A209.65,209.65,0,0,1,527.4,153.09,209.65,209.65,0,1,1,773.15,452.54ZM651.85,52.68a208.2,208.2,0,0,0-37.7,382.86A208.2,208.2,0,1,0,810.44,68.3,206.81,206.81,0,0,0,651.85,52.68Z" fill="url(#未命名漸層_33-17)"/><path d="M770.29,443.1a199.78,199.78,0,1,1-116-382.36A199.78,199.78,0,0,1,888.49,346.1,198.48,198.48,0,0,1,770.29,443.1Zm-115.57-381A198.35,198.35,0,1,0,805.79,77,197.07,197.07,0,0,0,654.72,62.12Z" fill="url(#未命名漸層_33-18)"/><path d="M767.43,433.66A189.92,189.92,0,1,1,657.16,70.18,189.92,189.92,0,1,1,767.43,433.66ZM657.58,71.56A188.47,188.47,0,1,0,801.14,85.7,187.27,187.27,0,0,0,657.58,71.56Z" fill="url(#未命名漸層_33-19)"/><path d="M764.56,424.22A180.05,180.05,0,0,1,660,79.62a180.05,180.05,0,0,1,104.53,344.6ZM660.45,81a178.61,178.61,0,1,0,136,13.4A177.46,177.46,0,0,0,660.45,81Z" fill="url(#未命名漸層_33-20)"/><path d="M761.7,414.78a170.2,170.2,0,1,1,100.68-82.64A169.1,169.1,0,0,1,761.7,414.78ZM663.31,90.44A168.74,168.74,0,1,0,791.84,103.1,167.65,167.65,0,0,0,663.31,90.44Z" fill="url(#未命名漸層_33-21)"/><path d="M758.83,405.33a160.32,160.32,0,1,1,94.85-77.84A159.25,159.25,0,0,1,758.83,405.33ZM666.17,99.89a158.86,158.86,0,1,0,121,11.91A157.76,157.76,0,0,0,666.17,99.89Z" fill="url(#未命名漸層_33-22)"/><path d="M756,395.89C676.58,420,592.4,375,568.32,295.59S589.23,132,668.62,108s163.56,20.91,187.65,100.3S835.36,371.81,756,395.89ZM669,109.33c-78.63,23.85-123.19,107.22-99.34,185.85s107.22,123.18,185.85,99.33,123.19-107.22,99.34-185.85S747.66,85.48,669,109.33Z" fill="url(#未命名漸層_33-23)"/><path d="M753.1,386.45c-74.18,22.5-152.83-19.54-175.34-93.72s19.54-152.84,93.72-175.34,152.84,19.54,175.35,93.72S827.28,364,753.1,386.45ZM671.9,118.77c-73.42,22.27-115,100.12-92.76,173.54s100.13,115,173.55,92.76,115-100.12,92.75-173.54S745.32,96.5,671.9,118.77Z" fill="url(#未命名漸層_33-24)"/><path d="M750.24,377c-69,20.92-142.11-18.17-163-87.14s18.16-142.12,87.14-163S816.46,145,837.38,214,819.21,356.09,750.24,377Zm-75.47-248.8a129.41,129.41,0,0,0-86.18,161.24c20.69,68.21,93,106.87,161.23,86.18A129.42,129.42,0,0,0,836,214.39C815.31,146.18,743,107.52,674.77,128.21Z" fill="url(#未命名漸層_33-25)"/><path d="M747.38,367.57a120.85,120.85,0,1,1,80.56-150.73A121,121,0,0,1,747.38,367.57ZM677.63,137.65a119.41,119.41,0,1,0,148.93,79.61A119.54,119.54,0,0,0,677.63,137.65Z" fill="url(#未命名漸層_33-26)"/><path d="M744.51,358.13a111,111,0,1,1,74-138.43A111.11,111.11,0,0,1,744.51,358.13Zm-64-211a109.55,109.55,0,1,0,136.62,73A109.67,109.67,0,0,0,680.5,147.09Z" fill="url(#未命名漸層_33-27)"/><path d="M741.65,348.68a101.11,101.11,0,1,1,67.41-126.11A101.23,101.23,0,0,1,741.65,348.68ZM683.36,156.54A99.67,99.67,0,1,0,807.68,223,99.78,99.78,0,0,0,683.36,156.54Z" fill="url(#未命名漸層_33-28)"/><path d="M738.78,339.24a91.25,91.25,0,1,1,60.84-113.81A91.35,91.35,0,0,1,738.78,339.24ZM686.22,166a89.81,89.81,0,1,0,112,59.87A89.92,89.92,0,0,0,686.22,166Z" fill="url(#未命名漸層_33-29)"/><path d="M735.92,329.8a81.38,81.38,0,1,1,54.25-101.51A81.48,81.48,0,0,1,735.92,329.8ZM689.09,175.42a79.94,79.94,0,1,0,99.7,53.29A80,80,0,0,0,689.09,175.42Z" fill="url(#未命名漸層_33-30)"/><path d="M733.06,320.36a71.52,71.52,0,1,1,47.67-89.2A71.59,71.59,0,0,1,733.06,320.36ZM692,184.86a70.08,70.08,0,1,0,87.4,46.72A70.16,70.16,0,0,0,692,184.86Z" fill="url(#未命名漸層_33-31)"/><path d="M730.19,310.92a61.65,61.65,0,1,1,41.1-76.9A61.72,61.72,0,0,1,730.19,310.92ZM694.82,194.3a60.21,60.21,0,1,0,75.09,40.14A60.28,60.28,0,0,0,694.82,194.3Z" fill="url(#未命名漸層_33-32)"/><path d="M727.33,301.48a51.79,51.79,0,1,1,34.52-64.59A51.85,51.85,0,0,1,727.33,301.48Zm-29.65-97.74a50.34,50.34,0,1,0,62.79,33.57A50.4,50.4,0,0,0,697.68,203.74Z" fill="url(#未命名漸層_33-33)"/></g></g></g><g clip-path="url(#clip-path-3)"><g clip-path="url(#clip-path-4)"><g opacity="0.65"><path d="M784.61,203a247.51,247.51,0,0,1-189.75-18.68,247.52,247.52,0,0,1-121-147.39,247.51,247.51,0,0,1,18.69-189.75A247.52,247.52,0,0,1,640-273.83a247.51,247.51,0,0,1,189.75,18.69A247.47,247.47,0,0,1,950.68-107.75,247.48,247.48,0,0,1,932,82,247.45,247.45,0,0,1,784.61,203ZM640.4-272.45A246.11,246.11,0,0,0,493.86-152.19,246.1,246.1,0,0,0,475.28,36.46,246.06,246.06,0,0,0,595.54,183a246,246,0,0,0,188.65,18.58A246,246,0,0,0,930.72,81.31,246,246,0,0,0,949.3-107.33,246.06,246.06,0,0,0,829.05-253.87,246.11,246.11,0,0,0,640.4-272.45Z" fill="url(#未命名漸層_33-34)"/><path d="M781.75,193.51a237.68,237.68,0,0,1-182.24-17.95A237.64,237.64,0,0,1,483.35,34a237.66,237.66,0,0,1,17.94-182.23A237.75,237.75,0,0,1,642.84-264.39a237.73,237.73,0,0,1,182.24,17.95A237.7,237.7,0,0,1,941.24-104.89,237.7,237.7,0,0,1,923.3,77.34,237.71,237.71,0,0,1,781.75,193.51ZM643.26-263A236.26,236.26,0,0,0,502.57-147.54,236.23,236.23,0,0,0,484.73,33.6,236.24,236.24,0,0,0,600.19,174.29a236.28,236.28,0,0,0,181.14,17.84A236.26,236.26,0,0,0,922,76.66a236.21,236.21,0,0,0,17.84-181.13A236.26,236.26,0,0,0,824.4-245.17,236.32,236.32,0,0,0,643.26-263Z" fill="url(#未命名漸層_33-35)"/><path d="M778.88,184.07a227.89,227.89,0,0,1-174.72-17.21A227.87,227.87,0,0,1,492.79,31.15,227.84,227.84,0,0,1,510-143.57,227.84,227.84,0,0,1,645.71-254.94a227.85,227.85,0,0,1,174.71,17.2A227.88,227.88,0,0,1,931.8-102,227.83,227.83,0,0,1,914.59,72.69,227.88,227.88,0,0,1,778.88,184.07ZM646.13-253.56A226.43,226.43,0,0,0,511.27-142.89a226.43,226.43,0,0,0-17.1,173.62A226.43,226.43,0,0,0,604.84,165.59a226.48,226.48,0,0,0,173.62,17.1A226.44,226.44,0,0,0,913.32,72a226.43,226.43,0,0,0,17.1-173.62A226.42,226.42,0,0,0,819.74-236.46,226.36,226.36,0,0,0,646.13-253.56Z" fill="url(#未命名漸層_33-36)"/><path d="M776,174.63a218.08,218.08,0,0,1-167.2-16.47A218,218,0,0,1,502.23,28.29,218.11,218.11,0,0,1,518.7-138.92,218.07,218.07,0,0,1,648.57-245.5,218,218,0,0,1,815.77-229,218.08,218.08,0,0,1,922.36-99.16,218.08,218.08,0,0,1,905.89,68,218.08,218.08,0,0,1,776,174.63ZM649-244.12A216.66,216.66,0,0,0,520-138.24,216.66,216.66,0,0,0,503.61,27.87a216.64,216.64,0,0,0,105.89,129,216.63,216.63,0,0,0,166.1,16.36,216.67,216.67,0,0,0,129-105.89A216.63,216.63,0,0,0,921-98.74a216.64,216.64,0,0,0-105.89-129A216.63,216.63,0,0,0,649-244.12Z" fill="url(#未命名漸層_33-37)"/><path d="M773.15,165.19a208.28,208.28,0,0,1-159.68-15.73,208.3,208.3,0,0,1-101.8-124A208.28,208.28,0,0,1,527.4-134.26a208.31,208.31,0,0,1,124-101.8,208.26,208.26,0,0,1,159.69,15.73,208.25,208.25,0,0,1,101.8,124A208.3,208.3,0,0,1,897.19,63.39,208.3,208.3,0,0,1,773.15,165.19ZM651.85-234.68A206.85,206.85,0,0,0,528.67-133.59,206.85,206.85,0,0,0,513.05,25a206.89,206.89,0,0,0,101.1,123.19,206.87,206.87,0,0,0,158.58,15.62A206.89,206.89,0,0,0,895.92,62.71,206.85,206.85,0,0,0,911.54-95.88a206.87,206.87,0,0,0-101.1-123.18A206.85,206.85,0,0,0,651.85-234.68Z" fill="url(#未命名漸層_33-38)"/><path d="M770.29,155.74a198.5,198.5,0,0,1-152.17-15,198.49,198.49,0,0,1-97-118.2,198.45,198.45,0,0,1,15-152.17,198.46,198.46,0,0,1,118.2-97,198.45,198.45,0,0,1,152.17,15,198.5,198.5,0,0,1,97,118.2,198.5,198.5,0,0,1-15,152.17A198.48,198.48,0,0,1,770.29,155.74Zm-115.57-381a197.05,197.05,0,0,0-117.35,96.31A197,197,0,0,0,522.49,22.14,197,197,0,0,0,618.8,139.48a197,197,0,0,0,151.07,14.88,197.07,197.07,0,0,0,117.35-96.3A197.1,197.1,0,0,0,902.1-93a197.06,197.06,0,0,0-96.31-117.35A197,197,0,0,0,654.72-225.24Z" fill="url(#未命名漸層_33-39)"/><path d="M767.43,146.3a188.68,188.68,0,0,1-144.66-14.24A188.71,188.71,0,0,1,530.55,19.69,188.7,188.7,0,0,1,544.8-125a188.69,188.69,0,0,1,112.36-92.22,188.72,188.72,0,0,1,144.66,14.25A188.64,188.64,0,0,1,894-90.57,188.68,188.68,0,0,1,879.79,54.09,188.67,188.67,0,0,1,767.43,146.3ZM657.58-215.8a187.28,187.28,0,0,0-111.51,91.52A187.22,187.22,0,0,0,531.94,19.28a187.21,187.21,0,0,0,91.51,111.5A187.23,187.23,0,0,0,767,144.92a187.21,187.21,0,0,0,111.5-91.51A187.18,187.18,0,0,0,892.65-90.15a187.2,187.2,0,0,0-91.51-111.51A187.27,187.27,0,0,0,657.58-215.8Z" fill="url(#未命名漸層_33-40)"/><path d="M764.56,136.86a178.88,178.88,0,0,1-137.14-13.51A178.88,178.88,0,0,1,540,16.83a178.87,178.87,0,0,1,13.5-137.14A178.91,178.91,0,0,1,660-207.74a178.88,178.88,0,0,1,137.14,13.51A178.87,178.87,0,0,1,884.59-87.7a178.88,178.88,0,0,1-13.5,137.14A178.92,178.92,0,0,1,764.56,136.86ZM660.45-206.35a177.39,177.39,0,0,0-105.68,86.72,177.47,177.47,0,0,0-13.39,136A177.47,177.47,0,0,0,628.1,122.08a177.42,177.42,0,0,0,136,13.4A177.44,177.44,0,0,0,869.81,48.76a177.45,177.45,0,0,0,13.4-136A177.47,177.47,0,0,0,796.49-193,177.43,177.43,0,0,0,660.45-206.35Z" fill="url(#未命名漸層_33-41)"/><path d="M761.7,127.42a169.1,169.1,0,0,1-129.63-12.77A169,169,0,0,1,549.44,14,169.1,169.1,0,0,1,562.2-115.66a169.06,169.06,0,0,1,100.69-82.63,169.05,169.05,0,0,1,129.63,12.76A169.09,169.09,0,0,1,875.15-84.84,169.06,169.06,0,0,1,862.38,44.79,169,169,0,0,1,761.7,127.42ZM663.31-196.91A167.6,167.6,0,0,0,563.48-115,167.6,167.6,0,0,0,550.82,13.55a167.63,167.63,0,0,0,81.93,99.83A167.65,167.65,0,0,0,761.28,126a167.64,167.64,0,0,0,99.83-81.93A167.65,167.65,0,0,0,873.77-84.42a167.65,167.65,0,0,0-81.93-99.84A167.65,167.65,0,0,0,663.31-196.91Z" fill="url(#未命名漸層_33-42)"/><path d="M758.83,118a159.25,159.25,0,0,1-122.11-12A159.29,159.29,0,0,1,558.88,11.1a159.25,159.25,0,0,1,12-122.11,159.23,159.23,0,0,1,94.85-77.84,159.3,159.3,0,0,1,122.11,12A159.32,159.32,0,0,1,865.71-82a159.28,159.28,0,0,1-12,122.12A159.26,159.26,0,0,1,758.83,118ZM666.17-187.47a157.8,157.8,0,0,0-94,77.14,157.8,157.8,0,0,0-11.92,121,157.88,157.88,0,0,0,77.14,94,157.85,157.85,0,0,0,121,11.92,157.85,157.85,0,0,0,94-77.14,157.87,157.87,0,0,0,11.92-121,157.83,157.83,0,0,0-77.14-94A157.83,157.83,0,0,0,666.17-187.47Z" fill="url(#未命名漸層_33-43)"/><path d="M756,108.54C676.58,132.62,592.4,87.62,568.32,8.24s20.91-163.57,100.3-187.65S832.18-158.5,856.27-79.11,835.36,84.45,756,108.54ZM669-178C590.41-154.18,545.85-70.81,569.7,7.82S676.92,131,755.55,107.15,878.74-.07,854.89-78.69,747.66-201.88,669-178Z" fill="url(#未命名漸層_33-44)"/><path d="M753.1,99.09C678.92,121.6,600.27,79.55,577.76,5.37S597.3-147.47,671.48-170s152.84,19.54,175.35,93.72S827.28,76.59,753.1,99.09ZM671.9-168.59C598.48-146.32,556.87-68.47,579.14,5S679.27,120,752.69,97.71s115-100.12,92.75-173.54S745.32-190.86,671.9-168.59Z" fill="url(#未命名漸層_33-45)"/><path d="M750.24,89.65c-69,20.93-142.11-18.17-163-87.14s18.16-142.11,87.14-163,142.11,18.17,163,87.15S819.21,68.73,750.24,89.65Zm-75.47-248.8c-68.22,20.7-106.88,93-86.18,161.24s93,106.87,161.23,86.18S856.7-4.75,836-73A129.42,129.42,0,0,0,674.77-159.15Z" fill="url(#未命名漸層_33-46)"/><path d="M747.38,80.21A121,121,0,0,1,596.65-.36a121,121,0,0,1,80.56-150.72A121,121,0,0,1,827.94-70.52,121,121,0,0,1,747.38,80.21ZM677.63-149.7A119.53,119.53,0,0,0,598-.77,119.55,119.55,0,0,0,747,78.83,119.55,119.55,0,0,0,826.56-70.1,119.53,119.53,0,0,0,677.63-149.7Z" fill="url(#未命名漸層_33-47)"/><path d="M744.51,70.77a111.11,111.11,0,0,1-138.42-74,111.1,111.1,0,0,1,74-138.42,111.1,111.1,0,0,1,138.42,74A111.12,111.12,0,0,1,744.51,70.77Zm-64-211a109.65,109.65,0,0,0-73,136.62,109.67,109.67,0,0,0,136.62,73,109.68,109.68,0,0,0,73-136.63A109.65,109.65,0,0,0,680.5-140.26Z" fill="url(#未命名漸層_33-48)"/><path d="M741.65,61.33A101.24,101.24,0,0,1,615.53-6.08,101.22,101.22,0,0,1,682.94-132.2,101.23,101.23,0,0,1,809.06-64.79,101.24,101.24,0,0,1,741.65,61.33ZM683.36-130.82A99.79,99.79,0,0,0,616.91-6.5,99.8,99.8,0,0,0,741.23,60,99.8,99.8,0,0,0,807.68-64.37,99.79,99.79,0,0,0,683.36-130.82Z" fill="url(#未命名漸層_33-49)"/><path d="M738.78,51.88A91.35,91.35,0,0,1,625-8.95,91.37,91.37,0,0,1,685.8-122.76,91.36,91.36,0,0,1,799.62-61.93,91.36,91.36,0,0,1,738.78,51.88ZM686.22-121.38a89.92,89.92,0,0,0-59.87,112,89.91,89.91,0,0,0,112,59.87,89.91,89.91,0,0,0,59.88-112A89.92,89.92,0,0,0,686.22-121.38Z" fill="url(#未命名漸層_33-50)"/><path d="M735.92,42.44A81.48,81.48,0,0,1,634.41-11.81a81.49,81.49,0,0,1,54.26-101.51,81.47,81.47,0,0,1,101.5,54.26A81.47,81.47,0,0,1,735.92,42.44ZM689.09-111.94a80,80,0,0,0-53.3,99.71A80,80,0,0,0,735.5,41.06a80,80,0,0,0,53.29-99.7A80,80,0,0,0,689.09-111.94Z" fill="url(#未命名漸層_33-51)"/><path d="M733.06,33a71.59,71.59,0,0,1-89.2-47.68,71.6,71.6,0,0,1,47.67-89.2,71.6,71.6,0,0,1,89.2,47.68A71.6,71.6,0,0,1,733.06,33ZM692-102.5a70.16,70.16,0,0,0-46.71,87.41,70.15,70.15,0,0,0,87.4,46.71,70.15,70.15,0,0,0,46.71-87.4A70.15,70.15,0,0,0,692-102.5Z" fill="url(#未命名漸層_33-52)"/><path d="M730.19,23.56a61.72,61.72,0,0,1-76.89-41.1,61.71,61.71,0,0,1,41.1-76.89,61.71,61.71,0,0,1,76.89,41.1A61.72,61.72,0,0,1,730.19,23.56ZM694.82-93A60.27,60.27,0,0,0,654.68-18a60.27,60.27,0,0,0,75.09,40.14,60.28,60.28,0,0,0,40.14-75.1A60.27,60.27,0,0,0,694.82-93Z" fill="url(#未命名漸層_33-53)"/><path d="M727.33,14.12A51.85,51.85,0,0,1,662.74-20.4,51.85,51.85,0,0,1,697.26-85a51.85,51.85,0,0,1,64.59,34.52A51.85,51.85,0,0,1,727.33,14.12ZM697.68-83.61a50.4,50.4,0,0,0-33.56,62.79,50.4,50.4,0,0,0,62.79,33.56A50.4,50.4,0,0,0,760.47-50,50.4,50.4,0,0,0,697.68-83.61Z" fill="url(#未命名漸層_33-54)"/><path d="M724.46,4.68a42,42,0,0,1-52.28-27.95,42,42,0,0,1,28-52.28,42,42,0,0,1,52.28,27.94A42,42,0,0,1,724.46,4.68ZM700.54-74.17a40.52,40.52,0,0,0-27,50.48A40.53,40.53,0,0,0,724,3.3a40.53,40.53,0,0,0,27-50.49A40.53,40.53,0,0,0,700.54-74.17Z" fill="url(#未命名漸層_33-55)"/></g></g></g></g></svg>