<svg xmlns="http://www.w3.org/2000/svg" xmlns:xlink="http://www.w3.org/1999/xlink" viewBox="0 0 484 484">
  <defs>
    <linearGradient id="circle-nav-a" data-name="未命名漸層 38" x1="12486.2" y1="65.37" x2="12703.88" y2="65.37" gradientTransform="translate(2482.65 12636.67) rotate(-100.54)" gradientUnits="userSpaceOnUse">
      <stop offset="0" stop-color="#ffde3b"/>
      <stop offset="0.42" stop-color="#6bcdd3"/>
      <stop offset="0.45" stop-color="#5db8c4"/>
      <stop offset="0.5" stop-color="#4592aa"/>
      <stop offset="0.56" stop-color="#2f7194"/>
      <stop offset="0.62" stop-color="#1e5782"/>
      <stop offset="0.68" stop-color="#114274"/>
      <stop offset="0.76" stop-color="#07346a"/>
      <stop offset="0.85" stop-color="#022c64"/>
      <stop offset="1" stop-color="#002962"/>
    </linearGradient>
    <linearGradient id="circle-nav-b" x1="12490.51" y1="65.37" x2="12699.57" y2="65.37" xlink:href="#circle-nav-a"/>
    <linearGradient id="circle-nav-c" x1="12494.82" y1="65.37" x2="12695.26" y2="65.37" xlink:href="#circle-nav-a"/>
    <linearGradient id="circle-nav-d" x1="12499.13" y1="65.37" x2="12690.95" y2="65.37" xlink:href="#circle-nav-a"/>
    <linearGradient id="circle-nav-e" x1="12503.44" y1="65.37" x2="12686.64" y2="65.37" xlink:href="#circle-nav-a"/>
    <linearGradient id="circle-nav-f" x1="12507.75" y1="65.37" x2="12682.33" y2="65.37" xlink:href="#circle-nav-a"/>
    <linearGradient id="circle-nav-g" x1="12512.06" y1="65.37" x2="12678.02" y2="65.37" xlink:href="#circle-nav-a"/>
    <linearGradient id="circle-nav-h" x1="12516.37" y1="65.37" x2="12673.71" y2="65.37" xlink:href="#circle-nav-a"/>
    <linearGradient id="circle-nav-i" x1="12520.69" y1="65.37" x2="12669.39" y2="65.37" xlink:href="#circle-nav-a"/>
    <linearGradient id="circle-nav-j" x1="12525" y1="65.37" x2="12665.08" y2="65.37" xlink:href="#circle-nav-a"/>
    <linearGradient id="circle-nav-k" x1="12529.31" y1="65.37" x2="12660.77" y2="65.37" xlink:href="#circle-nav-a"/>
    <linearGradient id="circle-nav-l" x1="12533.62" y1="65.37" x2="12656.46" y2="65.37" xlink:href="#circle-nav-a"/>
    <linearGradient id="circle-nav-m" x1="12537.93" y1="65.37" x2="12652.15" y2="65.37" xlink:href="#circle-nav-a"/>
    <linearGradient id="circle-nav-n" x1="12542.24" y1="65.37" x2="12647.84" y2="65.37" xlink:href="#circle-nav-a"/>
    <linearGradient id="circle-nav-o" x1="12546.55" y1="65.37" x2="12643.53" y2="65.37" xlink:href="#circle-nav-a"/>
    <linearGradient id="circle-nav-p" x1="12550.86" y1="65.37" x2="12639.22" y2="65.37" xlink:href="#circle-nav-a"/>
    <linearGradient id="circle-nav-q" x1="12555.17" y1="65.37" x2="12634.91" y2="65.37" xlink:href="#circle-nav-a"/>
    <linearGradient id="circle-nav-r" x1="12559.48" y1="65.37" x2="12630.6" y2="65.37" xlink:href="#circle-nav-a"/>
    <linearGradient id="circle-nav-s" x1="12563.79" y1="65.37" x2="12626.29" y2="65.37" xlink:href="#circle-nav-a"/>
    <linearGradient id="circle-nav-t" x1="12568.1" y1="65.37" x2="12621.98" y2="65.37" xlink:href="#circle-nav-a"/>
    <linearGradient id="circle-nav-u" x1="12572.41" y1="65.37" x2="12617.67" y2="65.37" xlink:href="#circle-nav-a"/>
    <linearGradient id="circle-nav-v" x1="12576.73" y1="65.37" x2="12613.35" y2="65.37" xlink:href="#circle-nav-a"/>
    <linearGradient id="circle-nav-w" x1="12581.04" y1="65.37" x2="12609.04" y2="65.37" xlink:href="#circle-nav-a"/>
    <linearGradient id="circle-nav-x" x1="12585.35" y1="65.37" x2="12604.73" y2="65.37" xlink:href="#circle-nav-a"/>
    <linearGradient id="circle-nav-y" x1="12589.66" y1="65.37" x2="12600.42" y2="65.37" xlink:href="#circle-nav-a"/>
  </defs>
  <path d="M244,242.1,342,334.54A132.54,132.54,0,0,0,377,241.78c0-.8-.05-1.6-.08-2.4L244,242.1Z" fill="none"/>
  <path d="M244,242.1l132.93-2.72a132.5,132.5,0,0,0-36.84-86.87Z" fill="none"/>
  <path d="M244,377.55l2.73,0a132.68,132.68,0,0,0,95.22-43L244,242.1Z" fill="none"/>
  <path d="M244,242.1l96.09-89.59a132.63,132.63,0,0,0-96.09-41V242.1Z" fill="none"/>
  <path class="nav" data-id="1" d="M340.09,152.51l40.63-37.89A188,188,0,0,0,244,55.94v55.54A132.63,132.63,0,0,1,340.09,152.51Z" fill="#fff" opacity="0.7"/>
  <path class="nav" data-id="2" d="M376.93,239.38l55.54-1.14a187.9,187.9,0,0,0-51.75-123.62l-40.63,37.89A132.5,132.5,0,0,1,376.93,239.38Z" fill="#fff" opacity="0.7"/>
  <path class="nav" data-id="3" d="M432.55,240.65c0-.81-.06-1.61-.08-2.41l-55.54,1.14c0,.8.07,1.6.08,2.4A132.54,132.54,0,0,1,342,334.54l40.4,38.12A188,188,0,0,0,432.55,240.65Z" fill="#fff" opacity="0.7"/>
  <path class="nav" data-id="4" d="M246.73,377.53l-2.73,0v55.54c1.29,0,2.57,0,3.87,0a188,188,0,0,0,134.48-60.4L342,334.54A132.68,132.68,0,0,1,246.73,377.53Z" fill="#fff" opacity="0.7"/>
  <text transform="translate(255.57 91.02) rotate(7.03)" font-size="15" fill="#002a5e" font-weight="500" font-family="GenSekiGothicTW-M, GenSekiGothic TW">十</text>
  <text transform="translate(271.68 93.07) rotate(13.1)" font-size="15" fill="#002a5e" font-weight="500" font-family="GenSekiGothicTW-M, GenSekiGothic TW">大</text>
  <text transform="matrix(0.94, 0.33, -0.33, 0.94, 287.48, 96.81)" font-size="15" fill="#002a5e" font-weight="500" font-family="GenSekiGothicTW-M, GenSekiGothic TW">投</text>
  <text transform="translate(302.79 102.21) rotate(25.28)" font-size="15" fill="#002a5e" font-weight="500" font-family="GenSekiGothicTW-M, GenSekiGothic TW">資</text>
  <text transform="matrix(0.85, 0.52, -0.52, 0.85, 317.44, 109.2)" font-size="15" fill="#002a5e" font-weight="500" font-family="GenSekiGothicTW-M, GenSekiGothic TW">預</text>
  <text transform="matrix(0.79, 0.61, -0.61, 0.79, 331.27, 117.7)" font-size="15" fill="#002a5e" font-weight="500" font-family="GenSekiGothicTW-M, GenSekiGothic TW">測</text>
  <text transform="matrix(0.75, 0.66, -0.66, 0.75, 344.11, 127.81)" font-size="15" fill="#002a5e" font-weight="500" font-family="GenSekiGothicTW-M, GenSekiGothic TW"> </text>
  <text transform="translate(347.69 130.98) rotate(43.05)" font-size="15" fill="#002a5e" font-weight="500" font-family="GenSekiGothicTW-M, GenSekiGothic TW"> </text>
  <text transform="translate(351.19 134.29) rotate(44.83)" font-size="15" fill="#002a5e" font-weight="500" font-family="GenSekiGothicTW-M, GenSekiGothic TW"> </text>
  <text transform="translate(354.57 137.67) rotate(46.6)" font-size="15" fill="#002a5e" font-weight="500" font-family="GenSekiGothicTW-M, GenSekiGothic TW"> </text>
  <text transform="translate(357.84 141.16) rotate(48.37)" font-size="15" fill="#002a5e" font-weight="500" font-family="GenSekiGothicTW-M, GenSekiGothic TW"> </text>
  <text transform="translate(361.09 144.59) rotate(52.28)" font-size="15" fill="#002a5e" font-weight="500" font-family="GenSekiGothicTW-M, GenSekiGothic TW">氣</text>
  <text transform="translate(370.97 157.47) rotate(58.31)" font-size="15" fill="#002a5e" font-weight="500" font-family="GenSekiGothicTW-M, GenSekiGothic TW">候</text>
  <text transform="translate(379.44 171.31) rotate(64.36)" font-size="15" fill="#002a5e" font-weight="500" font-family="GenSekiGothicTW-M, GenSekiGothic TW">投</text>
  <text transform="translate(386.41 185.99) rotate(70.45)" font-size="15" fill="#002a5e" font-weight="500" font-family="GenSekiGothicTW-M, GenSekiGothic TW">資</text>
  <text transform="translate(391.78 201.31) rotate(76.54)" font-size="15" fill="#002a5e" font-weight="500" font-family="GenSekiGothicTW-M, GenSekiGothic TW">機</text>
  <text transform="translate(395.49 217.1) rotate(82.61)" font-size="15" fill="#002a5e" font-weight="500" font-family="GenSekiGothicTW-M, GenSekiGothic TW">會</text>
  <text transform="translate(397.35 233.32) rotate(86.51)" font-size="15" fill="#002a5e" font-weight="500" font-family="GenSekiGothicTW-M, GenSekiGothic TW"> </text>
  <text transform="matrix(0.03, 1, -1, 0.03, 397.62, 238.12)" font-size="15" fill="#002a5e" font-weight="500" font-family="GenSekiGothicTW-M, GenSekiGothic TW"> </text>
  <text transform="translate(397.77 242.86) rotate(90.93)" font-size="15" fill="#002a5e" font-weight="500" font-family="GenSekiGothicTW-M, GenSekiGothic TW"> </text>
  <text transform="matrix(-0.03, 1, -1, -0.03, 397.72, 247.69)" font-size="15" fill="#002a5e" font-weight="500" font-family="GenSekiGothicTW-M, GenSekiGothic TW"> </text>
  <text transform="translate(397.73 252.4) rotate(95.66)" font-size="15" fill="#002a5e" font-weight="500" font-family="GenSekiGothicTW-M, GenSekiGothic TW">債</text>
  <text transform="translate(396.06 268.56) rotate(101.72)" font-size="15" fill="#002a5e" font-weight="500" font-family="GenSekiGothicTW-M, GenSekiGothic TW">信</text>
  <text transform="translate(392.7 284.44) rotate(107.81)" font-size="15" fill="#002a5e" font-weight="500" font-family="GenSekiGothicTW-M, GenSekiGothic TW">投</text>
  <text transform="translate(387.67 299.89) rotate(113.9)" font-size="15" fill="#002a5e" font-weight="500" font-family="GenSekiGothicTW-M, GenSekiGothic TW">資</text>
  <text transform="translate(381.03 314.69) rotate(119.96)" font-size="15" fill="#002a5e" font-weight="500" font-family="GenSekiGothicTW-M, GenSekiGothic TW">機</text>
  <text transform="translate(372.86 328.73) rotate(126.01)" font-size="15" fill="#002a5e" font-weight="500" font-family="GenSekiGothicTW-M, GenSekiGothic TW">會</text>
  <text transform="matrix(-0.64, 0.77, -0.77, -0.64, 363.07, 341.79)" font-size="15" fill="#002a5e" font-weight="500" font-family="GenSekiGothicTW-M, GenSekiGothic TW"> </text>
  <text transform="translate(359.97 345.47) rotate(131.69)" font-size="15" fill="#002a5e" font-weight="500" font-family="GenSekiGothicTW-M, GenSekiGothic TW"> </text>
  <text transform="translate(356.77 349.03) rotate(133.46)" font-size="15" fill="#002a5e" font-weight="500" font-family="GenSekiGothicTW-M, GenSekiGothic TW"> </text>
  <text transform="matrix(-0.71, 0.7, -0.7, -0.71, 353.46, 352.48)" font-size="15" fill="#002a5e" font-weight="500" font-family="GenSekiGothicTW-M, GenSekiGothic TW"> </text>
  <text transform="translate(350.05 355.84) rotate(137.01)" font-size="15" fill="#002a5e" font-weight="500" font-family="GenSekiGothicTW-M, GenSekiGothic TW"> </text>
  <text transform="matrix(-0.78, 0.63, -0.63, -0.78, 346.7, 359.17)" font-size="15" fill="#002a5e" font-weight="500" font-family="GenSekiGothicTW-M, GenSekiGothic TW">最</text>
  <text transform="matrix(-0.84, 0.55, -0.55, -0.84, 334.05, 369.36)" font-size="15" fill="#002a5e" font-weight="500" font-family="GenSekiGothicTW-M, GenSekiGothic TW">強</text>
  <text transform="translate(320.41 378.16) rotate(152.99)" font-size="15" fill="#002a5e" font-weight="500" font-family="GenSekiGothicTW-M, GenSekiGothic TW">顛</text>
  <text transform="matrix(-0.93, 0.36, -0.36, -0.93, 305.93, 385.47)" font-size="15" fill="#002a5e" font-weight="500" font-family="GenSekiGothicTW-M, GenSekiGothic TW">覆</text>
  <text transform="matrix(-0.97, 0.26, -0.26, -0.97, 290.74, 391.22)" font-size="15" fill="#002a5e" font-weight="500" font-family="GenSekiGothicTW-M, GenSekiGothic TW">產</text>
  <text transform="translate(275 395.31) rotate(171.24)" font-size="15" fill="#002a5e" font-weight="500" font-family="GenSekiGothicTW-M, GenSekiGothic TW">業</text>
  <text transform="matrix(-1, 0.08, -0.08, -1, 258.85, 397.56)" font-size="15" fill="#002a5e" font-weight="500" font-family="GenSekiGothicTW-M, GenSekiGothic TW"> </text>
  <text transform="translate(254.09 397.94) rotate(176.92)" font-size="15" fill="#002a5e" font-weight="500" font-family="GenSekiGothicTW-M, GenSekiGothic TW"> </text>
  <text transform="translate(249.28 398.18) rotate(178.68)" font-size="15" fill="#002a5e" font-weight="500" font-family="GenSekiGothicTW-M, GenSekiGothic TW"> </text>
  <text transform="translate(244.51 398.28) rotate(-179.07)" font-size="15" fill="#002a5e" font-weight="500" font-family="GenSekiGothicTW-M, GenSekiGothic TW"> </text>
  <text transform="translate(239.68 398.2) rotate(-177.8)" font-size="15" fill="#002a5e" font-weight="500" font-family="GenSekiGothicTW-M, GenSekiGothic TW"> </text>
  <text transform="translate(234.89 398) rotate(-176.03)" font-size="15" fill="#002a5e" font-weight="500" font-family="GenSekiGothicTW-M, GenSekiGothic TW"> </text>
  <g>
    <path d="M351,222.1a108.85,108.85,0,1,1-45.42-69.84A108.16,108.16,0,0,1,351,222.1Zm-213.4,39.69a108.21,108.21,0,1,0,17.17-81A107.55,107.55,0,0,0,137.61,261.79Z" fill="url(#circle-nav-a)"/>
    <path d="M346.77,222.89a104.54,104.54,0,1,1-43.62-67.07A103.86,103.86,0,0,1,346.77,222.89ZM141.85,261a103.91,103.91,0,1,0,16.49-77.8A103.23,103.23,0,0,0,141.85,261Z" fill="url(#circle-nav-b)"/>
    <path d="M342.53,223.68a100.22,100.22,0,1,1-41.82-64.31A99.56,99.56,0,0,1,342.53,223.68ZM146.09,260.21a99.58,99.58,0,1,0,15.8-74.57A98.93,98.93,0,0,0,146.09,260.21Z" fill="url(#circle-nav-c)"/>
    <path d="M338.29,224.46a95.92,95.92,0,1,1-40-61.53A95.24,95.24,0,0,1,338.29,224.46Zm-188,35a95.28,95.28,0,1,0,15.12-71.34A94.64,94.64,0,0,0,150.33,259.42Z" fill="url(#circle-nav-d)"/>
    <path d="M334.05,225.25a91.59,91.59,0,1,1-38.22-58.77A90.93,90.93,0,0,1,334.05,225.25ZM154.57,258.63A91,91,0,1,0,169,190.52,90.37,90.37,0,0,0,154.57,258.63Z" fill="url(#circle-nav-e)"/>
    <path d="M329.82,226a87.29,87.29,0,1,1-36.42-56A86.77,86.77,0,0,1,329.82,226Zm-171,31.8A86.66,86.66,0,1,0,172.55,193,86.15,86.15,0,0,0,158.8,257.84Z" fill="url(#circle-nav-f)"/>
    <path d="M325.58,226.83A83,83,0,1,1,291,173.59,82.47,82.47,0,0,1,325.58,226.83ZM163,257.06a82.36,82.36,0,1,0,13.07-61.66A81.8,81.8,0,0,0,163,257.06Z" fill="url(#circle-nav-g)"/>
    <path d="M321.34,227.62a78.66,78.66,0,1,1-32.82-50.48A78.17,78.17,0,0,1,321.34,227.62ZM167.28,256.27a78,78,0,1,0,12.38-58.43A77.56,77.56,0,0,0,167.28,256.27Z" fill="url(#circle-nav-h)"/>
    <path d="M317.1,228.4a74.36,74.36,0,1,1-31-47.7A73.89,73.89,0,0,1,317.1,228.4ZM171.52,255.48a73.73,73.73,0,1,0,11.7-55.2A73.21,73.21,0,0,0,171.52,255.48Z" fill="url(#circle-nav-i)"/>
    <path d="M312.86,229.19a70,70,0,1,1-29.22-44.94A69.59,69.59,0,0,1,312.86,229.19Zm-137.1,25.5a69.4,69.4,0,1,0,11-52A68.94,68.94,0,0,0,175.76,254.69Z" fill="url(#circle-nav-j)"/>
    <path d="M308.62,230A65.73,65.73,0,1,1,232,177.38,65.81,65.81,0,0,1,308.62,230ZM180,253.9A65.11,65.11,0,1,0,232.1,178,65.19,65.19,0,0,0,180,253.9Z" fill="url(#circle-nav-k)"/>
    <path d="M304.39,230.77a61.43,61.43,0,1,1-71.62-49.16A61.5,61.5,0,0,1,304.39,230.77ZM184.23,253.12a60.8,60.8,0,1,0,48.65-70.89A60.87,60.87,0,0,0,184.23,253.12Z" fill="url(#circle-nav-l)"/>
    <path d="M300.15,231.56a57.11,57.11,0,1,1-66.59-45.71A57.18,57.18,0,0,1,300.15,231.56ZM188.47,252.33a56.48,56.48,0,1,0,45.2-65.86A56.55,56.55,0,0,0,188.47,252.33Z" fill="url(#circle-nav-m)"/>
    <path d="M295.91,232.35a52.8,52.8,0,1,1-61.56-42.26A52.86,52.86,0,0,1,295.91,232.35Zm-103.2,19.19a52.17,52.17,0,1,0,41.75-60.83A52.23,52.23,0,0,0,192.71,251.54Z" fill="url(#circle-nav-n)"/>
    <path d="M291.67,233.13a48.49,48.49,0,1,1-56.54-38.8A48.54,48.54,0,0,1,291.67,233.13ZM197,250.75a47.86,47.86,0,1,0,38.3-55.8A47.9,47.9,0,0,0,197,250.75Z" fill="url(#circle-nav-o)"/>
    <path d="M287.43,233.92a44.18,44.18,0,1,1-51.51-35.35A44.22,44.22,0,0,1,287.43,233.92Zm-86.24,16A43.54,43.54,0,1,0,236,199.19,43.58,43.58,0,0,0,201.19,250Z" fill="url(#circle-nav-p)"/>
    <path d="M283.2,234.71a39.87,39.87,0,1,1-46.49-31.91A39.92,39.92,0,0,1,283.2,234.71Zm-77.78,14.46a39.24,39.24,0,1,0,31.41-45.75A39.29,39.29,0,0,0,205.42,249.17Z" fill="url(#circle-nav-q)"/>
    <path d="M279,235.5A35.56,35.56,0,1,1,237.5,207,35.61,35.61,0,0,1,279,235.5Zm-69.3,12.89a34.93,34.93,0,1,0,28-40.73A35,35,0,0,0,209.66,248.39Z" fill="url(#circle-nav-r)"/>
    <path d="M274.72,236.29a31.25,31.25,0,1,1-36.43-25A31.28,31.28,0,0,1,274.72,236.29ZM213.9,247.6a30.62,30.62,0,1,0,24.5-35.7A30.65,30.65,0,0,0,213.9,247.6Z" fill="url(#circle-nav-s)"/>
    <path d="M270.48,237.08a26.93,26.93,0,1,1-31.41-21.56A27,27,0,0,1,270.48,237.08Zm-52.34,9.73a26.3,26.3,0,1,0,21.05-30.67A26.33,26.33,0,0,0,218.14,246.81Z" fill="url(#circle-nav-t)"/>
    <path d="M266.24,237.86a22.62,22.62,0,1,1-26.38-18.1A22.64,22.64,0,0,1,266.24,237.86ZM222.38,246A22,22,0,1,0,240,220.38,22,22,0,0,0,222.38,246Z" fill="url(#circle-nav-u)"/>
    <path d="M262,238.65A18.32,18.32,0,1,1,240.65,224,18.35,18.35,0,0,1,262,238.65Zm-35.4,6.58a17.69,17.69,0,1,0,14.16-20.62A17.72,17.72,0,0,0,226.61,245.23Z" fill="url(#circle-nav-v)"/>
    <path d="M257.77,239.44a14,14,0,1,1-16.33-11.21A14,14,0,0,1,257.77,239.44Zm-26.92,5a13.38,13.38,0,1,0,10.7-15.6A13.39,13.39,0,0,0,230.85,244.45Z" fill="url(#circle-nav-w)"/>
    <path d="M253.53,240.23a9.69,9.69,0,1,1-11.3-7.76A9.7,9.7,0,0,1,253.53,240.23Zm-18.44,3.43a9.06,9.06,0,1,0,7.25-10.57A9.07,9.07,0,0,0,235.09,243.66Z" fill="url(#circle-nav-x)"/>
    <path d="M249.29,241a5.38,5.38,0,1,1-6.27-4.31A5.39,5.39,0,0,1,249.29,241Zm-10,1.85a4.75,4.75,0,1,0,3.8-5.54A4.75,4.75,0,0,0,239.33,242.87Z" fill="url(#circle-nav-y)"/>
  </g>
</svg>
